<svg width="55" height="55" viewBox="0 0 55 55" fill="none" xmlns="http://www.w3.org/2000/svg">
<path d="M32.9395 36.3555L32.9395 35.3555L32.9395 36.3555ZM31.9395 41.7032C31.9395 42.2555 32.3872 42.7032 32.9395 42.7032C33.4918 42.7032 33.9395 42.2555 33.9395 41.7032L31.9395 41.7032ZM33.9395 47.6109C33.9395 47.0586 33.4918 46.6109 32.9395 46.6109C32.3872 46.6109 31.9395 47.0586 31.9395 47.6109L33.9395 47.6109ZM28.7325 54.0769C29.2848 54.0769 29.7325 53.6292 29.7325 53.0769C29.7325 52.5246 29.2848 52.0769 28.7325 52.0769L28.7325 54.0769ZM31.6131 52.0769C31.0608 52.0769 30.6131 52.5246 30.6131 53.0769C30.6131 53.6292 31.0608 54.0769 31.6131 54.0769L31.6131 52.0769ZM9.92212 41.6374L10.645 42.3283L9.92212 41.6374ZM18.2478 48.1246L18.9549 47.4175L18.2478 48.1246ZM16.3274 47.5978L17.0345 48.3049L16.3274 47.5978ZM17.721 47.5978L17.0139 48.3049L17.721 47.5978ZM14.8152 47.7164L14.1081 48.4235L14.8152 47.7164ZM16.2088 47.7164L16.9159 48.4235L16.2088 47.7164ZM14.6966 47.5978L15.4037 46.8907L14.6966 47.5978ZM12.7762 48.1246L12.0691 47.4175L12.7762 48.1246ZM10.2243 48.1246L10.9314 47.4175L10.2243 48.1246ZM7.5807 45.481L8.28781 44.7739L7.5807 45.481ZM7.56514 44.1033L6.84225 43.4123L7.56514 44.1033ZM6.87359 46.1881L9.51715 48.8317L10.9314 47.4175L8.28781 44.7739L6.87359 46.1881ZM10.9211 49.4132L12.0794 49.4132L12.0794 47.4132L10.9211 47.4132L10.9211 49.4132ZM13.4833 48.8317L14.0101 48.3049L12.5958 46.8907L12.0691 47.4175L13.4833 48.8317ZM13.9895 48.3049L14.1081 48.4235L15.5223 47.0093L15.4037 46.8907L13.9895 48.3049ZM16.9159 48.4235L17.0345 48.3049L15.6203 46.8907L15.5017 47.0093L16.9159 48.4235ZM17.0139 48.3049L17.5406 48.8317L18.9549 47.4175L18.4281 46.8907L17.0139 48.3049ZM18.9446 49.4132L27.2747 49.4132L27.2747 47.4132L18.9446 47.4132L18.9446 49.4132ZM26.2747 48.4132L26.2747 51.9107L28.2747 51.9107L28.2747 48.4132L26.2747 48.4132ZM26.2747 38.444L26.2747 41.0193L28.2747 41.0193L28.2747 38.444L26.2747 38.444ZM27.2747 40.0193L11.3679 40.0193L11.3679 42.0193L27.2747 42.0193L27.2747 40.0193ZM9.19922 40.9464L6.84225 43.4123L8.28803 44.7942L10.645 42.3283L9.19922 40.9464ZM26.2747 41.0193L26.2747 48.4132L28.2747 48.4132L28.2747 41.0193L26.2747 41.0193ZM37.1901 35.3555L32.9395 35.3555L32.9395 37.3555L37.1901 37.3555L37.1901 35.3555ZM32.9395 35.3555L29.3633 35.3555L29.3633 37.3555L32.9395 37.3555L32.9395 35.3555ZM31.9395 36.3555L31.9395 41.7032L33.9395 41.7032L33.9395 36.3555L31.9395 36.3555ZM32.9395 54.0769L37.1901 54.0769L37.1901 52.0769L32.9395 52.0769L32.9395 54.0769ZM33.9395 53.0769L33.9395 47.6109L31.9395 47.6109L31.9395 53.0769L33.9395 53.0769ZM28.4409 54.0769L28.7325 54.0769L28.7325 52.0769L28.4409 52.0769L28.4409 54.0769ZM31.8564 54.0769L32.9395 54.0769L32.9395 52.0769L31.8564 52.0769L31.8564 54.0769ZM31.6131 54.0769L31.8564 54.0769L31.8564 52.0769L31.6131 52.0769L31.6131 54.0769ZM11.3679 40.0193C10.5488 40.0193 9.76522 40.3543 9.19922 40.9464L10.645 42.3283C10.8337 42.1309 11.0949 42.0193 11.3679 42.0193L11.3679 40.0193ZM46.5508 44.7162C46.5508 39.5464 42.3599 35.3555 37.1901 35.3555L37.1901 37.3555C41.2553 37.3555 44.5508 40.651 44.5508 44.7162L46.5508 44.7162ZM44.5508 44.7162C44.5508 48.7814 41.2553 52.0769 37.1901 52.0769L37.1901 54.0769C42.3599 54.0769 46.5508 49.8859 46.5508 44.7162L44.5508 44.7162ZM26.2747 51.9107C26.2747 53.107 27.2446 54.0769 28.4409 54.0769L28.4409 52.0769C28.3492 52.0769 28.2747 52.0025 28.2747 51.9107L26.2747 51.9107ZM17.5406 48.8317C17.913 49.204 18.418 49.4132 18.9446 49.4132L18.9446 47.4132C18.9484 47.4132 18.9521 47.4147 18.9549 47.4175L17.5406 48.8317ZM17.0345 48.3049C17.0347 48.3047 17.0342 48.3052 17.0329 48.3061C17.0318 48.3068 17.0305 48.3075 17.0291 48.3081C17.0267 48.3091 17.025 48.3092 17.0242 48.3092C17.0234 48.3092 17.0217 48.3091 17.0192 48.3081C17.0179 48.3075 17.0166 48.3068 17.0154 48.3061C17.0142 48.3052 17.0137 48.3047 17.0139 48.3049L18.4281 46.8907C17.6527 46.1154 16.3956 46.1154 15.6203 46.8907L17.0345 48.3049ZM14.1081 48.4235C14.8834 49.1989 16.1405 49.1989 16.9159 48.4235L15.5017 47.0093C15.5015 47.0095 15.502 47.009 15.5032 47.0082C15.5044 47.0074 15.5057 47.0067 15.507 47.0062C15.5095 47.0051 15.5111 47.005 15.512 47.005C15.5128 47.005 15.5145 47.0051 15.5169 47.0062C15.5183 47.0067 15.5196 47.0074 15.5207 47.0082C15.522 47.009 15.5225 47.0095 15.5223 47.0093L14.1081 48.4235ZM14.0101 48.3049C14.0103 48.3047 14.0098 48.3052 14.0085 48.3061C14.0074 48.3068 14.006 48.3075 14.0047 48.3081C14.0023 48.3091 14.0006 48.3092 13.9998 48.3092C13.9989 48.3092 13.9973 48.3091 13.9948 48.3081C13.9935 48.3075 13.9922 48.3068 13.991 48.3061C13.9898 48.3052 13.9893 48.3047 13.9895 48.3049L15.4037 46.8907C14.6283 46.1154 13.3712 46.1154 12.5958 46.8907L14.0101 48.3049ZM12.0794 49.4132C12.606 49.4132 13.111 49.204 13.4833 48.8317L12.0691 47.4175C12.0718 47.4147 12.0755 47.4132 12.0794 47.4132L12.0794 49.4132ZM9.51715 48.8317C9.8895 49.204 10.3945 49.4132 10.9211 49.4132L10.9211 47.4132C10.9249 47.4132 10.9286 47.4147 10.9314 47.4175L9.51715 48.8317ZM28.2747 38.444C28.2747 37.8428 28.7621 37.3555 29.3633 37.3555L29.3633 35.3555C27.6575 35.3555 26.2747 36.7383 26.2747 38.444L28.2747 38.444ZM8.28781 44.7739C8.28764 44.7737 8.28817 44.7743 8.28896 44.7754C8.28971 44.7766 8.29039 44.7778 8.2909 44.7791C8.29189 44.7815 8.29205 44.7831 8.29206 44.784C8.29207 44.7849 8.29195 44.7865 8.29102 44.789C8.29053 44.7902 8.28988 44.7915 8.28915 44.7927C8.28839 44.7939 8.28787 44.7944 8.28803 44.7942L6.84225 43.4123C6.09665 44.1924 6.11058 45.4251 6.87359 46.1881L8.28781 44.7739Z" fill="white"/>
<circle cx="39.4442" cy="44.7902" r="2.14953" transform="rotate(90 39.4442 44.7902)" stroke="white" stroke-width="1.5"/>
<path d="M21.6205 12.9062C21.6205 12.3539 21.1728 11.9062 20.6205 11.9062C20.0682 11.9062 19.6205 12.3539 19.6205 12.9062L21.6205 12.9062ZM19.6205 6.99845C19.6205 7.55073 20.0682 7.99845 20.6205 7.99845C21.1728 7.99845 21.6205 7.55073 21.6205 6.99845L19.6205 6.99845ZM22.4441 2.5325C22.9963 2.5325 23.4441 2.08479 23.4441 1.5325C23.4441 0.980217 22.9963 0.532501 22.4441 0.532501L22.4441 2.5325ZM25.4003 0.532501C24.848 0.532501 24.4003 0.980217 24.4003 1.5325C24.4003 2.08479 24.848 2.5325 25.4003 2.5325L25.4003 0.532501ZM44.5061 12.663L43.7832 11.972L44.5061 12.663ZM35.8851 6.4848L35.178 7.19191L35.8851 6.4848ZM37.8055 7.01155L37.0983 6.30444L37.8055 7.01155ZM36.4118 7.01155L37.1189 6.30444L36.4118 7.01155ZM39.3177 6.89299L40.0248 6.18588L39.3177 6.89299ZM37.924 6.89299L37.2169 6.18588L37.924 6.89299ZM39.4362 7.01155L38.7291 7.71865L39.4362 7.01155ZM41.3566 6.4848L42.0637 7.19191L41.3566 6.4848ZM43.9086 6.4848L43.2014 7.19191L43.9086 6.4848ZM46.5521 9.12836L45.845 9.83547L46.5521 9.12836ZM46.5677 10.5061L47.2906 11.1971L46.5677 10.5061ZM47.2592 8.42125L44.6157 5.7777L43.2014 7.19191L45.845 9.83547L47.2592 8.42125ZM43.2117 5.19617L42.0534 5.19617L42.0534 7.19617L43.2117 7.19617L43.2117 5.19617ZM40.6495 5.7777L40.1227 6.30444L41.537 7.71865L42.0637 7.19191L40.6495 5.7777ZM40.1433 6.30444L40.0248 6.18588L38.6105 7.6001L38.7291 7.71865L40.1433 6.30444ZM37.2169 6.18588L37.0983 6.30444L38.5126 7.71865L38.6311 7.6001L37.2169 6.18588ZM37.1189 6.30444L36.5922 5.7777L35.178 7.19191L35.7047 7.71865L37.1189 6.30444ZM35.1882 5.19617L26.8581 5.19617L26.8581 7.19617L35.1882 7.19617L35.1882 5.19617ZM27.8581 6.19617L27.8581 2.6987L25.8581 2.6987L25.8581 6.19617L27.8581 6.19617ZM27.8581 16.1654L27.8581 13.5901L25.8581 13.5901L25.8581 16.1654L27.8581 16.1654ZM26.8581 14.5901L42.3374 14.5901L42.3374 12.5901L26.8581 12.5901L26.8581 14.5901ZM45.229 13.3539L47.2906 11.1971L45.8448 9.81514L43.7832 11.972L45.229 13.3539ZM27.8581 13.5901L27.8581 6.19617L25.8581 6.19617L25.8581 13.5901L27.8581 13.5901ZM16.9427 19.2539L20.6205 19.2539L20.6205 17.2539L16.9427 17.2539L16.9427 19.2539ZM20.6205 19.2539L24.7695 19.2539L24.7695 17.2539L20.6205 17.2539L20.6205 19.2539ZM21.6205 18.2539L21.6205 12.9062L19.6205 12.9062L19.6205 18.2539L21.6205 18.2539ZM20.6205 0.532501L16.9427 0.532501L16.9427 2.5325L20.6205 2.5325L20.6205 0.532501ZM19.6205 1.5325L19.6205 6.99845L21.6205 6.99845L21.6205 1.5325L19.6205 1.5325ZM22.4441 0.532501L20.6205 0.532501L20.6205 2.5325L22.4441 2.5325L22.4441 0.532501ZM25.6919 0.532501L25.4003 0.532501L25.4003 2.5325L25.6919 2.5325L25.6919 0.532501ZM42.3374 14.5901C43.4296 14.5901 44.4743 14.1435 45.229 13.3539L43.7832 11.972C43.4059 12.3668 42.8835 12.5901 42.3374 12.5901L42.3374 14.5901ZM7.58203 9.8932C7.58203 15.063 11.773 19.2539 16.9427 19.2539L16.9427 17.2539C12.8775 17.2539 9.58203 13.9584 9.58203 9.8932L7.58203 9.8932ZM9.58203 9.8932C9.58203 5.828 12.8775 2.5325 16.9427 2.5325L16.9427 0.532501C11.773 0.532501 7.58203 4.72343 7.58203 9.8932L9.58203 9.8932ZM27.8581 2.6987C27.8581 1.50234 26.8882 0.532501 25.6919 0.532501L25.6919 2.5325C25.7837 2.5325 25.8581 2.60691 25.8581 2.6987L27.8581 2.6987ZM36.5922 5.7777C36.2198 5.40535 35.7148 5.19617 35.1882 5.19617L35.1882 7.19617C35.1844 7.19617 35.1807 7.19464 35.178 7.19191L36.5922 5.7777ZM37.0983 6.30444C37.0981 6.30466 37.0986 6.30413 37.0999 6.30331C37.101 6.30253 37.1024 6.30185 37.1037 6.30132C37.1061 6.30031 37.1078 6.30018 37.1086 6.30018C37.1095 6.30018 37.1111 6.30031 37.1136 6.30132C37.1149 6.30185 37.1162 6.30254 37.1174 6.30331C37.1186 6.30413 37.1191 6.30466 37.1189 6.30444L35.7047 7.71865C36.4801 8.49402 37.7372 8.49402 38.5126 7.71865L37.0983 6.30444ZM40.0248 6.18588C39.2494 5.41052 37.9923 5.41052 37.2169 6.18588L38.6311 7.6001C38.6313 7.59988 38.6308 7.60041 38.6296 7.60122C38.6284 7.602 38.6271 7.60269 38.6258 7.60322C38.6233 7.60422 38.6217 7.60436 38.6208 7.60436C38.62 7.60436 38.6183 7.60422 38.6159 7.60322C38.6146 7.60269 38.6132 7.602 38.6121 7.60122C38.6108 7.60041 38.6103 7.59988 38.6105 7.6001L40.0248 6.18588ZM40.1227 6.30444C40.1225 6.30466 40.123 6.30413 40.1243 6.30331C40.1254 6.30254 40.1268 6.30185 40.1281 6.30132C40.1305 6.30031 40.1322 6.30018 40.133 6.30018C40.1339 6.30018 40.1355 6.30031 40.138 6.30132C40.1393 6.30185 40.1406 6.30254 40.1418 6.30331C40.143 6.30413 40.1435 6.30466 40.1433 6.30444L38.7291 7.71865C39.5045 8.49402 40.7616 8.49402 41.537 7.71865L40.1227 6.30444ZM42.0534 5.19617C41.5268 5.19617 41.0218 5.40535 40.6495 5.7777L42.0637 7.19191C42.061 7.19464 42.0573 7.19617 42.0534 7.19617L42.0534 5.19617ZM44.6157 5.7777C44.2433 5.40535 43.7383 5.19617 43.2117 5.19617L43.2117 7.19617C43.2079 7.19617 43.2042 7.19464 43.2014 7.19191L44.6157 5.7777ZM25.8581 16.1654C25.8581 16.7665 25.3707 17.2539 24.7695 17.2539L24.7695 19.2539C26.4753 19.2539 27.8581 17.8711 27.8581 16.1654L25.8581 16.1654ZM45.845 9.83547C45.8452 9.83563 45.8446 9.83512 45.8439 9.83393C45.8431 9.83279 45.8424 9.83152 45.8419 9.83027C45.8409 9.82787 45.8408 9.82623 45.8407 9.82535C45.8407 9.82447 45.8409 9.82283 45.8418 9.82041C45.8423 9.81914 45.8429 9.81786 45.8437 9.8167C45.8444 9.81549 45.8449 9.81497 45.8448 9.81514L47.2906 11.1971C48.0362 10.417 48.0222 9.18427 47.2592 8.42125L45.845 9.83547Z" fill="white"/>
<circle cx="14.6886" cy="9.81531" r="2.14953" transform="rotate(-90 14.6886 9.81531)" stroke="white" stroke-width="1.5"/>
<path d="M23.0938 27.4521L25.8465 30.1932L30.4344 24.7109" stroke="white" stroke-width="2" stroke-linecap="round" stroke-linejoin="round"/>
<path d="M26.7657 36.5947C31.8333 36.5947 35.9415 32.5039 35.9415 27.4575C35.9415 22.4112 31.8333 18.3203 26.7657 18.3203C21.698 18.3203 17.5898 22.4112 17.5898 27.4575C17.5898 32.5039 21.698 36.5947 26.7657 36.5947Z" stroke="white" stroke-width="2"/>
</svg>
