<svg width="55" height="55" viewBox="0 0 55 55" fill="none" xmlns="http://www.w3.org/2000/svg">
<circle cx="15.9013" cy="14.0419" r="1.69036" stroke="white" stroke-width="2"/>
<circle cx="15.9091" cy="22.7372" r="1.69036" stroke="white" stroke-width="2"/>
<circle cx="15.9208" cy="31.4325" r="1.69036" stroke="white" stroke-width="2"/>
<circle cx="15.9208" cy="39.9755" r="1.69036" stroke="white" stroke-width="2"/>
<path d="M26.6094 14.043L37.1417 14.043" stroke="white" stroke-width="2" stroke-linecap="round"/>
<path d="M22.0234 22.7383L37.1394 22.7383" stroke="white" stroke-width="2" stroke-linecap="round"/>
<path d="M42.4736 41.2881L42.4724 7.24642C42.4724 6.32074 43.2228 5.57031 44.1484 5.57031V5.57031" stroke="white" stroke-width="2" stroke-linecap="round"/>
<path d="M22.0234 39.9766L37.1394 39.9766" stroke="white" stroke-width="2" stroke-linecap="round"/>
<path d="M22.0234 31.4375L32.5636 31.4375" stroke="white" stroke-width="2" stroke-linecap="round"/>
<path d="M22.0234 14.043L23.4488 14.043" stroke="white" stroke-width="2" stroke-linecap="round"/>
<path d="M35.7148 31.4375L37.1402 31.4375" stroke="white" stroke-width="2" stroke-linecap="round"/>
<path d="M42.4723 41.5367V40.5367H41.4723V41.5367H42.4723ZM44.8914 27.3157C44.8914 27.868 45.3391 28.3157 45.8914 28.3157C46.4437 28.3157 46.8914 27.868 46.8914 27.3157H44.8914ZM46.8914 31.0373C46.8914 30.485 46.4437 30.0373 45.8914 30.0373C45.3391 30.0373 44.8914 30.485 44.8914 31.0373H46.8914ZM14.1211 5.96094H42.4723V3.96094H14.1211V5.96094ZM40.4723 49.902H10.1211V51.902H40.4723V49.902ZM9.12109 48.902V10.9609H7.12109V48.902H9.12109ZM41.4723 41.5367V48.902H43.4723V41.5367H41.4723ZM43.8914 40.5367H42.4723V42.5367H43.8914V40.5367ZM44.8914 8.38005V27.3157H46.8914V8.38005H44.8914ZM44.8914 31.0373V39.5367H46.8914V31.0373H44.8914ZM43.8914 42.5367C45.5483 42.5367 46.8914 41.1936 46.8914 39.5367H44.8914C44.8914 40.089 44.4437 40.5367 43.8914 40.5367V42.5367ZM10.1211 49.902C9.56881 49.902 9.12109 49.4542 9.12109 48.902H7.12109C7.12109 50.5588 8.46424 51.902 10.1211 51.902V49.902ZM40.4723 51.902C42.1292 51.902 43.4723 50.5588 43.4723 48.902H41.4723C41.4723 49.4542 41.0246 49.902 40.4723 49.902V51.902ZM42.4723 5.96094C43.8083 5.96094 44.8914 7.04401 44.8914 8.38005H46.8914C46.8914 5.93944 44.9129 3.96094 42.4723 3.96094V5.96094ZM14.1211 3.96094C10.2551 3.96094 7.12109 7.09494 7.12109 10.9609H9.12109C9.12109 8.19951 11.3597 5.96094 14.1211 5.96094V3.96094Z" fill="white"/>
</svg>
