<svg width="55" height="55" viewBox="0 0 55 55" fill="none" xmlns="http://www.w3.org/2000/svg">
<path d="M35.204 33.4319L34.6576 36.4854C34.4244 37.7884 33.2594 38.7153 31.9372 38.6497V38.6497C30.6581 38.5861 29.6106 37.6108 29.456 36.3395L29.3139 35.171M29.3139 35.171L28.4197 39.1702C28.0745 40.714 26.572 41.7098 25.0157 41.4261V41.4261C23.6552 41.1781 22.6502 40.0173 22.5994 38.6353L22.5505 37.3033M29.3139 35.171L29.542 33.4319M22.5505 37.3033L21.8678 40.0769C21.483 41.6401 19.8427 42.5391 18.318 42.0223L17.9289 41.8904C17.106 41.6115 16.534 40.8621 16.4819 39.9948V39.9948M22.5505 37.3033L23.1647 33.9236" stroke="white" stroke-width="2"/>
<path d="M49.1896 23.5741C49.1896 24.1264 49.6373 24.5741 50.1896 24.5741C50.7419 24.5741 51.1896 24.1264 51.1896 23.5741H49.1896ZM51.1878 27.4386C51.1551 26.8873 50.6817 26.4668 50.1304 26.4995C49.5791 26.5322 49.1586 27.0056 49.1913 27.5569L51.1878 27.4386ZM50.1974 27.6352L51.1959 27.5809L51.1959 27.5809L50.1974 27.6352ZM24.2133 12.2148H43.9685V10.2148H24.2133V12.2148ZM49.1896 17.436V23.5741H51.1896V17.436H49.1896ZM49.1913 27.5569C49.1939 27.6007 49.1964 27.6449 49.1989 27.6894L51.1959 27.5809C51.1933 27.5332 51.1906 27.4858 51.1878 27.4386L49.1913 27.5569ZM18.9922 28.8978V17.436H16.9922V28.8978H18.9922ZM44.2274 32.5961H24.523V34.5961H44.2274V32.5961ZM49.1989 27.6894C49.3447 30.372 47.0624 32.5961 44.2274 32.5961V34.5961C48.0584 34.5961 51.4119 31.5546 51.1959 27.5809L49.1989 27.6894ZM43.9685 12.2148C46.852 12.2148 49.1896 14.5524 49.1896 17.436H51.1896C51.1896 13.4479 47.9566 10.2148 43.9685 10.2148V12.2148ZM24.2133 10.2148C20.2252 10.2148 16.9922 13.4479 16.9922 17.436H18.9922C18.9922 14.5524 21.3298 12.2148 24.2133 12.2148V10.2148Z" fill="white"/>
<path d="M15.389 30.3255C15.7883 29.9632 17.2408 29.3729 17.9935 28.9969M17.9935 28.9969C20.5131 27.7385 24.1632 26.5879 27.1804 25.7749C28.7086 25.3631 30.2746 26.2294 30.7923 27.725V27.725C31.3053 29.2069 30.6264 30.8386 29.2044 31.5001C27.3891 32.3446 25.223 33.3259 23.7924 33.8982C21.5783 34.7838 18.4417 37.9573 17.1502 39.4333C15.4192 41.6071 12.341 42.4671 11.1119 42.4671V42.4671C6.99522 42.4671 3.68149 39.0858 3.76451 34.97L3.79424 33.4961C3.88564 28.9651 5.73131 24.5852 9.36057 21.871C11.5238 20.2532 14.0168 18.6373 16.2116 17.847C16.8663 17.6112 17.9935 17.847 17.9935 17.847V28.9969Z" stroke="white" stroke-width="2" stroke-linecap="round"/>
<path d="M18.2734 15.7695L50.3995 15.7695" stroke="white" stroke-width="2"/>
<path d="M18.2734 20.7734L50.1867 20.7636" stroke="white" stroke-width="2"/>
</svg>
