<svg width="97" height="97" viewBox="0 0 97 97" fill="none" xmlns="http://www.w3.org/2000/svg">
<path d="M63.3244 58.3954L62.3493 63.8449C61.9331 66.1705 59.8539 67.8247 57.4942 67.7075V67.7075C55.2115 67.5941 53.342 65.8535 53.0661 63.5846L52.8125 61.4991M52.8125 61.4991L51.2166 68.6364C50.6006 71.3916 47.919 73.1688 45.1415 72.6625V72.6625C42.7134 72.22 40.9198 70.1483 40.8292 67.6819L40.7419 65.3047M52.8125 61.4991L53.2196 58.3954M40.7419 65.3047L39.5235 70.2546C38.8368 73.0445 35.9093 74.6489 33.1881 73.7266L32.4938 73.4912C31.0252 72.9935 30.0043 71.656 29.9114 70.1082V70.1082M40.7419 65.3047L41.8381 59.273" stroke="white" stroke-width="2.24124"/>
<path d="M88.9472 40.7996C88.9472 41.4185 89.4489 41.9203 90.0678 41.9203C90.6867 41.9203 91.1884 41.4185 91.1884 40.7996H88.9472ZM91.1884 47.8021C91.1884 47.1832 90.6867 46.6815 90.0678 46.6815C89.4489 46.6815 88.9472 47.1832 88.9472 47.8021H91.1884ZM41.436 19.8628L81.2373 19.8628V17.6216L41.436 17.6216V19.8628ZM88.9472 27.5727V40.7996H91.1884V27.5727H88.9472ZM88.9472 47.8021V49.8552H91.1884V47.8021H88.9472ZM33.7261 50.3007L33.7261 27.5727H31.4848L31.4848 50.3007H33.7261ZM81.2373 57.5652L44.2609 57.5652V59.8064L81.2373 59.8064V57.5652ZM88.9472 49.8552C88.9472 54.1133 85.4954 57.5652 81.2373 57.5652V59.8064C86.7332 59.8064 91.1884 55.3511 91.1884 49.8552H88.9472ZM81.2373 19.8628C85.4954 19.8628 88.9472 23.3146 88.9472 27.5727H91.1884C91.1884 22.0768 86.7332 17.6216 81.2373 17.6216V19.8628ZM41.436 17.6216C35.9401 17.6216 31.4848 22.0768 31.4848 27.5727H33.7261C33.7261 23.3146 37.1779 19.8628 41.436 19.8628V17.6216Z" fill="white"/>
<path d="M33.1133 26.875L90.4483 26.875" stroke="white" stroke-width="2.24124"/>
<path d="M32.5703 46.3164C32.5703 46.3164 32.6131 48.4472 32.6405 49.8126" stroke="white" stroke-width="2.24124"/>
<path d="M32.168 35.8867L89.6321 35.8691" stroke="white" stroke-width="2.24124"/>
<path d="M27.2263 31.8481L26.8466 30.7937L26.8466 30.7937L27.2263 31.8481ZM30.362 32.5542L31.4826 32.5578L31.4897 30.3166L30.3691 30.313L30.362 32.5542ZM28.9014 70.373L28.0581 69.635L28.041 69.6546L28.0248 69.6749L28.9014 70.373ZM25.0052 53.2885C24.5469 53.7044 24.5125 54.4131 24.9284 54.8714C25.3443 55.3298 26.053 55.3642 26.5113 54.9483L25.0052 53.2885ZM30.4064 51.7473L29.9057 50.7447L29.9057 50.7447L30.4064 51.7473ZM46.8022 45.9969L46.5107 44.9149L46.5107 44.9149L46.8022 45.9969ZM50.4145 56.2147L49.9418 55.1986L50.4145 56.2147ZM3.94476 59.7543L3.8917 62.3847L6.13248 62.4299L6.18554 59.7995L3.94476 59.7543ZM15.6705 39.9271C19.5116 37.0545 23.8517 34.2543 27.6059 32.9024L26.8466 30.7937C22.7669 32.2628 18.2085 35.2304 14.3282 38.1323L15.6705 39.9271ZM27.6059 32.9024C28.0422 32.7453 28.7019 32.6497 29.3233 32.6001C29.6198 32.5764 29.8834 32.5649 30.0724 32.5593C30.1665 32.5565 30.2414 32.5553 30.2915 32.5547C30.3166 32.5544 30.3355 32.5543 30.3474 32.5542C30.3534 32.5542 30.3577 32.5542 30.3601 32.5542C30.3614 32.5542 30.3621 32.5542 30.3624 32.5542C30.3626 32.5542 30.3626 32.5542 30.3625 32.5542C30.3625 32.5542 30.3624 32.5542 30.3623 32.5542C30.3623 32.5542 30.3622 32.5542 30.3622 32.5542C30.3621 32.5542 30.362 32.5542 30.3655 31.4336C30.3691 30.313 30.369 30.313 30.3689 30.313C30.3688 30.313 30.3687 30.313 30.3686 30.313C30.3683 30.313 30.3681 30.313 30.3678 30.313C30.3673 30.313 30.3666 30.313 30.3658 30.313C30.3642 30.313 30.3621 30.313 30.3596 30.313C30.3545 30.313 30.3476 30.313 30.3388 30.313C30.3214 30.3131 30.2967 30.3132 30.2656 30.3136C30.2035 30.3143 30.1152 30.3158 30.0063 30.3191C29.7892 30.3255 29.4871 30.3386 29.1449 30.366C28.4887 30.4184 27.5788 30.5301 26.8466 30.7937L27.6059 32.9024ZM29.7448 71.1109C30.8707 69.8241 32.8139 67.7834 34.9564 65.8754C37.1271 63.9423 39.3907 62.2474 41.1718 61.535L40.3394 59.454C38.1691 60.3222 35.6581 62.2493 33.4658 64.2017C31.2452 66.1793 29.2371 68.2876 28.0581 69.635L29.7448 71.1109ZM41.1718 61.535C43.7568 60.501 47.6476 58.7378 50.8871 57.2307L49.9418 55.1986C46.7018 56.7059 42.8611 58.4454 40.3394 59.454L41.1718 61.535ZM18.1249 76.9079C19.4135 76.9079 21.4874 76.4753 23.6174 75.5655C25.7613 74.6498 28.0826 73.2002 29.778 71.071L28.0248 69.6749C26.6309 71.4253 24.6607 72.6828 22.7371 73.5044C20.7996 74.3319 19.0299 74.6667 18.1249 74.6667V76.9079ZM46.5107 44.9149C41.113 46.3694 34.508 48.4462 29.9057 50.7447L30.9071 52.7498C35.2981 50.5567 41.7217 48.5266 47.0938 47.0789L46.5107 44.9149ZM29.9057 50.7447C29.2397 51.0774 28.3266 51.4749 27.3666 51.9289C26.9071 52.1463 26.4504 52.3709 26.0565 52.5874C25.6841 52.7921 25.288 53.0319 25.0052 53.2885L26.5113 54.9483C26.5848 54.8816 26.78 54.7472 27.136 54.5515C27.4706 54.3676 27.8795 54.1657 28.3249 53.955C29.175 53.5529 30.2298 53.0881 30.9071 52.7498L29.9057 50.7447ZM54.3073 49.1107C53.1982 45.9068 49.8277 44.021 46.5107 44.9149L47.0938 47.0789C49.2313 46.5029 51.4505 47.7093 52.1893 49.8438L54.3073 49.1107ZM50.8871 57.2307C53.9533 55.8043 55.4081 52.2908 54.3073 49.1107L52.1893 49.8438C52.9196 51.9534 51.951 54.2639 49.9418 55.1986L50.8871 57.2307ZM3.8917 62.3847C3.73086 70.3578 10.1502 76.9079 18.1249 76.9079V74.6667C11.4056 74.6667 5.99697 69.1478 6.13248 62.4299L3.8917 62.3847ZM6.18554 59.7995C6.34312 51.9878 9.52184 44.5254 15.6705 39.9271L14.3282 38.1323C7.52258 43.2219 4.11342 51.3931 3.94476 59.7543L6.18554 59.7995Z" fill="white"/>
</svg>
