<svg width="21" height="20" viewBox="0 0 21 20" fill="none" xmlns="http://www.w3.org/2000/svg">
<path d="M17.4297 14.5273L17.4297 18.9448" stroke="white" stroke-width="2" stroke-linecap="round"/>
<path d="M19.6367 16.7344L15.2193 16.7344" stroke="white" stroke-width="2" stroke-linecap="round"/>
<path d="M10.9261 11.3758L10.7479 12.3598L10.9261 11.3758ZM2.64628 15.5005L3.55027 15.928L2.64628 15.5005ZM14.1755 14.0955C14.5739 14.478 15.2069 14.4651 15.5894 14.0667C15.9719 13.6683 15.959 13.0352 15.5606 12.6528L14.1755 14.0955ZM0.639411 18.7406C0.576072 19.2893 0.969487 19.7854 1.51813 19.8487C2.06677 19.9121 2.56288 19.5186 2.62621 18.97L0.639411 18.7406ZM11.1042 10.3918C9.23121 10.0526 7.2923 10.3256 5.59641 11.1705L6.48821 12.9606C7.79505 12.3096 9.29582 12.0969 10.7479 12.3598L11.1042 10.3918ZM5.59641 11.1705C3.89995 12.0156 2.53965 13.387 1.74229 15.0729L3.55027 15.928C4.15038 14.6592 5.18194 13.6114 6.48821 12.9606L5.59641 11.1705ZM15.5606 12.6528C14.3447 11.4854 12.7919 10.6974 11.1042 10.3918L10.7479 12.3598C12.0554 12.5966 13.2484 13.2055 14.1755 14.0955L15.5606 12.6528ZM1.74229 15.0729C1.1857 16.2498 0.796414 17.3807 0.639411 18.7406L2.62621 18.97C2.75151 17.8847 3.05847 16.9679 3.55027 15.928L1.74229 15.0729Z" fill="white"/>
<circle cx="10.1457" cy="6.55589" r="4.6887" stroke="white" stroke-width="2"/>
</svg>
