<svg width="19" height="19" viewBox="0 0 19 19" fill="none" xmlns="http://www.w3.org/2000/svg">
<path d="M11.0162 15.4879C10.8813 15.4884 10.748 15.4586 10.6262 15.4008C10.5043 15.343 10.3969 15.2586 10.312 15.1539L5.95147 9.73712C5.81868 9.57558 5.74609 9.37295 5.74609 9.16384C5.74609 8.95473 5.81868 8.75211 5.95147 8.59057L10.4654 3.17379C10.6187 2.98943 10.8389 2.87349 11.0776 2.85148C11.3163 2.82947 11.554 2.90319 11.7384 3.05643C11.9228 3.20967 12.0387 3.42987 12.0607 3.66859C12.0827 3.90732 12.009 4.14501 11.8558 4.32937L7.82026 9.16836L11.7203 14.0073C11.8307 14.1399 11.9009 14.3012 11.9224 14.4723C11.944 14.6435 11.9161 14.8172 11.842 14.973C11.7679 15.1287 11.6508 15.26 11.5044 15.3512C11.3581 15.4425 11.1886 15.4899 11.0162 15.4879Z" fill="white"/>
</svg>
