<svg width="19" height="19" viewBox="0 0 19 19" fill="none" xmlns="http://www.w3.org/2000/svg">
<path d="M18.7868 6.11735C18.7875 6.30939 18.7451 6.49913 18.6628 6.67264C18.5805 6.84615 18.4604 6.99901 18.3112 7.11999L10.5986 13.3287C10.3686 13.5177 10.0801 13.6211 9.78233 13.6211C9.48459 13.6211 9.19608 13.5177 8.96607 13.3287L1.25343 6.90147C0.990922 6.68328 0.82584 6.36975 0.794502 6.02984C0.763163 5.68994 0.868134 5.35151 1.08632 5.089C1.30451 4.82649 1.61805 4.66141 1.95795 4.63007C2.29785 4.59873 2.63629 4.7037 2.89879 4.92189L9.78876 10.6678L16.6787 5.11471C16.8674 4.95752 17.0972 4.85767 17.3408 4.82697C17.5845 4.79628 17.8318 4.83602 18.0536 4.9415C18.2754 5.04698 18.4623 5.21377 18.5922 5.42216C18.7222 5.63054 18.7897 5.87179 18.7868 6.11735Z" fill="white"/>
</svg>
