<svg width="55" height="55" viewBox="0 0 55 55" fill="none" xmlns="http://www.w3.org/2000/svg">
<path d="M4.47149 44.8603L3.60547 44.3603H3.60547L4.47149 44.8603ZM26.7181 6.32812L25.8521 5.82812L25.852 5.82812L26.7181 6.32812ZM28.4501 6.32812L29.3162 5.82812L29.3162 5.82812L28.4501 6.32812ZM39.5734 25.5942L40.4394 25.0942L39.5734 25.5942ZM45.5681 35.9773L44.702 36.4773L45.5681 35.9773ZM49.4314 40.6688C49.1553 40.1905 48.5437 40.0266 48.0654 40.3028C47.5871 40.5789 47.4232 41.1905 47.6994 41.6688L49.4314 40.6688ZM50.6967 44.8603L49.8307 45.3603V45.3603L50.6967 44.8603ZM46.2007 39.073C46.4769 39.5513 47.0884 39.7152 47.5667 39.4391C48.045 39.1629 48.2089 38.5513 47.9328 38.073L46.2007 39.073ZM49.8307 45.3603H5.33752V47.3603H49.8307V45.3603ZM5.33752 45.3603L27.5841 6.82812L25.852 5.82812L3.60547 44.3603L5.33752 45.3603ZM27.5841 6.82812L38.7074 26.0942L40.4394 25.0942L29.3162 5.82812L27.5841 6.82812ZM38.7074 26.0942L44.702 36.4773L46.4341 35.4773L40.4394 25.0942L38.7074 26.0942ZM47.6994 41.6688L49.8307 45.3603L51.5627 44.3603L49.4314 40.6688L47.6994 41.6688ZM44.702 36.4773L46.2007 39.073L47.9328 38.073L46.4341 35.4773L44.702 36.4773ZM5.33752 45.3603H5.33752L3.60547 44.3603C2.83567 45.6937 3.79792 47.3603 5.33752 47.3603V45.3603ZM49.8307 47.3603C51.3703 47.3603 52.3325 45.6937 51.5627 44.3603L49.8307 45.3603V45.3603V47.3603ZM27.5841 6.82813L27.5841 6.82813L29.3162 5.82812C28.5464 4.49479 26.6219 4.49479 25.8521 5.82812L27.5841 6.82813Z" fill="white"/>
<path d="M27.825 33.0703C27.4309 33.0703 27.1206 33.0619 26.8942 33.0452C26.6678 33.0284 26.4917 32.9907 26.3659 32.932C26.2485 32.8733 26.1689 32.7852 26.127 32.6678C26.0934 32.5504 26.0724 32.3953 26.0641 32.2024L25.5106 19.9891C25.5022 19.771 25.5232 19.5949 25.5735 19.4608C25.6322 19.3182 25.7412 19.2092 25.9005 19.1337C26.0683 19.0583 26.303 19.008 26.6049 18.9828C26.9152 18.9493 27.3219 18.9325 27.825 18.9325C28.3281 18.9325 28.7306 18.9493 29.0325 18.9828C29.3428 19.008 29.5776 19.0583 29.7369 19.1337C29.9046 19.2092 30.0136 19.3182 30.0639 19.4608C30.1226 19.5949 30.1478 19.771 30.1394 19.9891L29.5859 32.2024C29.5776 32.3953 29.5524 32.5504 29.5105 32.6678C29.4769 32.7852 29.3973 32.8733 29.2715 32.932C29.1541 32.9907 28.978 33.0284 28.7432 33.0452C28.5168 33.0619 28.2107 33.0703 27.825 33.0703ZM25.7873 37.4475C25.7706 37.2714 25.7832 37.1247 25.8251 37.0073C25.867 36.8815 25.9592 36.7851 26.1018 36.718C26.2443 36.6509 26.454 36.6048 26.7307 36.5796C27.0074 36.5461 27.3722 36.5293 27.825 36.5293C28.2778 36.5293 28.6384 36.5461 28.9067 36.5796C29.1834 36.6048 29.3931 36.6509 29.5356 36.718C29.6866 36.7851 29.7788 36.8815 29.8123 37.0073C29.8543 37.1247 29.871 37.2714 29.8627 37.4475L29.7243 39.9002C29.7159 40.0596 29.6866 40.1853 29.6363 40.2776C29.5943 40.3698 29.5063 40.4411 29.3721 40.4914C29.2379 40.5417 29.0493 40.5753 28.8061 40.592C28.5629 40.6088 28.2359 40.6172 27.825 40.6172C27.4141 40.6172 27.0871 40.6088 26.8439 40.592C26.6007 40.5753 26.4121 40.5417 26.2779 40.4914C26.1521 40.4411 26.0641 40.3698 26.0138 40.2776C25.9718 40.1853 25.9467 40.0596 25.9383 39.9002L25.7873 37.4475Z" fill="white"/>
</svg>
