<svg viewBox="-50 -50 550 550" xmlns="http://www.w3.org/2000/svg"><g fill="#f4f4f4"><path d="M80.824 146.291c20.786 0 37.644-16.93 37.644-37.644S101.61 
70.93 80.824 70.93 43.18 87.861 43.18 108.575s16.93 37.716 37.644 37.716zm0-57.86c11.143 0 20.144 9.073 20.144 20.144s-9.072 20.144-20.144 
20.144-20.143-9.072-20.143-20.144 9.071-20.143 20.143-20.143zM80.824 262.58c20.786 0 37.644-16.928 37.644-37.643s-16.858-37.645-37.644-37.645S43.18 
204.15 43.18 224.937s16.93 37.644 37.644 37.644zm0-57.787c11.143 0 20.144 9.072 20.144 20.144s-9.072 20.143-20.144 20.143-20.143-9-20.143-20.143 
9.071-20.144 20.143-20.144zM80.824 378.942c20.786 0 37.644-16.93 37.644-37.644 0-20.787-16.929-37.644-37.644-37.644S43.18 320.583 43.18 341.298s16.93 
37.644 37.644 37.644zm0-57.86c11.143 0 20.144 9.072 20.144 20.144 0 11.143-9.072 20.144-20.144 20.144s-20.143-9.072-20.143-20.144 9.071-20.143 
20.143-20.143zM168.827 117.361h215.365c4.857 0 8.786-3.928 8.786-8.786s-3.93-8.786-8.786-8.786H168.827c-4.857 0-8.786 3.93-8.786 8.786s3.929 
8.786 8.786 8.786zM168.827 233.723h215.365c4.857 0 8.786-3.93 8.786-8.786s-3.93-8.786-8.786-8.786H168.827c-4.857 0-8.786 3.928-8.786 8.786s3.929 
8.786 8.786 8.786zM168.827 350.012h215.365c4.857 0 8.786-3.928 8.786-8.786s-3.93-8.786-8.786-8.786H168.827c-4.857 0-8.786 3.929-8.786 8.786s3.929 
8.786 8.786 8.786z"/></g></svg>