<svg width="13" height="13" viewBox="0 0 13 13" fill="none" xmlns="http://www.w3.org/2000/svg">
<path d="M7.80642 6.92597L12.1064 2.63597C12.2947 2.44766 12.4005 2.19227 12.4005 1.92597C12.4005 1.65967 12.2947 1.40427 12.1064 1.21597C11.9181 1.02766 11.6627 0.921875 11.3964 0.921875C11.1301 0.921875 10.8747 1.02766 10.6864 1.21597L6.39642 5.51597L2.10642 1.21597C1.91812 1.02766 1.66273 0.921875 1.39642 0.921875C1.13012 0.921875 0.874727 1.02766 0.686423 1.21597C0.49812 1.40427 0.392332 1.65967 0.392332 1.92597C0.392332 2.19227 0.49812 2.44766 0.686423 2.63597L4.98642 6.92597L0.686423 11.216C0.592695 11.3089 0.518301 11.4195 0.467532 11.5414C0.416763 11.6632 0.390625 11.794 0.390625 11.926C0.390625 12.058 0.416763 12.1887 0.467532 12.3105C0.518301 12.4324 0.592695 12.543 0.686423 12.636C0.779386 12.7297 0.889987 12.8041 1.01185 12.8549C1.13371 12.9056 1.26441 12.9318 1.39642 12.9318C1.52844 12.9318 1.65914 12.9056 1.781 12.8549C1.90286 12.8041 2.01346 12.7297 2.10642 12.636L6.39642 8.33597L10.6864 12.636C10.7794 12.7297 10.89 12.8041 11.0118 12.8549C11.1337 12.9056 11.2644 12.9318 11.3964 12.9318C11.5284 12.9318 11.6591 12.9056 11.781 12.8549C11.9029 12.8041 12.0135 12.7297 12.1064 12.636C12.2002 12.543 12.2745 12.4324 12.3253 12.3105C12.3761 12.1887 12.4022 12.058 12.4022 11.926C12.4022 11.794 12.3761 11.6632 12.3253 11.5414C12.2745 11.4195 12.2002 11.3089 12.1064 11.216L7.80642 6.92597Z" fill="white"/>
</svg>
