<svg width="17" height="17" viewBox="0 0 17 17" fill="none" xmlns="http://www.w3.org/2000/svg">
<path d="M6.85938 6.84375H7.88444V13.1112H6.85938V6.84375Z" fill="#EB5757"/>
<path d="M9.92969 6.84375H10.9548V13.1112H9.92969V6.84375Z" fill="#EB5757"/>
<path d="M2.75781 3.71094V4.7555H3.78288V15.2012C3.78288 15.4782 3.89088 15.7439 4.08312 15.9398C4.27536 16.1357 4.53609 16.2457 4.80795 16.2457H13.0085C13.2804 16.2457 13.5411 16.1357 13.7333 15.9398C13.9256 15.7439 14.0336 15.4782 14.0336 15.2012V4.7555H15.0586V3.71094H2.75781ZM4.80795 15.2012V4.7555H13.0085V15.2012H4.80795Z" fill="#EB5757"/>
<path d="M6.85938 1.62109H10.9596V2.66565H6.85938V1.62109Z" fill="#EB5757"/>
</svg>
