<svg width="17" height="17" viewBox="0 0 17 17" fill="none" xmlns="http://www.w3.org/2000/svg">
<path d="M6.6875 6.83984H7.71256V13.1072H6.6875V6.83984Z" fill="#828282"/>
<path d="M9.75781 6.83984H10.7829V13.1072H9.75781V6.83984Z" fill="#828282"/>
<path d="M2.58594 3.70703V4.7516H3.61101V15.1972C3.61101 15.4743 3.71901 15.74 3.91124 15.9359C4.10348 16.1318 4.36421 16.2418 4.63608 16.2418H12.8366C13.1085 16.2418 13.3692 16.1318 13.5615 15.9359C13.7537 15.74 13.8617 15.4743 13.8617 15.1972V4.7516H14.8868V3.70703H2.58594ZM4.63608 15.1972V4.7516H12.8366V15.1972H4.63608Z" fill="#828282"/>
<path d="M6.6875 1.61719H10.7878V2.66175H6.6875V1.61719Z" fill="#828282"/>
</svg>
