<svg width="55" height="55" viewBox="0 0 55 55" fill="none" xmlns="http://www.w3.org/2000/svg">
<path d="M3.0866 25.4425C3.0866 25.9948 3.53431 26.4425 4.0866 26.4425C4.63888 26.4425 5.0866 25.9948 5.0866 25.4425H3.0866ZM4.07544 30.5695L3.07784 30.5004L3.07784 30.5004L4.07544 30.5695ZM5.08376 30.4906C5.12533 29.9399 4.71258 29.4598 4.16186 29.4182C3.61114 29.3766 3.131 29.7894 3.08943 30.3401L5.08376 30.4906ZM12.002 10.8672H36.786V8.86719H12.002V10.8672ZM5.0866 25.4425V17.7826H3.0866V25.4425H5.0866ZM5.07305 30.6387C5.0765 30.5888 5.08007 30.5395 5.08376 30.4906L3.08943 30.3401C3.08543 30.3931 3.08157 30.4466 3.07784 30.5004L5.07305 30.6387ZM43.7014 17.7826V27.0193H45.7014V17.7826H43.7014ZM31.3751 37.0996H11.6191V39.0996H31.3751V37.0996ZM3.07784 30.5004C2.73956 35.3801 6.91764 39.0996 11.6191 39.0996V37.0996C7.88232 37.0996 4.82777 34.1769 5.07305 30.6387L3.07784 30.5004ZM36.786 10.8672C40.6052 10.8672 43.7014 13.9633 43.7014 17.7826H45.7014C45.7014 12.8587 41.7098 8.86719 36.786 8.86719V10.8672ZM12.002 8.86719C7.07815 8.86719 3.0866 12.8587 3.0866 17.7826H5.0866C5.0866 13.9633 8.18272 10.8672 12.002 10.8672V8.86719Z" fill="white"/>
<path d="M3.6875 15.3398L44.7015 15.3387" stroke="white" stroke-width="2"/>
<path d="M3.75391 22.4883H44.7013" stroke="white" stroke-width="2"/>
<circle cx="40.2358" cy="35.4155" r="9.09125" stroke="white" stroke-width="2"/>
<path d="M44.7505 32.3126C45.141 31.9221 45.141 31.2889 44.7505 30.8984C44.36 30.5078 43.7268 30.5078 43.3363 30.8984L44.7505 32.3126ZM35.7109 38.5238C35.3203 38.9143 35.3203 39.5475 35.7109 39.938C36.1014 40.3285 36.7346 40.3285 37.1251 39.938L35.7109 38.5238ZM43.3363 30.8984L35.7109 38.5238L37.1251 39.938L44.7505 32.3126L43.3363 30.8984Z" fill="white"/>
<path d="M35.7182 32.3126C35.3277 31.9221 35.3277 31.2889 35.7182 30.8984C36.1088 30.5078 36.7419 30.5078 37.1324 30.8984L35.7182 32.3126ZM44.7579 38.5238C45.1484 38.9143 45.1484 39.5475 44.7579 39.938C44.3674 40.3285 43.7342 40.3285 43.3437 39.938L44.7579 38.5238ZM37.1324 30.8984L44.7579 38.5238L43.3437 39.938L35.7182 32.3126L37.1324 30.8984Z" fill="white"/>
</svg>
