<svg width="98" height="40" viewBox="0 0 98 40" fill="none" xmlns="http://www.w3.org/2000/svg">
<path d="M13.2548 24.4961L11.6586 28.8906H11.0062L12.8442 24.0688H13.2647L13.2548 24.4961ZM14.5927 28.8906L12.9932 24.4961L12.9833 24.0688H13.4038L15.2484 28.8906H14.5927ZM14.5099 27.1056V27.6289H11.801V27.1056H14.5099ZM23.4298 24.0688V28.8906H22.7907V24.0688H23.4298ZM31.4423 24.0688H33.0385C33.4006 24.0688 33.7064 24.124 33.9559 24.2344C34.2076 24.3448 34.3985 24.5082 34.5288 24.7246C34.6613 24.9387 34.7275 25.2025 34.7275 25.516C34.7275 25.7368 34.6822 25.9388 34.5917 26.1221C34.5034 26.3031 34.3754 26.4577 34.2076 26.5857C34.042 26.7116 33.8433 26.8054 33.6115 26.8672L33.4326 26.9367H31.9324L31.9258 26.4168H33.0584C33.288 26.4168 33.479 26.3771 33.6313 26.2976C33.7837 26.2159 33.8985 26.1066 33.9757 25.9697C34.053 25.8329 34.0917 25.6816 34.0917 25.516C34.0917 25.3306 34.0552 25.1683 33.9824 25.0292C33.9095 24.8901 33.7947 24.7831 33.638 24.708C33.4834 24.6307 33.2836 24.5921 33.0385 24.5921H32.0815V28.8906H31.4423V24.0688ZM34.2605 28.8906L33.0882 26.7049L33.7539 26.7016L34.9427 28.8509V28.8906H34.2605ZM43.654 26.589V27.0924H42.0379V26.589H43.654ZM54.1966 28.3873V28.8906H51.0406V28.4502L52.6203 26.6917C52.8146 26.4753 52.9647 26.2921 53.0707 26.1419C53.1788 25.9896 53.2539 25.8538 53.2958 25.7346C53.34 25.6132 53.3621 25.4895 53.3621 25.3637C53.3621 25.2047 53.329 25.0612 53.2627 24.9332C53.1987 24.8029 53.1038 24.6992 52.9779 24.6219C52.8521 24.5446 52.6997 24.506 52.5209 24.506C52.3068 24.506 52.1279 24.5479 51.9844 24.6318C51.8431 24.7135 51.7372 24.8283 51.6665 24.9762C51.5959 25.1242 51.5605 25.2942 51.5605 25.4862H50.9479C50.9479 25.2147 51.0075 24.9663 51.1267 24.7411C51.2459 24.5159 51.4225 24.3371 51.6566 24.2046C51.8906 24.07 52.1787 24.0026 52.5209 24.0026C52.8256 24.0026 53.0861 24.0567 53.3025 24.1649C53.5188 24.2709 53.6844 24.421 53.7992 24.6153C53.9162 24.8073 53.9747 25.0325 53.9747 25.2908C53.9747 25.4321 53.9505 25.5757 53.9019 25.7214C53.8555 25.8649 53.7904 26.0084 53.7065 26.1519C53.6248 26.2954 53.5288 26.4367 53.4184 26.5758C53.3102 26.7149 53.1943 26.8517 53.0707 26.9864L51.7791 28.3873H54.1966ZM63.0437 26.589V27.0924H61.4276V26.589H63.0437ZM74.2983 26.3274V26.6321C74.2983 26.9941 74.253 27.3187 74.1625 27.6057C74.072 27.8927 73.9417 28.1367 73.7717 28.3376C73.6017 28.5385 73.3975 28.6919 73.1591 28.7979C72.9228 28.9039 72.6579 28.9569 72.3643 28.9569C72.0795 28.9569 71.8178 28.9039 71.5794 28.7979C71.3432 28.6919 71.1378 28.5385 70.9634 28.3376C70.7912 28.1367 70.6576 27.8927 70.5627 27.6057C70.4678 27.3187 70.4203 26.9941 70.4203 26.6321V26.3274C70.4203 25.9653 70.4667 25.6419 70.5594 25.3571C70.6543 25.0701 70.7879 24.8261 70.9601 24.6252C71.1323 24.4221 71.3365 24.2675 71.5728 24.1616C71.8112 24.0556 72.0728 24.0026 72.3576 24.0026C72.6513 24.0026 72.9162 24.0556 73.1524 24.1616C73.3909 24.2675 73.5951 24.4221 73.7651 24.6252C73.9373 24.8261 74.0687 25.0701 74.1592 25.3571C74.2519 25.6419 74.2983 25.9653 74.2983 26.3274ZM73.6657 26.6321V26.3208C73.6657 26.0338 73.6359 25.7799 73.5763 25.5591C73.5189 25.3383 73.4339 25.1529 73.3213 25.0027C73.2087 24.8526 73.0707 24.7389 72.9074 24.6616C72.7462 24.5844 72.563 24.5457 72.3576 24.5457C72.1589 24.5457 71.979 24.5844 71.8178 24.6616C71.6589 24.7389 71.522 24.8526 71.4072 25.0027C71.2946 25.1529 71.2074 25.3383 71.1456 25.5591C71.0837 25.7799 71.0528 26.0338 71.0528 26.3208V26.6321C71.0528 26.9213 71.0837 27.1774 71.1456 27.4004C71.2074 27.6212 71.2957 27.8077 71.4105 27.96C71.5275 28.1102 71.6655 28.2239 71.8245 28.3011C71.9856 28.3784 72.1656 28.4171 72.3643 28.4171C72.5718 28.4171 72.7561 28.3784 72.9173 28.3011C73.0785 28.2239 73.2143 28.1102 73.3246 27.96C73.4372 27.8077 73.5222 27.6212 73.5796 27.4004C73.637 27.1774 73.6657 26.9213 73.6657 26.6321ZM85.8145 24.0688V28.8906H85.172L82.7446 25.1716V28.8906H82.1054V24.0688H82.7446L85.182 27.7978V24.0688H85.8145ZM96.8605 28.3707V28.8906H94.3072V28.3707H96.8605ZM94.4363 24.0688V28.8906H93.7972V24.0688H94.4363ZM96.5227 26.1419V26.6619H94.3072V26.1419H96.5227ZM96.8274 24.0688V24.5921H94.3072V24.0688H96.8274Z" fill="white"/>
<path d="M12.5561 11.3257H14.5293L16.7716 18.3147L19.0139 11.3257H20.9871L17.5719 21.3711H15.9713L12.5561 11.3257ZM11.3557 11.3257H13.3979L13.7773 19.0253V21.3711H11.3557V11.3257ZM20.1454 11.3257H22.1945V21.3711H19.7659V19.0253L20.1454 11.3257ZM31.2957 19.5083V21.3711H25.9419V19.5083H31.2957ZM26.8043 11.3257V21.3711H24.3826V11.3257H26.8043ZM30.6058 15.3135V17.1142H25.9419V15.3135H30.6058ZM31.3164 11.3257V13.1954H25.9419V11.3257H31.3164ZM34.1255 11.3257H36.0987L38.341 18.3147L40.5833 11.3257H42.5565L39.1413 21.3711H37.5407L34.1255 11.3257ZM32.9251 11.3257H34.9673L35.3467 19.0253V21.3711H32.9251V11.3257ZM41.7148 11.3257H43.7639V21.3711H41.3353V19.0253L41.7148 11.3257ZM54.452 16.1483V16.5554C54.452 17.3235 54.3439 18.0134 54.1277 18.6252C53.9161 19.2323 53.6149 19.7521 53.2239 20.1844C52.8329 20.6122 52.3707 20.941 51.8371 21.171C51.3036 21.3964 50.7148 21.5091 50.0709 21.5091C49.4224 21.5091 48.829 21.3964 48.2909 21.171C47.7574 20.941 47.2928 20.6122 46.8972 20.1844C46.5063 19.7521 46.2027 19.2323 45.9865 18.6252C45.775 18.0134 45.6692 17.3235 45.6692 16.5554V16.1483C45.6692 15.3802 45.775 14.6903 45.9865 14.0785C46.2027 13.4668 46.504 12.9471 46.8903 12.5193C47.2813 12.0869 47.7436 11.7581 48.2771 11.5327C48.8152 11.3027 49.4086 11.1877 50.0571 11.1877C50.701 11.1877 51.2898 11.3027 51.8233 11.5327C52.3615 11.7581 52.826 12.0869 53.217 12.5193C53.608 12.9471 53.9115 13.4668 54.1277 14.0785C54.3439 14.6903 54.452 15.3802 54.452 16.1483ZM51.9958 16.5554V16.1345C51.9958 15.6378 51.9521 15.2008 51.8647 14.8237C51.7819 14.4419 51.6578 14.1222 51.4922 13.8647C51.3266 13.6071 51.1219 13.4139 50.8781 13.2851C50.639 13.1517 50.3653 13.085 50.0571 13.085C49.7351 13.085 49.4546 13.1517 49.2154 13.2851C48.9762 13.4139 48.7761 13.6071 48.6152 13.8647C48.4542 14.1222 48.3323 14.4419 48.2495 14.8237C48.1713 15.2008 48.1322 15.6378 48.1322 16.1345V16.5554C48.1322 17.0475 48.1713 17.4845 48.2495 17.8663C48.3323 18.2434 48.4542 18.5631 48.6152 18.8253C48.7807 19.0874 48.9831 19.2852 49.2223 19.4186C49.4661 19.552 49.7489 19.6187 50.0709 19.6187C50.3791 19.6187 50.6528 19.552 50.8919 19.4186C51.1311 19.2852 51.3312 19.0874 51.4922 18.8253C51.6578 18.5631 51.7819 18.2434 51.8647 17.8663C51.9521 17.4845 51.9958 17.0475 51.9958 16.5554ZM67.1351 19.5083V21.3711H62.0572V19.5083H67.1351ZM62.9196 11.3257V21.3711H60.498V11.3257H62.9196ZM76.8504 16.1483V16.5554C76.8504 17.3235 76.7423 18.0134 76.5261 18.6252C76.3145 19.2323 76.0133 19.7521 75.6223 20.1844C75.2313 20.6122 74.7691 20.941 74.2356 21.171C73.702 21.3964 73.1133 21.5091 72.4693 21.5091C71.8208 21.5091 71.2275 21.3964 70.6893 21.171C70.1558 20.941 69.6912 20.6122 69.2957 20.1844C68.9047 19.7521 68.6011 19.2323 68.385 18.6252C68.1734 18.0134 68.0676 17.3235 68.0676 16.5554V16.1483C68.0676 15.3802 68.1734 14.6903 68.385 14.0785C68.6011 13.4668 68.9024 12.9471 69.2888 12.5193C69.6797 12.0869 70.142 11.7581 70.6755 11.5327C71.2137 11.3027 71.807 11.1877 72.4555 11.1877C73.0995 11.1877 73.6882 11.3027 74.2218 11.5327C74.7599 11.7581 75.2245 12.0869 75.6154 12.5193C76.0064 12.9471 76.3099 13.4668 76.5261 14.0785C76.7423 14.6903 76.8504 15.3802 76.8504 16.1483ZM74.3942 16.5554V16.1345C74.3942 15.6378 74.3505 15.2008 74.2631 14.8237C74.1804 14.4419 74.0562 14.1222 73.8906 13.8647C73.725 13.6071 73.5203 13.4139 73.2766 13.2851C73.0374 13.1517 72.7637 13.085 72.4555 13.085C72.1336 13.085 71.853 13.1517 71.6138 13.2851C71.3746 13.4139 71.1746 13.6071 71.0136 13.8647C70.8526 14.1222 70.7307 14.4419 70.6479 14.8237C70.5697 15.2008 70.5306 15.6378 70.5306 16.1345V16.5554C70.5306 17.0475 70.5697 17.4845 70.6479 17.8663C70.7307 18.2434 70.8526 18.5631 71.0136 18.8253C71.1792 19.0874 71.3815 19.2852 71.6207 19.4186C71.8645 19.552 72.1474 19.6187 72.4693 19.6187C72.7775 19.6187 73.0512 19.552 73.2903 19.4186C73.5295 19.2852 73.7296 19.0874 73.8906 18.8253C74.0562 18.5631 74.1804 18.2434 74.2631 17.8663C74.3505 17.4845 74.3942 17.0475 74.3942 16.5554ZM84.4545 17.9697H86.8693C86.8371 18.6689 86.6485 19.2852 86.3035 19.8188C85.9586 20.3523 85.4802 20.7686 84.8685 21.0675C84.2613 21.3619 83.5438 21.5091 82.7159 21.5091C82.0444 21.5091 81.4441 21.3964 80.9152 21.171C80.3908 20.9456 79.9447 20.6214 79.5767 20.1982C79.2133 19.7751 78.9351 19.2622 78.7419 18.6597C78.5533 18.0571 78.459 17.3787 78.459 16.6244V16.0793C78.459 15.325 78.5579 14.6466 78.7557 14.044C78.9581 13.4369 79.2432 12.9218 79.6112 12.4986C79.9838 12.0708 80.4299 11.7443 80.9497 11.5189C81.4694 11.2935 82.0467 11.1808 82.6814 11.1808C83.5553 11.1808 84.2935 11.3372 84.8961 11.65C85.4986 11.9628 85.9655 12.3928 86.2966 12.9402C86.6278 13.4829 86.8233 14.1015 86.8831 14.7961H84.4683C84.4591 14.4189 84.3947 14.1038 84.2751 13.8509C84.1555 13.5933 83.967 13.4001 83.7094 13.2713C83.4518 13.1425 83.1091 13.0781 82.6814 13.0781C82.3824 13.0781 82.1225 13.1333 81.9018 13.2437C81.681 13.3541 81.497 13.5289 81.3498 13.7681C81.2026 14.0072 81.0923 14.3177 81.0187 14.6995C80.9497 15.0766 80.9152 15.532 80.9152 16.0655V16.6244C80.9152 17.1579 80.9474 17.6133 81.0118 17.9904C81.0762 18.3676 81.1796 18.6758 81.3222 18.9149C81.4648 19.1541 81.6488 19.3312 81.8742 19.4462C82.1042 19.5566 82.3847 19.6118 82.7159 19.6118C83.0839 19.6118 83.3943 19.5543 83.6473 19.4393C83.9003 19.3197 84.0957 19.1403 84.2337 18.9011C84.3717 18.6574 84.4453 18.3469 84.4545 17.9697ZM91.072 11.3257V21.3711H88.6504V11.3257H91.072ZM97.0675 11.3257L93.1763 16.4174L90.8996 18.908L90.458 16.6865L91.9137 14.4787L94.0801 11.3257H97.0675ZM94.2043 21.3711L91.6102 16.8452L93.4937 15.4584L97.0675 21.3711H94.2043Z" fill="white"/>
<path fill-rule="evenodd" clip-rule="evenodd" d="M16.0979 0.596764C15.7996 0.488846 15.473 0.488571 15.1745 0.595987L1.23354 5.61321C0.72547 5.79606 0.386719 6.27799 0.386719 6.81796V23.6966C0.386719 27.5886 2.51716 30.5712 5.42943 32.9893C8.22954 35.3142 11.8024 37.1584 15.0178 38.818L15.3806 39.0054C15.4719 39.0526 15.5655 39.0631 15.6197 39.0665C15.6829 39.0705 15.7461 39.0673 15.802 39.0613C15.9022 39.0506 16.035 39.0244 16.1368 38.9744C16.692 38.7011 17.2804 38.4225 17.8876 38.135L17.888 38.1348C19.7385 37.2586 21.7641 36.2996 23.5597 35.1564C25.2085 34.1067 26.7046 32.8778 27.7199 31.3728H26.7888C25.8713 32.5687 24.6009 33.5977 23.1539 34.5189C21.402 35.6343 19.4397 36.5635 17.5987 37.4353C16.9849 37.726 16.3846 38.0103 15.81 38.2929C15.8063 38.2941 15.8001 38.2959 15.7914 38.298C15.7716 38.3028 15.7467 38.3072 15.7214 38.31C15.7073 38.3115 15.6953 38.3122 15.6858 38.3125L15.3928 38.1612C12.1551 36.4898 8.64745 34.6789 5.91216 32.4079C3.08869 30.0636 1.1424 27.2736 1.1424 23.6966V6.81796C1.1424 6.59668 1.28122 6.39918 1.48944 6.32424L15.4304 1.30702C15.5631 1.25928 15.7082 1.2594 15.8408 1.30737L29.6526 6.30435C29.892 6.39096 30.0515 6.61827 30.0515 6.87285V9.85581H30.8072V6.87285C30.8072 6.30005 30.4483 5.78862 29.9097 5.59375L16.0979 0.596764Z" fill="white"/>
</svg>
