<svg width="252" height="171" viewBox="0 0 252 171" fill="none" xmlns="http://www.w3.org/2000/svg">
<path d="M226.412 93.2448L226.412 94.2448L227.412 94.2448L244.145 94.2448C247.458 94.2448 250.145 96.9311 250.145 100.245L250.145 136.722C250.145 140.036 247.458 142.722 244.145 142.722L227.412 142.722L226.412 142.722L226.412 143.722L226.412 163.68C226.412 166.993 223.726 169.68 220.412 169.68L31.4793 169.68C28.1656 169.68 25.4793 166.993 25.4793 163.68L25.4793 132.774C25.4793 131.669 24.5839 130.774 23.4793 130.774L12.6396 130.774C6.56649 130.774 1.64248 125.852 1.63956 119.779L1.63859 117.756C1.63566 111.679 6.56139 106.751 12.6386 106.751L21.4794 106.751C23.6885 106.751 25.4793 104.96 25.4793 102.751L25.4793 75.9197C25.4793 72.6059 28.1656 69.9197 31.4793 69.9197L220.412 69.9196C223.726 69.9196 226.412 72.6059 226.412 75.9196L226.412 93.2448Z" stroke="white" stroke-width="2"/>
<circle cx="67.7262" cy="136.844" r="1.79653" transform="rotate(-90 67.7262 136.844)" stroke="white" stroke-width="2"/>
<circle cx="77.9567" cy="136.844" r="1.79653" transform="rotate(-90 77.9567 136.844)" stroke="white" stroke-width="2"/>
<circle cx="147.273" cy="156.395" r="4" transform="rotate(-90 147.273 156.395)" stroke="white" stroke-width="2"/>
<path d="M126.273 150.645C129.449 150.645 132.023 153.219 132.023 156.395C132.023 159.57 129.449 162.145 126.273 162.145C123.098 162.145 120.523 159.57 120.523 156.395C120.523 153.219 123.098 150.645 126.273 150.645Z" stroke="#00C6BC"/>
<path d="M129.273 151.696L145.859 30.1211" stroke="#00C6BC" stroke-width="2"/>
<path d="M129.273 151.691L203.995 50.3203" stroke="#00C6BC" stroke-width="2"/>
<path d="M126.273 154.395C127.378 154.395 128.273 155.29 128.273 156.395C128.273 157.499 127.378 158.395 126.273 158.395C125.169 158.395 124.273 157.499 124.273 156.395C124.273 155.29 125.169 154.395 126.273 154.395Z" stroke="white" stroke-width="2"/>
<circle cx="68.0778" cy="124.637" r="1.79653" transform="rotate(-90 68.0778 124.637)" stroke="white" stroke-width="2"/>
<circle cx="78.3083" cy="124.637" r="1.79653" transform="rotate(-90 78.3083 124.637)" stroke="white" stroke-width="2"/>
<circle cx="68.0778" cy="112.438" r="1.79653" transform="rotate(-90 68.0778 112.438)" stroke="white" stroke-width="2"/>
<circle cx="78.3083" cy="112.438" r="1.79653" transform="rotate(-90 78.3083 112.438)" stroke="white" stroke-width="2"/>
<circle cx="67.7262" cy="100.231" r="1.79653" transform="rotate(-90 67.7262 100.231)" stroke="white" stroke-width="2"/>
<circle cx="77.9567" cy="100.231" r="1.79653" transform="rotate(-90 77.9567 100.231)" stroke="white" stroke-width="2"/>
<path d="M25.4805 157.945L25.4805 145.253L36.1725 145.253C37.2771 145.253 38.1725 146.149 38.1725 147.253L38.1725 155.945C38.1725 157.05 37.2771 157.945 36.1725 157.945L25.4805 157.945Z" stroke="white" stroke-width="2"/>
<path d="M25.4805 93.0352L25.4805 80.3431L37.1725 80.3431C37.7248 80.3431 38.1725 80.7908 38.1725 81.3431L38.1725 92.0352C38.1725 92.5874 37.7248 93.0352 37.1725 93.0352L25.4805 93.0352Z" stroke="white" stroke-width="2"/>
<path d="M11.2734 124.512C9.0643 124.512 7.27344 122.721 7.27344 120.512L7.27344 116.395C7.27344 114.186 9.0643 112.395 11.2734 112.395L18.2087 112.395C20.4178 112.395 22.2087 114.186 22.2087 116.395L22.2087 120.512C22.2087 122.721 20.4178 124.512 18.2087 124.512L11.2734 124.512Z" stroke="white" stroke-width="2"/>
<path d="M232.254 134.203C231.702 134.203 231.254 133.755 231.254 133.203L231.254 105.086C231.254 104.534 231.702 104.086 232.254 104.086L241.165 104.086C241.717 104.086 242.165 104.534 242.165 105.086L242.165 133.203C242.165 133.755 241.717 134.203 241.165 134.203L232.254 134.203Z" stroke="white" stroke-width="2"/>
<circle cx="177.386" cy="33.1475" r="31.667" stroke="#00C6BC" stroke-width="2"/>
<path d="M177.072 54.0618C178.264 54.0618 179.375 53.9527 180.214 53.7618C180.626 53.6682 181.028 53.5428 181.351 53.369C181.512 53.2825 181.702 53.1588 181.862 52.9809C182.027 52.7971 182.202 52.5058 182.202 52.1227C182.202 51.7395 182.027 51.4483 181.862 51.2644C181.702 51.0865 181.512 50.9628 181.351 50.8763C181.028 50.7025 180.626 50.5771 180.214 50.4835C179.375 50.2927 178.264 50.1836 177.072 50.1836C175.88 50.1836 174.769 50.2927 173.93 50.4835C173.518 50.5771 173.116 50.7025 172.793 50.8763C172.632 50.9628 172.442 51.0865 172.282 51.2644C172.117 51.4483 171.941 51.7395 171.941 52.1227C171.941 52.5058 172.117 52.7971 172.282 52.9809C172.442 53.1588 172.632 53.2825 172.793 53.369C173.116 53.5428 173.518 53.6682 173.93 53.7618C174.769 53.9527 175.88 54.0618 177.072 54.0618Z" fill="#161616" stroke="white" stroke-width="2"/>
<path d="M176.07 44.3107C176.07 44.863 176.518 45.3107 177.07 45.3107C177.623 45.3107 178.07 44.863 178.07 44.3107H176.07ZM174.172 25.6692C174.172 25.1169 173.725 24.6692 173.172 24.6692C172.62 24.6692 172.172 25.1169 172.172 25.6692H174.172ZM178.07 44.3107V17.8047H176.07V44.3107H178.07ZM175.07 14.8047H169.242V16.8047H175.07V14.8047ZM166.242 17.8047V34.0633H168.242V17.8047H166.242ZM169.242 37.0633H171.172V35.0633H169.242V37.0633ZM174.172 34.0633V25.6692H172.172V34.0633H174.172ZM171.172 37.0633C172.829 37.0633 174.172 35.7202 174.172 34.0633H172.172C172.172 34.6156 171.725 35.0633 171.172 35.0633V37.0633ZM166.242 34.0633C166.242 35.7202 167.585 37.0633 169.242 37.0633V35.0633C168.69 35.0633 168.242 34.6156 168.242 34.0633H166.242ZM169.242 14.8047C167.585 14.8047 166.242 16.1478 166.242 17.8047H168.242C168.242 17.2524 168.69 16.8047 169.242 16.8047V14.8047ZM178.07 17.8047C178.07 16.1478 176.727 14.8047 175.07 14.8047V16.8047C175.623 16.8047 176.07 17.2524 176.07 17.8047H178.07Z" fill="white"/>
<path d="M191.006 41.3131L198.133 35.7697H194.182L194.174 27.0586H187.838V35.7697H183.879L191.006 41.3131Z" stroke="white" stroke-width="2" stroke-linecap="round" stroke-linejoin="round"/>
</svg>
