<svg width="55" height="55" viewBox="0 0 55 55" fill="none" xmlns="http://www.w3.org/2000/svg">
<path d="M42.1571 29.1109L44.0508 25.6562" stroke="white" stroke-width="2" stroke-linecap="round"/>
<path d="M45.7205 33.0743L48.5742 31.5312" stroke="white" stroke-width="2" stroke-linecap="round"/>
<path d="M47.2748 38.2811L49.8686 38.0659" stroke="white" stroke-width="2" stroke-linecap="round"/>
<path d="M4.5919 29.1724L3.60972 29.3603L3.60972 29.3603L4.5919 29.1724ZM4.07081 31.338C4.21779 31.8704 4.76851 32.1828 5.30088 32.0358C5.83325 31.8888 6.14567 31.3381 5.99869 30.8058L4.07081 31.338ZM7.07383 33.8372C6.85178 33.3315 6.26184 33.1016 5.75616 33.3236C5.25048 33.5457 5.02055 34.1356 5.2426 34.6413L7.07383 33.8372ZM5.14453 24.4112C5.14453 13.2964 12.4598 4.64844 21.0797 4.64844V2.64844C10.9935 2.64844 3.14453 12.5921 3.14453 24.4112H5.14453ZM21.0797 4.64844C29.6996 4.64844 37.0148 13.2964 37.0148 24.4112H39.0148C39.0148 12.5921 31.1658 2.64844 21.0797 2.64844V4.64844ZM37.0148 24.4112C37.0148 26.8428 36.6602 29.1688 36.0134 31.3159L37.9284 31.8928C38.6319 29.5575 39.0148 27.0371 39.0148 24.4112H37.0148ZM30.3419 40.4876C27.7127 42.8233 24.5135 44.1739 21.0797 44.1739V46.1739C25.0614 46.1739 28.721 44.6028 31.6702 41.9828L30.3419 40.4876ZM5.57407 28.9844C5.29335 27.5176 5.14453 25.9865 5.14453 24.4112H3.14453C3.14453 26.1125 3.30525 27.7694 3.60972 29.3603L5.57407 28.9844ZM5.99869 30.8058C5.83452 30.2111 5.69255 29.6035 5.57407 28.9844L3.60972 29.3603C3.73823 30.0318 3.89235 30.6916 4.07081 31.338L5.99869 30.8058ZM21.0797 44.1739C15.1201 44.1739 9.81565 40.0812 7.07383 33.8372L5.2426 34.6413C8.21792 41.417 14.1334 46.1739 21.0797 46.1739V44.1739Z" fill="white"/>
<path d="M27.5703 24.931L24.1766 23.6165C22.2998 22.8895 20.2288 22.8367 18.3173 23.4671L14.6239 24.6852C11.9553 25.5653 9.20703 23.5778 9.20703 20.7679C9.20703 17.9676 11.9378 15.9811 14.602 16.8434L18.5304 18.1147C20.2918 18.6848 22.1849 18.7058 23.9585 18.1749L27.8827 17.0004C30.5737 16.195 33.2805 18.2103 33.2805 21.0192C33.2805 23.9674 30.3195 25.9959 27.5703 24.931Z" stroke="white" stroke-width="2"/>
<path d="M26.9808 33.798C26.9808 33.8096 26.979 33.924 26.7541 34.135C26.5274 34.3476 26.1453 34.5852 25.5898 34.8056C24.4845 35.2441 22.8892 35.5375 21.0763 35.5375C19.2635 35.5375 17.6682 35.2441 16.5629 34.8056C16.0074 34.5852 15.6253 34.3476 15.3986 34.135C15.1737 33.924 15.1719 33.8096 15.1719 33.798C15.1719 33.7865 15.1737 33.672 15.3986 33.4611C15.6253 33.2484 16.0074 33.0109 16.5629 32.7905C17.6682 32.3519 19.2635 32.0586 21.0763 32.0586C22.8892 32.0586 24.4845 32.3519 25.5898 32.7905C26.1453 33.0109 26.5274 33.2484 26.7541 33.4611C26.979 33.672 26.9808 33.7865 26.9808 33.798Z" stroke="white" stroke-width="2"/>
<path d="M27.9805 51.3064H26.9805V52.3064H27.9805V51.3064ZM47.2702 51.3064V52.3064H48.2702V51.3064H47.2702ZM44.9222 42.9765C44.9222 42.4243 44.4745 41.9765 43.9222 41.9765C43.3699 41.9765 42.9222 42.4243 42.9222 42.9765H44.9222ZM42.9222 39.1567C42.9222 39.709 43.3699 40.1567 43.9222 40.1567C44.4745 40.1567 44.9222 39.709 44.9222 39.1567H42.9222ZM27.9805 52.3064H47.2702V50.3064H27.9805V52.3064ZM48.2702 51.3064V48.7975H46.2702V51.3064H48.2702ZM30.0186 38.319V45.4495H32.0186V38.319H30.0186ZM26.9805 48.4876V51.3064H28.9805V48.4876H26.9805ZM31.0186 46.4495H43.9222V44.4495H31.0186V46.4495ZM44.9222 38.6583V38.319H42.9222V38.6583H44.9222ZM44.9222 45.4495V42.9765H42.9222V45.4495H44.9222ZM44.9222 39.1567V38.6583H42.9222V39.1567H44.9222ZM37.4704 30.8672C33.3549 30.8672 30.0186 34.2035 30.0186 38.319H32.0186C32.0186 35.308 34.4594 32.8672 37.4704 32.8672V30.8672ZM37.4704 32.8672C40.4813 32.8672 42.9222 35.308 42.9222 38.319H44.9222C44.9222 34.2035 41.5859 30.8672 37.4704 30.8672V32.8672ZM31.0186 44.4495C28.7884 44.4495 26.9805 46.2574 26.9805 48.4876H28.9805C28.9805 47.362 29.893 46.4495 31.0186 46.4495V44.4495ZM48.2702 48.7975C48.2702 46.3962 46.3235 44.4495 43.9222 44.4495V46.4495C45.219 46.4495 46.2702 47.5007 46.2702 48.7975H48.2702Z" fill="white"/>
</svg>
