<svg viewBox="0 -100 700 700" xmlns="http://www.w3.org/2000/svg"><g fill="#f4f4f4"><path d="M473.665 155.6a8.225 8.225 0 0 
1-.065-.572c-1.352-40.84-34.35-72.798-75.126-72.798H95.294c-40.778 0-73.776 31.959-75.125 72.758a8.885 8.885 0 0 1-.068.609c-.029.207-.06.413-.06.628v147.638c0 
41.496 33.758 75.254 75.251 75.254h303.181c41.493 0 75.251-33.758 75.251-75.254V156.225c.001-.214-.03-.42-.059-.624zm-418.99-16.152c7.172-16.086 23.116-26.48 
40.618-26.48h303.181c17.5 0 33.442 10.395 40.616 26.48l.63 1.407H54.047l.627-1.407zm388.311 164.414c0 24.548-19.969 44.517-44.513 44.517H95.293c-24.544 
0-44.513-19.97-44.513-44.517v-69.89h392.206v69.89zm0-100.627H50.78v-31.642h392.206v31.642z"/><path d="M80.322 311.027h161.885c8.475 0 15.37-6.896 
15.37-15.37s-6.897-15.368-15.37-15.368H80.322c-8.475 0-15.369 6.895-15.369 15.368s6.894 15.37 15.37 15.37z"/></g></svg>