<svg viewBox="70 30 400 400" xmlns="http://www.w3.org/2000/svg"><g fill="#00c6bc"><path d="M383.264 181.981a4.823 4.823 0 0 
1-.038-.336c-.793-23.944-20.14-42.682-44.047-42.682h-177.76c-23.908 0-43.255 18.738-44.046 42.659a5.21 5.21 0 0 1-.04.357c-.017.121-.035.242-.035.368v86.562c0 
24.33 19.793 44.123 44.12 44.123h177.76c24.328 0 44.12-19.793 44.12-44.123v-86.562c.001-.125-.017-.245-.034-.366zm-245.66-9.47c4.206-9.432 13.554-15.526 
23.815-15.526h177.76c10.26 0 19.607 6.095 23.813 15.526l.37.825H137.236l.368-.825zm227.673 96.398c0 14.393-11.708 26.1-26.099 26.1H161.42c-14.39 
0-26.098-11.707-26.098-26.1V227.93h229.956v40.978zm0-59H135.32v-18.551h229.956v18.552z"/><path d="M152.642 273.11h94.915c4.97 0 9.011-4.043 
9.011-9.012s-4.043-9.01-9.01-9.01h-94.916c-4.97 0-9.011 4.042-9.011 9.01s4.042 9.012 9.01 9.012z"/></g></svg>