<svg width="7" height="14" viewBox="0 0 7 14" fill="none" xmlns="http://www.w3.org/2000/svg">
<path d="M5.51615 13.5856C5.38128 13.586 5.24802 13.5563 5.12616 13.4985C5.0043 13.4407 4.89694 13.3563 4.81197 13.2515L0.451469 7.83477C0.318684 7.67323 0.246094 7.47061 0.246094 7.2615C0.246094 7.05239 0.318684 6.84976 0.451469 6.68822L4.96545 1.27145C5.11869 1.08708 5.33889 0.971143 5.57761 0.949133C5.81633 0.927123 6.05402 1.00085 6.23839 1.15409C6.42276 1.30733 6.5387 1.52753 6.56071 1.76625C6.58272 2.00497 6.50899 2.24266 6.35575 2.42703L2.32026 7.26601L6.22033 12.105C6.33073 12.2375 6.40086 12.3989 6.42241 12.57C6.44397 12.7411 6.41606 12.9148 6.34198 13.0706C6.2679 13.2264 6.15076 13.3576 6.0044 13.4489C5.85805 13.5402 5.68862 13.5876 5.51615 13.5856Z" fill="#00C6BC"/>
</svg>
