<svg width="269" height="14" viewBox="0 0 269 14" fill="none" xmlns="http://www.w3.org/2000/svg">
<path d="M0.672036 13.457V0.806151H2.81216V13.457H0.672036ZM14.4725 7.96865V10.8509L9.48467 5.69046V13.457H7.56891V0.806151L14.4725 7.96865ZM15.0766 0.806151H16.9924V13.457L15.0766 11.4722V8.57272V0.806151ZM34.3978 2.94627H21.7297V0.806151H34.3978V2.94627ZM26.9937 3.41227V13.457H29.1338V3.82648L26.9937 3.41227ZM48.6367 0.806151V2.94627H41.2843V7.64073H46.1859L45.7717 9.78085H41.2843V11.3169H48.6367V13.457H39.1442V11.3169V9.78085V7.64073V2.94627V1.87621V0.806151H48.6367ZM62.6064 11.3169L63.0379 13.457H55.5129H53.3728V0.806151H55.5129V11.3169H62.6064ZM77.0372 11.3169L77.4687 13.457H69.9438H67.8037V0.806151H69.9438V11.3169H77.0372ZM82.2345 13.457V0.806151H84.3746V13.457H82.2345ZM101.782 7.14022C101.782 8.01468 101.615 8.83736 101.282 9.60826C100.948 10.3677 100.494 11.035 99.9183 11.6103C99.3545 12.1741 98.6871 12.6228 97.9162 12.9565C97.1568 13.2902 96.3399 13.457 95.4654 13.457C94.591 13.457 93.7683 13.2902 92.9974 12.9565C92.238 12.6228 91.5707 12.1741 90.9954 11.6103C90.4201 11.035 89.9656 10.3677 89.6319 9.60826C89.2982 8.83736 89.1314 8.01468 89.1314 7.14022C89.1314 6.26576 89.2982 5.44308 89.6319 4.67218C89.9656 3.90127 90.4201 3.23392 90.9954 2.67013C91.5707 2.09483 92.238 1.64034 92.9974 1.30666C93.7683 0.972988 94.591 0.806151 95.4654 0.806151C96.4204 0.806151 97.3064 1.00175 98.1233 1.39296C98.9403 1.78416 99.6421 2.30769 100.229 2.96353L98.6756 4.51685C98.2959 4.0451 97.8299 3.67115 97.2776 3.39501C96.7254 3.11886 96.1213 2.98079 95.4654 2.98079C94.8901 2.98079 94.3494 3.0901 93.8431 3.30871C93.3368 3.52733 92.8939 3.82648 92.5142 4.20618C92.146 4.57438 91.8526 5.01161 91.6339 5.51787C91.4153 6.02414 91.306 6.56492 91.306 7.14022C91.306 7.71552 91.4153 8.25631 91.6339 8.76257C91.8526 9.26884 92.146 9.71182 92.5142 10.0915C92.8939 10.4597 93.3368 10.7531 93.8431 10.9717C94.3494 11.1903 94.8901 11.2997 95.4654 11.2997C96.2709 11.2997 97.0015 11.0925 97.6573 10.6783C98.3132 10.2641 98.8137 9.71757 99.1589 9.03872H96.2248L95.8969 7.14022H99.1589H99.6249H101.782ZM116.021 0.806151V2.94627H108.669V7.64073H113.57L113.156 9.78085H108.669V11.3169H116.021V13.457H106.529V11.3169V9.78085V7.64073V2.94627V1.87621V0.806151H116.021ZM127.661 7.96865V10.8509L122.673 5.69046V13.457H120.757V0.806151L127.661 7.96865ZM128.265 0.806151H130.181V13.457L128.265 11.4722V8.57272V0.806151ZM147.586 2.94627H134.918V0.806151H147.586V2.94627ZM140.182 3.41227V13.457H142.322V3.82648L140.182 3.41227Z" fill="white"/>
<path d="M170.282 0.806151L176.599 13.457H163.948L170.282 0.806151ZM170.282 5.12091L167.089 11.524H173.475L170.282 5.12091ZM188.283 7.96865V10.8509L183.295 5.69046V13.457H181.38V0.806151L188.283 7.96865ZM188.887 0.806151H190.803V13.457L188.887 11.4722V8.57272V0.806151ZM208.209 2.94627H195.54V0.806151H208.209V2.94627ZM200.804 3.41227V13.457H202.945V3.82648L200.804 3.41227ZM222.447 0.806151V2.94627H215.095V7.64073H219.997L219.582 9.78085H215.095V11.3169H222.447V13.457H212.955V11.3169V9.78085V7.64073V2.94627V1.87621V0.806151H222.447ZM234.087 7.96865V10.8509L229.099 5.69046V13.457H227.184V0.806151L234.087 7.96865ZM234.691 0.806151H236.607V13.457L234.691 11.4722V8.57272V0.806151ZM248.265 7.96865V10.8509L243.277 5.69046V13.457H241.362V0.806151L248.265 7.96865ZM248.869 0.806151H250.785V13.457L248.869 11.4722V8.57272V0.806151ZM261.839 0.806151L268.156 13.457H255.505L261.839 0.806151ZM261.839 5.12091L258.646 11.524H265.032L261.839 5.12091Z" fill="#00C6BC"/>
</svg>
