<svg width="230" height="92" viewBox="0 0 230 92" fill="none" xmlns="http://www.w3.org/2000/svg">
<path d="M30.6117 57.9082L26.8312 68.3164H25.2861L29.6392 56.8964H30.6353L30.6117 57.9082ZM33.7805 68.3164L29.9921 57.9082L29.9686 56.8964H30.9647L35.3335 68.3164H33.7805ZM33.5844 64.0888V65.3281H27.1685V64.0888H33.5844ZM54.7106 56.8964V68.3164H53.1968V56.8964H54.7106ZM73.6876 56.8964H77.4681C78.3257 56.8964 79.0499 57.0271 79.6408 57.2885C80.2369 57.55 80.6892 57.9369 80.9977 58.4494C81.3114 58.9566 81.4683 59.5814 81.4683 60.3239C81.4683 60.8468 81.3611 61.3253 81.1467 61.7593C80.9376 62.1881 80.6343 62.5541 80.2369 62.8574C79.8447 63.1554 79.3741 63.3777 78.8251 63.5241L78.4015 63.6888H74.8484L74.8327 62.4574H77.5152C78.059 62.4574 78.5113 62.3632 78.8721 62.175C79.2329 61.9815 79.5048 61.7227 79.6878 61.3985C79.8708 61.0743 79.9624 60.7161 79.9624 60.3239C79.9624 59.8847 79.8761 59.5004 79.7035 59.171C79.531 58.8415 79.2591 58.5879 78.8878 58.4101C78.5218 58.2271 78.0486 58.1356 77.4681 58.1356H75.2014V68.3164H73.6876V56.8964ZM80.3624 68.3164L77.5858 63.1397L79.1623 63.1319L81.9781 68.2223V68.3164H80.3624ZM102.61 62.8652V64.0574H98.7825V62.8652H102.61ZM127.58 67.1242V68.3164H120.105V67.2732L123.846 63.1084C124.306 62.5959 124.662 62.1619 124.913 61.8064C125.169 61.4456 125.347 61.124 125.446 60.8416C125.551 60.554 125.603 60.2612 125.603 59.9631C125.603 59.5867 125.525 59.2468 125.368 58.9435C125.216 58.635 124.991 58.3892 124.693 58.2062C124.395 58.0232 124.034 57.9317 123.611 57.9317C123.104 57.9317 122.68 58.031 122.34 58.2297C122.005 58.4232 121.755 58.6951 121.587 59.0455C121.42 59.3958 121.336 59.7984 121.336 60.2534H119.885C119.885 59.6102 120.026 59.0219 120.309 58.4886C120.591 57.9552 121.009 57.5317 121.564 57.2179C122.118 56.899 122.8 56.7395 123.611 56.7395C124.332 56.7395 124.949 56.8676 125.462 57.1238C125.974 57.3748 126.366 57.7304 126.638 58.1905C126.915 58.6454 127.054 59.1788 127.054 59.7906C127.054 60.1252 126.997 60.4651 126.881 60.8102C126.772 61.1501 126.617 61.49 126.419 61.8299C126.225 62.1698 125.998 62.5044 125.736 62.8338C125.48 63.1633 125.206 63.4875 124.913 63.8064L121.854 67.1242H127.58ZM148.533 62.8652V64.0574H144.706V62.8652H148.533ZM175.189 62.2456V62.9672C175.189 63.8247 175.082 64.5934 174.867 65.2732C174.653 65.9529 174.344 66.5307 173.942 67.0066C173.539 67.4824 173.056 67.8458 172.491 68.0968C171.931 68.3478 171.304 68.4733 170.608 68.4733C169.934 68.4733 169.314 68.3478 168.749 68.0968C168.19 67.8458 167.704 67.4824 167.291 67.0066C166.883 66.5307 166.566 65.9529 166.342 65.2732C166.117 64.5934 166.004 63.8247 166.004 62.9672V62.2456C166.004 61.388 166.114 60.622 166.334 59.9475C166.559 59.2677 166.875 58.6899 167.283 58.2141C167.691 57.733 168.174 57.367 168.734 57.116C169.299 56.865 169.918 56.7395 170.593 56.7395C171.288 56.7395 171.916 56.865 172.475 57.116C173.04 57.367 173.524 57.733 173.926 58.2141C174.334 58.6899 174.645 59.2677 174.86 59.9475C175.079 60.622 175.189 61.388 175.189 62.2456ZM173.691 62.9672V62.2299C173.691 61.5501 173.62 60.9488 173.479 60.4259C173.343 59.903 173.142 59.4638 172.875 59.1082C172.608 58.7526 172.282 58.4833 171.895 58.3003C171.513 58.1173 171.079 58.0258 170.593 58.0258C170.122 58.0258 169.696 58.1173 169.314 58.3003C168.938 58.4833 168.614 58.7526 168.342 59.1082C168.075 59.4638 167.868 59.903 167.722 60.4259C167.576 60.9488 167.502 61.5501 167.502 62.2299V62.9672C167.502 63.6522 167.576 64.2587 167.722 64.7869C167.868 65.3098 168.078 65.7516 168.349 66.1124C168.627 66.468 168.953 66.7373 169.33 66.9203C169.712 67.1033 170.138 67.1948 170.608 67.1948C171.1 67.1948 171.537 67.1033 171.918 66.9203C172.3 66.7373 172.622 66.468 172.883 66.1124C173.15 65.7516 173.351 65.3098 173.487 64.7869C173.623 64.2587 173.691 63.6522 173.691 62.9672ZM202.464 56.8964V68.3164H200.943L195.193 59.5082V68.3164H193.68V56.8964H195.193L200.966 65.7281V56.8964H202.464ZM228.626 67.085V68.3164H222.579V67.085H228.626ZM222.885 56.8964V68.3164H221.371V56.8964H222.885ZM227.826 61.8064V63.0378H222.579V61.8064H227.826ZM228.548 56.8964V58.1356H222.579V56.8964H228.548Z" fill="white"/>
<path d="M28.9539 26.1301H33.6273L38.938 42.683L44.2486 26.1301H48.922L40.8335 49.9219H37.0425L28.9539 26.1301ZM26.1107 26.1301H30.9475L31.8462 44.3661V49.9219H26.1107V26.1301ZM46.9285 26.1301H51.7816V49.9219H46.0297V44.3661L46.9285 26.1301ZM73.3373 45.5099V49.9219H60.6571V45.5099H73.3373ZM62.6997 26.1301V49.9219H56.9641V26.1301H62.6997ZM71.7033 35.5749V39.8398H60.6571V35.5749H71.7033ZM73.3863 26.1301V30.5584H60.6571V26.1301H73.3863ZM80.0395 26.1301H84.7129L90.0236 42.683L95.3342 26.1301H100.008L91.9191 49.9219H88.1281L80.0395 26.1301ZM77.1963 26.1301H82.0331L82.9318 44.3661V49.9219H77.1963V26.1301ZM98.0141 26.1301H102.867V49.9219H97.1154V44.3661L98.0141 26.1301ZM128.181 37.5521V38.5162C128.181 40.3354 127.925 41.9695 127.413 43.4184C126.912 44.8563 126.199 46.0873 125.273 47.1113C124.347 48.1244 123.252 48.9033 121.988 49.448C120.725 49.9818 119.33 50.2487 117.805 50.2487C116.269 50.2487 114.864 49.9818 113.589 49.448C112.326 48.9033 111.225 48.1244 110.288 47.1113C109.362 46.0873 108.643 44.8563 108.131 43.4184C107.63 41.9695 107.38 40.3354 107.38 38.5162V37.5521C107.38 35.7329 107.63 34.0988 108.131 32.65C108.643 31.2011 109.357 29.9701 110.272 28.957C111.198 27.933 112.293 27.1541 113.557 26.6203C114.831 26.0756 116.236 25.8033 117.772 25.8033C119.297 25.8033 120.692 26.0756 121.956 26.6203C123.23 27.1541 124.33 27.933 125.256 28.957C126.182 29.9701 126.901 31.2011 127.413 32.65C127.925 34.0988 128.181 35.7329 128.181 37.5521ZM122.364 38.5162V37.5194C122.364 36.3429 122.261 35.308 122.054 34.4147C121.857 33.5106 121.563 32.7535 121.171 32.1434C120.779 31.5334 120.294 31.0758 119.717 30.7708C119.15 30.4549 118.502 30.2969 117.772 30.2969C117.01 30.2969 116.345 30.4549 115.779 30.7708C115.212 31.0758 114.738 31.5334 114.357 32.1434C113.976 32.7535 113.687 33.5106 113.491 34.4147C113.306 35.308 113.213 36.3429 113.213 37.5194V38.5162C113.213 39.6818 113.306 40.7167 113.491 41.6209C113.687 42.5142 113.976 43.2713 114.357 43.8922C114.749 44.5132 115.229 44.9816 115.795 45.2975C116.373 45.6134 117.042 45.7714 117.805 45.7714C118.535 45.7714 119.183 45.6134 119.75 45.2975C120.316 44.9816 120.79 44.5132 121.171 43.8922C121.563 43.2713 121.857 42.5142 122.054 41.6209C122.261 40.7167 122.364 39.6818 122.364 38.5162ZM158.22 45.5099V49.9219H146.194V45.5099H158.22ZM148.236 26.1301V49.9219H142.501V26.1301H148.236ZM181.23 37.5521V38.5162C181.23 40.3354 180.974 41.9695 180.462 43.4184C179.961 44.8563 179.248 46.0873 178.322 47.1113C177.396 48.1244 176.301 48.9033 175.037 49.448C173.774 49.9818 172.379 50.2487 170.854 50.2487C169.318 50.2487 167.913 49.9818 166.638 49.448C165.375 48.9033 164.274 48.1244 163.338 47.1113C162.412 46.0873 161.693 44.8563 161.181 43.4184C160.679 41.9695 160.429 40.3354 160.429 38.5162V37.5521C160.429 35.7329 160.679 34.0988 161.181 32.65C161.693 31.2011 162.406 29.9701 163.321 28.957C164.247 27.933 165.342 27.1541 166.606 26.6203C167.88 26.0756 169.285 25.8033 170.821 25.8033C172.347 25.8033 173.741 26.0756 175.005 26.6203C176.279 27.1541 177.379 27.933 178.305 28.957C179.231 29.9701 179.95 31.2011 180.462 32.65C180.974 34.0988 181.23 35.7329 181.23 37.5521ZM175.413 38.5162V37.5194C175.413 36.3429 175.31 35.308 175.103 34.4147C174.907 33.5106 174.612 32.7535 174.22 32.1434C173.828 31.5334 173.343 31.0758 172.766 30.7708C172.2 30.4549 171.551 30.2969 170.821 30.2969C170.059 30.2969 169.394 30.4549 168.828 30.7708C168.261 31.0758 167.788 31.5334 167.406 32.1434C167.025 32.7535 166.736 33.5106 166.54 34.4147C166.355 35.308 166.262 36.3429 166.262 37.5194V38.5162C166.262 39.6818 166.355 40.7167 166.54 41.6209C166.736 42.5142 167.025 43.2713 167.406 43.8922C167.798 44.5132 168.278 44.9816 168.844 45.2975C169.422 45.6134 170.092 45.7714 170.854 45.7714C171.584 45.7714 172.232 45.6134 172.799 45.2975C173.365 44.9816 173.839 44.5132 174.22 43.8922C174.612 43.2713 174.907 42.5142 175.103 41.6209C175.31 40.7167 175.413 39.6818 175.413 38.5162ZM199.24 41.866H204.959C204.883 43.5218 204.436 44.9816 203.619 46.2453C202.802 47.5089 201.669 48.4948 200.221 49.2029C198.783 49.9001 197.083 50.2487 195.122 50.2487C193.532 50.2487 192.11 49.9818 190.858 49.448C189.616 48.9142 188.559 48.1462 187.687 47.144C186.827 46.1418 186.168 44.9271 185.71 43.5001C185.264 42.073 185.04 40.4662 185.04 38.6796V37.3887C185.04 35.6022 185.275 33.9953 185.743 32.5683C186.222 31.1303 186.898 29.9102 187.769 28.908C188.652 27.8949 189.708 27.1214 190.939 26.5876C192.17 26.0539 193.537 25.787 195.041 25.787C197.111 25.787 198.859 26.1573 200.286 26.8981C201.713 27.6389 202.819 28.6574 203.603 29.9538C204.387 31.2392 204.85 32.7044 204.992 34.3494H199.273C199.251 33.4561 199.099 32.7099 198.815 32.1107C198.532 31.5007 198.085 31.0432 197.475 30.7381C196.865 30.4331 196.054 30.2806 195.041 30.2806C194.333 30.2806 193.717 30.4113 193.194 30.6728C192.671 30.9342 192.236 31.3482 191.887 31.9146C191.538 32.4811 191.277 33.2164 191.103 34.1206C190.939 35.0139 190.858 36.0924 190.858 37.356V38.6796C190.858 39.9433 190.934 41.0218 191.086 41.915C191.239 42.8083 191.484 43.5382 191.822 44.1047C192.159 44.6711 192.595 45.0905 193.129 45.3629C193.674 45.6243 194.338 45.755 195.122 45.755C195.994 45.755 196.729 45.6189 197.328 45.3465C197.928 45.0633 198.391 44.6384 198.717 44.072C199.044 43.4946 199.218 42.7593 199.24 41.866ZM214.913 26.1301V49.9219H209.178V26.1301H214.913ZM229.113 26.1301L219.897 38.1894L214.505 44.0883L213.459 38.8267L216.907 33.5977L222.038 26.1301H229.113ZM222.332 49.9219L216.188 39.2025L220.649 35.9181L229.113 49.9219H222.332Z" fill="white"/>
<path fill-rule="evenodd" clip-rule="evenodd" d="M37.3436 0.504671C36.6372 0.249076 35.8636 0.248426 35.1567 0.502833L2.13845 12.3858C0.935122 12.8188 0.132812 13.9603 0.132812 15.2392V55.215C0.132812 64.433 5.17861 71.4972 12.0761 77.2241C18.708 82.7304 27.1701 87.0983 34.7854 91.0291L35.6449 91.4728C35.8611 91.5845 36.0827 91.6095 36.2112 91.6176C36.3606 91.627 36.5104 91.6195 36.6428 91.6053C36.8801 91.5799 37.1947 91.518 37.4358 91.3993C38.7511 90.752 40.1449 90.0921 41.5835 89.411C45.9663 87.3358 50.7637 85.0643 55.0164 82.3568C58.9211 79.8709 62.4644 76.9604 64.869 73.3963H62.6637C60.4908 76.2285 57.4822 78.6652 54.0552 80.847C49.906 83.4886 45.2586 85.6894 40.8983 87.7542L40.898 87.7543C39.4443 88.4427 38.0226 89.116 36.6618 89.7854C36.6567 89.7871 36.6497 89.7892 36.6406 89.7916C36.6341 89.7934 36.6264 89.7954 36.6177 89.7975C36.5709 89.8088 36.512 89.8193 36.4519 89.8258C36.4185 89.8293 36.3901 89.8311 36.3676 89.8317L35.6735 89.4734L35.6734 89.4733C28.0054 85.5147 19.6978 81.2259 13.2194 75.8471C6.53226 70.2948 1.92259 63.687 1.92259 55.215V15.2392C1.92259 14.7151 2.25138 14.2473 2.74452 14.0698L35.7628 2.18687C36.0769 2.0738 36.4208 2.07409 36.7348 2.18769L69.4471 14.0227C70.014 14.2278 70.3918 14.7662 70.3918 15.3691V22.4349H72.1816V15.3691C72.1816 14.0125 71.3317 12.8012 70.0559 12.3397L37.3436 0.504671Z" fill="white"/>
</svg>
