<svg width="55" height="55" viewBox="0 0 55 55" fill="none" xmlns="http://www.w3.org/2000/svg">
<path d="M11.5247 27.2894C11.5247 27.0011 11.6364 26.7922 11.8598 26.6625C12.0904 26.5327 12.375 26.4679 12.7137 26.4679C13.5711 26.4679 13.9999 26.7417 13.9999 27.2894C13.9999 27.556 13.8846 27.7613 13.654 27.9055C13.4234 28.0424 13.11 28.1108 12.7137 28.1108C12.339 28.1108 12.0471 28.0352 11.8381 27.8838C11.6292 27.7253 11.5247 27.5271 11.5247 27.2894ZM14.0107 21.5283C14.0107 21.8958 13.9386 22.5083 13.7945 23.3658C13.6504 24.2233 13.5783 24.8286 13.5783 25.1817C13.5783 25.4771 13.5099 25.6933 13.373 25.8302C13.2361 25.9671 13.0127 26.0355 12.7028 26.0355C12.4002 26.0355 12.1876 25.9671 12.0651 25.8302C11.9426 25.6861 11.8814 25.4591 11.8814 25.1492C11.8814 24.8034 11.8093 24.2197 11.6652 23.3982C11.5211 22.5768 11.449 21.9931 11.449 21.6472C11.449 21.2869 11.5355 21.0167 11.7084 20.8366C11.8886 20.6564 12.2092 20.5664 12.6704 20.5664C13.1532 20.5664 13.4955 20.642 13.6972 20.7933C13.9062 20.9447 14.0107 21.1897 14.0107 21.5283Z" fill="white"/>
<path d="M50.0605 35.9034C50.0605 35.3511 49.6128 34.9034 49.0605 34.9034C48.5082 34.9034 48.0605 35.3511 48.0605 35.9034H50.0605ZM48.0605 31.5938C48.0605 32.1461 48.5082 32.5938 49.0605 32.5938C49.6128 32.5938 50.0605 32.1461 50.0605 31.5938H48.0605ZM26.3069 49.1928L26.1026 48.2139L26.3069 49.1928ZM26.1203 8.43068L25.9514 7.44504L26.1203 8.43068ZM48.2648 44.6108L48.0605 43.6318L48.2648 44.6108ZM26.5112 50.1717L48.469 45.5897L48.0605 43.6318L26.1026 48.2139L26.5112 50.1717ZM25.7048 43.4447H17.3281V45.4447H25.7048V43.4447ZM24.7048 8.9235V44.4447H26.7048V8.9235H24.7048ZM24.7048 44.4447V48.7033H26.7048V44.4447H24.7048ZM17.854 20.637L17.8289 4.9992L15.8289 5.00241L15.854 20.6402L17.854 20.637ZM17.8281 43.9447V29.8034H15.8281V43.9447H17.8281ZM48.2732 3.62033L25.9514 7.44504L26.2892 9.41632L48.6109 5.5916L48.2732 3.62033ZM17.3289 5.5H48.442V3.5H17.3289V5.5ZM48.442 5.5H48.5605V3.5H48.442V5.5ZM48.0605 5V24.4724H50.0605V5H48.0605ZM48.0605 35.9034V43.6318H50.0605V35.9034H48.0605ZM48.0605 24.4724V31.5938H50.0605V24.4724H48.0605ZM26.1026 48.2139C26.4132 48.1491 26.7048 48.3861 26.7048 48.7033H24.7048C24.7048 49.655 25.5796 50.3661 26.5112 50.1717L26.1026 48.2139ZM26.7048 8.9235C26.7048 9.16706 26.5293 9.37518 26.2892 9.41632L25.9514 7.44504C25.2313 7.56844 24.7048 8.19282 24.7048 8.9235H26.7048ZM17.3281 43.4447C17.6043 43.4447 17.8281 43.6686 17.8281 43.9447H15.8281C15.8281 44.7731 16.4997 45.4447 17.3281 45.4447V43.4447ZM48.469 45.5897C49.3962 45.3962 50.0605 44.5789 50.0605 43.6318H48.0605L48.0605 43.6318L48.469 45.5897ZM48.5605 5.5C48.2844 5.5 48.0605 5.27614 48.0605 5H50.0605C50.0605 4.17157 49.3889 3.5 48.5605 3.5V5.5ZM17.8289 4.9992C17.8294 5.27565 17.6054 5.5 17.3289 5.5V3.5C16.4996 3.5 15.8276 4.17304 15.8289 5.00241L17.8289 4.9992Z" fill="white"/>
<path d="M33.0524 29.4209C33.0524 30.3876 32.8175 31.2142 32.49 31.7654C32.1497 32.3381 31.8216 32.459 31.6532 32.459C31.4847 32.459 31.1566 32.3381 30.8163 31.7654C30.4888 31.2142 30.2539 30.3876 30.2539 29.4209C30.2539 28.4542 30.4888 27.6276 30.8163 27.0763C31.1566 26.5036 31.4847 26.3828 31.6532 26.3828C31.8216 26.3828 32.1497 26.5036 32.49 27.0763C32.8175 27.6276 33.0524 28.4542 33.0524 29.4209Z" stroke="white" stroke-width="2"/>
<path d="M19.0748 30.5461H6.76147C5.24565 30.5461 4.2808 28.9256 5.0032 27.593L11.0428 16.4516C11.7925 15.0686 13.7718 15.0526 14.5437 16.4234L20.8175 27.5648C21.5683 28.898 20.6049 30.5461 19.0748 30.5461Z" stroke="white" stroke-width="2" stroke-linecap="round"/>
</svg>
