<svg viewBox="0 -60 700 700" xmlns="http://www.w3.org/2000/svg"><g fill="#f4f4f4"><path d="M398.477 
206.179v-31.867c0-22.02-4.317-43.39-12.83-63.516-8.219-19.432-19.982-36.88-34.961-51.859-14.979-14.98-32.427-26.742-51.858-34.961-20.127-8.512-41.498-12.83-63.516-12.83-35.838 0-69.85 
11.4-98.36 32.97a163.676 163.676 0 0 0-35.478 36.843 162.356 162.356 0 0 0-22.532 46.617c-2.77 9.285 2.51 19.059 11.794 21.83a17.471 17.471 0 0 0 
12.888-1.136 17.495 17.495 0 0 0 8.94-10.659c7.72-25.863 23.898-49.13 45.557-65.514 22.366-16.921 49.058-25.865 77.191-25.865 34.211 0 66.374 
13.323 90.565 37.513S363.39 140.1 363.39 174.31v31.852H73.28c-26.257 0-47.62 21.363-47.62 47.62v180.519c0 26.256 21.363 47.618 47.62 47.618h324.063c26.258 
0 47.62-21.362 47.62-47.618V253.783c-.002-25.877-20.751-46.999-46.486-47.604zm11.397 228.124c0 6.92-5.611 12.53-12.531 12.53H73.28c-6.92 
0-12.531-5.61-12.531-12.53V253.785c0-6.92 5.61-12.531 12.531-12.531h324.062c.382 0 .76.02 1.135.053 6.389.575 11.397 5.94 11.397 12.478v180.518z"/>
<path d="M397.343 482.33H73.28c-26.483 0-48.029-21.546-48.029-48.028V253.784c0-26.483 
21.546-48.03 48.03-48.03H362.98v-31.443c0-34.102-13.28-66.162-37.393-90.275s-56.174-37.393-90.275-37.393c-28.043 0-54.65 8.915-76.944 25.782-21.59 
16.333-37.717 39.525-45.411 65.305-1.43 4.787-4.679 8.66-9.15 10.907a18.056 18.056 0 0 1-13.188 1.162c-9.486-2.832-14.9-12.853-12.069-22.339a162.741 
162.741 0 0 1 22.589-46.735 164.089 164.089 0 0 1 35.565-36.935c28.582-21.623 62.68-33.053 98.608-33.053 22.073 0 43.497 4.328 63.676 12.862 19.48 
8.24 36.972 20.032 51.989 35.049 15.017 15.017 26.809 32.509 35.048 51.989 8.535 20.177 12.863 41.6 12.863 63.676v31.468c12.417.394 24.043 5.512 
32.775 14.438 8.84 9.036 13.709 20.957 13.709 33.566v180.518c-.001 26.482-21.546 48.027-48.03 48.027zM73.28 206.574c-26.031 0-47.21 21.178-47.21 
47.211v180.518c0 26.03 21.179 47.209 47.21 47.209h324.063c26.03 0 47.21-21.177 
47.21-47.209V253.785c0-12.394-4.786-24.111-13.475-32.994-8.676-8.867-20.256-13.911-32.609-14.202l-.4-.01v-32.267c0-21.964-4.305-43.28-12.798-63.357-8.197
-19.382-19.93-36.786-34.873-51.728-14.94-14.942-32.345-26.675-51.727-34.873-20.08-8.492-41.396-12.798-63.36-12.798-35.747 0-69.673 11.372-98.113 32.886a163.271 
163.271 0 0 0-35.39 36.752 161.913 161.913 0 0 0-22.474 46.5c-2.702 9.054 2.464 18.618 11.518 21.32a17.235 17.235 0 0 0 12.587-1.109c4.267-2.144 7.37-5.84 
8.733-10.41 7.744-25.945 23.974-49.286 45.702-65.724 22.438-16.974 49.215-25.947 77.438-25.947 34.32 0 66.586 13.365 90.854 37.633s37.633 56.534 37.633 
90.854v32.262H73.28zm324.063 240.668H73.28c-7.135 0-12.94-5.804-12.94-12.94V253.784c0-7.135 5.805-12.94 12.94-12.94h324.063c.394 0 .784.02 1.171.054 
6.71.604 11.77 6.144 11.77 12.886v180.518c0 7.136-5.806 12.94-12.941 12.94zM73.28 241.662c-6.684 0-12.122 5.438-12.122 12.122v180.518c0 6.684 5.438 
12.121 12.122 12.121h324.063c6.683 0 12.122-5.437 12.122-12.12V253.783c0-6.315-4.738-11.505-11.024-12.07a12.471 12.471 0 0 0-1.098-.052H73.28z"/><g>
<path d="M235.312 259.101c-27.755 0-50.401 22.284-50.991 49.9-.008.368-.014.736-.014 1.106 0 17.102 8.46 32.264 21.416 41.521a50.894 50.894 0 0 0 11.665 
6.23v40.189c0 9.69 7.854 17.544 17.544 17.544.127 0 .253-.007.38-.01a17.483 17.483 0 0 0 12.426-5.55 17.481 17.481 0 0 0 4.736-11.984v-39.909c19.706-7.062 
33.841-25.926 33.841-48.031.001-28.125-22.88-51.006-51.003-51.006zm0 66.922c-8.791 0-15.917-7.126-15.917-15.917s7.126-15.917 15.917-15.917c8.79 0 15.917 
7.126 15.917 15.917s-7.127 15.917-15.917 15.917z"/><path d="M234.932 416c-9.9 0-17.954-8.053-17.954-17.953V358.14a51.33 51.33 0 0 
1-11.494-6.178c-13.516-9.66-21.586-25.306-21.586-41.856 0-.373.005-.743.013-1.114.289-13.477 5.768-26.117 15.431-35.59 9.677-9.485 22.452-14.71 35.97-14.71 
28.35 0 51.414 23.064 51.414 51.414 0 21.55-13.588 40.931-33.842 48.318v39.622c0 4.568-1.721 8.924-4.846 12.264-3.332 3.56-7.848 
5.578-12.717 5.68l-.122.005c-.089.002-.177.006-.267.006zm.38-156.489c-13.302 0-25.873 5.141-35.396 14.477-9.509 9.322-14.902 
21.76-15.186 35.022-.008.365-.013.73-.013 1.097 0 16.285 7.941 31.683 21.244 41.188a50.55 50.55 0 0 0 11.57 6.18l.266.1v40.472c0 
9.448 7.687 17.134 17.135 17.134l.37-.01a16.99 16.99 0 0 0 12.138-5.42 17.073 17.073 0 0 0 4.625-11.704V357.85l.271-.098c20.08-7.196 33.57-26.343 33.57-47.645 
0-27.899-22.697-50.596-50.594-50.596zm0 66.922c-9.003 0-16.327-7.324-16.327-16.327s7.324-16.327 16.327-16.327 16.326 7.324 16.326 16.327-7.324 16.327-16.326 
16.327zm0-31.834c-8.551 0-15.507 6.956-15.507 15.508s6.956 15.508 15.507 15.508c8.55 0 15.507-6.957 15.507-15.508s-6.957-15.508-15.507-15.508z"/></g></g></svg>