<svg width="55" height="55" viewBox="0 0 55 55" fill="none" xmlns="http://www.w3.org/2000/svg">
<path d="M23.4727 21.0014C24.025 21.0014 24.4727 20.5537 24.4727 20.0014C24.4727 19.4491 24.025 19.0014 23.4727 19.0014V21.0014ZM31.2316 19.0014C30.6794 19.0014 30.2316 19.4491 30.2316 20.0014C30.2316 20.5537 30.6794 21.0014 31.2316 21.0014V19.0014ZM37.4104 21.533C37.4104 22.0853 37.8581 22.533 38.4104 22.533C38.9627 22.533 39.4104 22.0853 39.4104 21.533H37.4104ZM39.4104 24.2134C39.4104 23.6611 38.9627 23.2134 38.4104 23.2134C37.8581 23.2134 37.4104 23.6611 37.4104 24.2134H39.4104ZM21.5745 30.5451C21.5745 31.0974 22.0222 31.5451 22.5745 31.5451C23.1268 31.5451 23.5745 31.0974 23.5745 30.5451H21.5745ZM23.5745 33.4203C23.5745 32.8681 23.1268 32.4203 22.5745 32.4203C22.0222 32.4203 21.5745 32.8681 21.5745 33.4203H23.5745ZM24.1197 49.6192L23.4287 50.3421L24.1197 49.6192ZM31.9967 37.8931L32.7038 38.6003L31.9967 37.8931ZM30.9961 40.2874L30.289 40.9945L30.9961 40.2874ZM30.9961 38.8937L30.289 38.1866L30.9961 38.8937ZM31.5885 42.2735L32.2956 42.9806L31.5885 42.2735ZM31.5885 40.8798L30.8814 41.5869L31.5885 40.8798ZM30.9961 44.2595L30.289 44.9666L30.9961 44.2595ZM30.9961 42.8659L31.7032 43.573L30.9961 42.8659ZM31.9967 45.2601L32.7038 44.553L31.9967 45.2601ZM31.9967 48.4308L31.2896 47.7237L31.9967 48.4308ZM28.2208 52.2067L28.9279 52.9138L28.2208 52.2067ZM26.8431 52.2223L26.1521 52.9452L26.8431 52.2223ZM28.9279 52.9138L32.7038 49.138L31.2896 47.7237L27.5137 51.4996L28.9279 52.9138ZM33.2853 47.734V45.9569H31.2853V47.734H33.2853ZM32.7038 44.553L31.7032 43.5524L30.289 44.9666L31.2896 45.9672L32.7038 44.553ZM31.7032 43.573L32.2956 42.9806L30.8814 41.5663L30.289 42.1588L31.7032 43.573ZM32.2956 40.1727L31.7032 39.5803L30.289 40.9945L30.8814 41.5869L32.2956 40.1727ZM31.7032 39.6009L32.7038 38.6003L31.2896 37.186L30.289 38.1866L31.7032 39.6009ZM33.2853 37.1963V26.1279H31.2853V37.1963H33.2853ZM32.2853 27.1279H36.8787V25.1279H32.2853V27.1279ZM18.5378 27.1279H22.5745V25.1279H18.5378V27.1279ZM23.4287 50.3421L26.1521 52.9452L27.5341 51.4994L24.8106 48.8963L23.4287 50.3421ZM22.5745 27.1279H32.2853V25.1279H22.5745V27.1279ZM15.4492 13.1056V20.0014H17.4492V13.1056H15.4492ZM15.4492 20.0014V24.0394H17.4492V20.0014H15.4492ZM16.4492 21.0014H23.4727V19.0014H16.4492V21.0014ZM39.4104 20.0014V13.1056H37.4104V20.0014H39.4104ZM38.4104 19.0014H31.2316V21.0014H38.4104V19.0014ZM39.4104 21.533V20.0014H37.4104V21.533H39.4104ZM39.4104 24.5963V24.2134H37.4104V24.5963H39.4104ZM21.5745 37.1351V46.0047H23.5745V37.1351H21.5745ZM21.5745 26.1279V28.8797H23.5745V26.1279H21.5745ZM21.5745 28.8797V30.5451H23.5745V28.8797H21.5745ZM21.5745 34.3833V37.1351H23.5745V34.3833H21.5745ZM21.5745 33.4203V34.3833H23.5745V33.4203H21.5745ZM24.8106 48.8963C24.0211 48.1416 23.5745 47.0969 23.5745 46.0047H21.5745C21.5745 47.643 22.2444 49.2101 23.4287 50.3421L24.8106 48.8963ZM27.4298 1.125C20.8131 1.125 15.4492 6.48889 15.4492 13.1056H17.4492C17.4492 7.59346 21.9177 3.125 27.4298 3.125V1.125ZM27.4298 3.125C32.9419 3.125 37.4104 7.59346 37.4104 13.1056H39.4104C39.4104 6.4889 34.0465 1.125 27.4298 1.125V3.125ZM36.8787 27.1279C38.2769 27.1279 39.4104 25.9945 39.4104 24.5963H37.4104C37.4104 24.8899 37.1724 25.1279 36.8787 25.1279V27.1279ZM32.7038 38.6003C33.0761 38.2279 33.2853 37.7229 33.2853 37.1963H31.2853C31.2853 37.1925 31.2868 37.1888 31.2896 37.186L32.7038 38.6003ZM31.7032 39.5803C31.703 39.5801 31.7035 39.5806 31.7043 39.5818C31.7051 39.583 31.7058 39.5843 31.7063 39.5856C31.7073 39.5881 31.7074 39.5897 31.7074 39.5906C31.7074 39.5914 31.7073 39.5931 31.7063 39.5955C31.7058 39.5968 31.7051 39.5982 31.7043 39.5993C31.7035 39.6006 31.703 39.6011 31.7032 39.6009L30.289 38.1866C29.5136 38.962 29.5136 40.2191 30.289 40.9945L31.7032 39.5803ZM32.2956 42.9806C33.071 42.2052 33.071 40.9481 32.2956 40.1727L30.8814 41.5869C30.8816 41.5871 30.8811 41.5866 30.8803 41.5854C30.8795 41.5842 30.8788 41.5829 30.8783 41.5816C30.8773 41.5791 30.8771 41.5775 30.8771 41.5766C30.8771 41.5758 30.8773 41.5741 30.8783 41.5717C30.8788 41.5704 30.8795 41.569 30.8803 41.5679C30.8811 41.5666 30.8816 41.5661 30.8814 41.5663L32.2956 42.9806ZM31.7032 43.5524C31.703 43.5522 31.7035 43.5527 31.7043 43.5539C31.7051 43.5551 31.7058 43.5564 31.7063 43.5577C31.7073 43.5602 31.7074 43.5619 31.7074 43.5627C31.7074 43.5635 31.7073 43.5652 31.7063 43.5677C31.7058 43.569 31.7051 43.5703 31.7043 43.5714C31.7035 43.5727 31.703 43.5732 31.7032 43.573L30.289 42.1588C29.5136 42.9341 29.5136 44.1912 30.289 44.9666L31.7032 43.5524ZM33.2853 45.9569C33.2853 45.4304 33.0761 44.9253 32.7038 44.553L31.2896 45.9672C31.2869 45.9645 31.2853 45.9608 31.2853 45.9569H33.2853ZM32.7038 49.138C33.0761 48.7656 33.2853 48.2606 33.2853 47.734H31.2853C31.2853 47.7302 31.2868 47.7265 31.2896 47.7237L32.7038 49.138ZM18.5378 25.1279C17.9366 25.1279 17.4492 24.6406 17.4492 24.0394H15.4492C15.4492 25.7451 16.832 27.1279 18.5378 27.1279V25.1279ZM27.5137 51.4996C27.5136 51.4998 27.5141 51.4992 27.5153 51.4984C27.5164 51.4977 27.5177 51.497 27.5189 51.4965C27.5213 51.4955 27.523 51.4953 27.5238 51.4953C27.5247 51.4953 27.5264 51.4955 27.5288 51.4964C27.5301 51.4969 27.5313 51.4975 27.5325 51.4983C27.5337 51.499 27.5342 51.4995 27.5341 51.4994L26.1521 52.9452C26.9322 53.6907 28.1649 53.6768 28.9279 52.9138L27.5137 51.4996Z" fill="white"/>
<circle cx="27.5269" cy="10.1441" r="2.80811" stroke="white" stroke-width="2"/>
</svg>
