<svg width="55" height="55" viewBox="0 0 55 55" fill="none" xmlns="http://www.w3.org/2000/svg">
<path d="M20.6246 25.3917C21.1769 25.3917 21.6246 24.944 21.6246 24.3917C21.6246 23.8395 21.1769 23.3917 20.6246 23.3917V25.3917ZM26.1132 23.3917C25.5609 23.3917 25.1132 23.8395 25.1132 24.3917C25.1132 24.944 25.5609 25.3917 26.1132 25.3917V23.3917ZM20.9892 35.2163C20.9892 34.664 20.5415 34.2163 19.9892 34.2163C19.4369 34.2163 18.9892 34.664 18.9892 35.2163H20.9892ZM18.9892 31.9709C18.9892 32.5232 19.4369 32.9709 19.9892 32.9709C20.5415 32.9709 20.9892 32.5232 20.9892 31.9709H18.9892ZM20.6073 42.2978L21.2983 41.5749L20.6073 42.2978ZM26.6589 34.4523L27.3661 35.1595L26.6589 34.4523ZM25.9357 35.1756L25.2285 34.4685L25.9357 35.1756ZM26.3766 37.5445L25.6695 36.8374L26.3766 37.5445ZM25.9357 38.9495L26.6428 38.2424L25.9357 38.9495ZM25.9357 37.9855L26.6428 38.6926L25.9357 37.9855ZM26.6589 41.9066L25.9518 41.1995L26.6589 41.9066ZM24.1928 44.3728L24.8999 45.0799L24.1928 44.3728ZM22.7947 44.3886L23.4857 43.6657L22.7947 44.3886ZM24.8999 45.0799L27.3661 42.6137L25.9518 41.1995L23.4857 43.6657L24.8999 45.0799ZM27.8586 41.4247V40.1547H25.8586V41.4247H27.8586ZM27.3661 38.9656L26.6428 38.2424L25.2285 39.6566L25.9518 40.3799L27.3661 38.9656ZM26.6428 38.6926L27.0837 38.2516L25.6695 36.8374L25.2285 37.2784L26.6428 38.6926ZM27.0837 35.8735L26.6428 35.4325L25.2285 36.8467L25.6695 37.2877L27.0837 35.8735ZM26.6428 35.8827L27.3661 35.1595L25.9518 33.7452L25.2285 34.4685L26.6428 35.8827ZM27.8586 33.9704V28.7256H25.8586V33.9704H27.8586ZM26.8586 29.7256H29.7468V27.7256H26.8586V29.7256ZM17.1009 29.7256H19.9892V27.7256H17.1009V29.7256ZM19.9163 43.0207L22.1038 45.1115L23.4857 43.6657L21.2983 41.5749L19.9163 43.0207ZM19.9892 29.7256H26.8586V27.7256H19.9892V29.7256ZM14.6562 19.5137V24.3917H16.6562V19.5137H14.6562ZM14.6562 24.3917V27.281H16.6562V24.3917H14.6562ZM15.6562 25.3917H20.6246V23.3917H15.6562V25.3917ZM32.1914 27.281V24.3917H30.1914V27.281H32.1914ZM32.1914 24.3917V19.5137H30.1914V24.3917H32.1914ZM31.1914 23.3917H26.1132V25.3917H31.1914V23.3917ZM18.9892 35.2163V40.852H20.9892V35.2163H18.9892ZM18.9892 28.7256V31.9709H20.9892V28.7256H18.9892ZM21.2983 41.5749C21.1009 41.3862 20.9892 41.125 20.9892 40.852H18.9892C18.9892 41.6711 19.3242 42.4547 19.9163 43.0207L21.2983 41.5749ZM23.4238 10.7461C18.5816 10.7461 14.6562 14.6715 14.6562 19.5137H16.6562C16.6562 15.776 19.6862 12.7461 23.4238 12.7461V10.7461ZM23.4238 12.7461C27.1615 12.7461 30.1914 15.776 30.1914 19.5137H32.1914C32.1914 14.6715 28.266 10.7461 23.4238 10.7461V12.7461ZM29.7468 29.7256C31.0969 29.7256 32.1914 28.6311 32.1914 27.281H30.1914C30.1914 27.5265 29.9923 27.7256 29.7468 27.7256V29.7256ZM27.3661 35.1595C27.6814 34.8441 27.8586 34.4164 27.8586 33.9704H25.8586C25.8586 33.8859 25.8921 33.8049 25.9518 33.7452L27.3661 35.1595ZM26.6428 35.4325C26.7671 35.5568 26.7671 35.7584 26.6428 35.8827L25.2285 34.4685C24.5718 35.1252 24.5718 36.19 25.2285 36.8467L26.6428 35.4325ZM27.0837 38.2516C27.7404 37.5949 27.7404 36.5302 27.0837 35.8735L25.6695 37.2877C25.5452 37.1633 25.5452 36.9618 25.6695 36.8374L27.0837 38.2516ZM26.6428 38.2424C26.7671 38.3667 26.7671 38.5683 26.6428 38.6926L25.2285 37.2784C24.5718 37.9351 24.5718 38.9998 25.2285 39.6566L26.6428 38.2424ZM27.8586 40.1547C27.8586 39.7087 27.6814 39.281 27.3661 38.9656L25.9518 40.3799C25.8921 40.3202 25.8586 40.2392 25.8586 40.1547H27.8586ZM27.3661 42.6137C27.6814 42.2984 27.8586 41.8707 27.8586 41.4247H25.8586C25.8586 41.3402 25.8921 41.2592 25.9518 41.1995L27.3661 42.6137ZM17.1009 27.7256C16.8553 27.7256 16.6562 27.5265 16.6562 27.281H14.6562C14.6562 28.6311 15.7507 29.7256 17.1009 29.7256V27.7256ZM23.4857 43.6657L23.4857 43.6657L22.1038 45.1115C22.8895 45.8625 24.1313 45.8485 24.8999 45.0799L23.4857 43.6657Z" fill="white"/>
<circle cx="23.5727" cy="17.5376" r="2.54146" stroke="white" stroke-width="1.5"/>
<path d="M40.7843 32.6805L39.8788 32.2562L39.8788 32.2562L40.7843 32.6805ZM34.1066 45.0189C34.5135 44.6455 34.5407 44.0129 34.1673 43.606C33.794 43.1991 33.1614 43.1718 32.7544 43.5452L34.1066 45.0189ZM35.062 40.6982C34.7306 41.14 34.82 41.7668 35.2618 42.0982C35.7036 42.4297 36.3304 42.3402 36.6619 41.8984L35.062 40.6982ZM16.6887 46.857L16.0829 47.6526L16.6887 46.857ZM22.5739 5.90394L22.8509 6.86482L22.5739 5.90394ZM22.2969 4.94307C16.0395 6.74678 8.36801 9.18772 4.91142 10.2993L5.52371 12.2033C8.97843 11.0923 16.625 8.65944 22.8509 6.86482L22.2969 4.94307ZM16.0829 47.6526C17.3278 48.6005 18.5823 49.4216 19.7926 50.0091C20.9938 50.5922 22.2148 50.9765 23.3752 50.9765V48.9765C22.6358 48.9765 21.7266 48.7247 20.666 48.2099C19.6146 47.6995 18.4757 46.9608 17.2945 46.0614L16.0829 47.6526ZM23.3752 50.9765C25.0018 50.9765 26.8448 50.2316 28.6377 49.1742C30.4589 48.1001 32.351 46.6297 34.1066 45.0189L32.7544 43.5452C31.0703 45.0905 29.2904 46.4673 27.6217 47.4514C25.9248 48.4523 24.46 48.9765 23.3752 48.9765V50.9765ZM36.6619 41.8984C39.0023 38.7786 39.5332 37.7072 41.6898 33.1048L39.8788 32.2562C37.7445 36.811 37.2815 37.7396 35.062 40.6982L36.6619 41.8984ZM35.0722 8.17685C31.82 7.16265 28.053 6.00267 24.5315 4.95367L23.9606 6.87044C27.4707 7.91607 31.2288 9.0733 34.4768 10.0862L35.0722 8.17685ZM41.6898 33.1048C43.2985 29.6718 43.9909 25.0606 44.2802 21.0778L42.2854 20.9329C42 24.8626 41.3254 29.169 39.8788 32.2562L41.6898 33.1048ZM2.37109 13.7928C2.37109 26.3924 5.79306 39.818 16.0829 47.6526L17.2945 46.0614C7.73659 38.7841 4.37109 26.1392 4.37109 13.7928H2.37109ZM4.91142 10.2993C3.39037 10.7885 2.37109 12.2022 2.37109 13.7928H4.37109C4.37109 13.0637 4.83644 12.4243 5.52371 12.2033L4.91142 10.2993ZM22.8509 6.86482C23.213 6.76044 23.5977 6.76236 23.9606 6.87044L24.5315 4.95367C23.8036 4.73683 23.0284 4.73221 22.2969 4.94307L22.8509 6.86482Z" fill="white"/>
<path d="M43.2813 20.3837C48.349 20.3837 52.4571 16.2929 52.4571 11.2466C52.4571 6.20023 48.349 2.10938 43.2813 2.10938C38.2136 2.10938 34.1055 6.20023 34.1055 11.2466C34.1055 16.2929 38.2136 20.3837 43.2813 20.3837Z" stroke="white" stroke-width="2"/>
<path d="M43.2812 6.85156V15.6406" stroke="white" stroke-width="2" stroke-linecap="round"/>
<path d="M47.6758 11.2461L38.8867 11.2461" stroke="white" stroke-width="2" stroke-linecap="round"/>
</svg>
