<svg viewBox="0 0 500 500" xmlns="http://www.w3.org/2000/svg"><g fill="#00c6bc"><path d="M358.907 
206.151v-21.087c0-14.57-2.857-28.712-8.49-42.03-5.439-12.859-13.223-24.404-23.135-34.317-9.912-9.912-21.458-17.696-34.316-23.135-13.32-5.633-27.46-8.49-42.031-8.49-23.715 0-46.222 
7.545-65.088 21.817a108.31 108.31 0 0 0-23.476 24.38 107.436 107.436 0 0 0-14.91 30.849c-1.834 6.144 1.66 12.611 7.804 
14.445 2.952.881 5.977.53 8.528-.752a11.577 11.577 0 0 0 5.916-7.053c5.109-17.114 15.815-32.51 30.147-43.353 14.8-11.197 32.463-17.115 51.08-17.115 
22.638 0 43.921 8.816 59.929 24.823s24.823 37.291 24.823 59.93v21.078H143.714c-17.375 0-31.511 14.136-31.511 31.511v119.454c0 17.375 14.136 31.511 
31.511 31.511h214.442c17.376 0 31.511-14.136 31.511-31.51V237.651c0-17.123-13.731-31.1-30.76-31.5zm7.541 150.957a8.293 8.293 0 0 1-8.292 8.292H143.714a8.292 
8.292 0 0 1-8.292-8.292V237.654a8.293 8.293 0 0 1 8.292-8.293H358.155c.254 0 .504.014.752.036 4.227.38 7.541 3.93 7.541 8.257v119.454z"/><path d="M358.156 
388.89H143.714c-17.525 0-31.782-14.258-31.782-31.782V237.653c0-17.524 
14.257-31.782 31.782-31.782h191.703v-20.807c0-22.566-8.788-43.782-24.744-59.738s-37.172-24.744-59.738-24.744c-18.557 0-36.163 5.9-50.916 17.06-14.286 
10.808-24.959 26.155-30.05 43.215a11.773 11.773 0 0 1-6.054 7.217 11.948 11.948 0 0 1-8.728.77c-6.277-1.875-9.86-8.506-7.986-14.783a107.69 107.69 0 0 1 
14.948-30.926 108.582 108.582 0 0 1 23.534-24.441c18.914-14.309 41.478-21.872 65.252-21.872 14.607 0 28.783 2.864 42.136 8.511 12.892 5.452 24.466 13.255 
34.403 23.193 9.937 9.937 17.74 21.512 23.193 34.403 5.647 13.351 8.511 27.528 8.511 42.136v20.824c8.217.26 15.91 3.647 21.689 9.553 5.85 5.98 9.071 
13.868 9.071 22.212v119.454c0 17.524-14.257 31.781-31.782 31.781zM143.714 206.412c-17.226 0-31.24 14.014-31.24 31.24v119.455c0 17.226 14.014 31.24 
31.24 31.24h214.442c17.225 0 31.24-14.014 
31.24-31.24V237.654c0-8.201-3.167-15.955-8.917-21.833-5.74-5.868-13.404-9.206-21.578-9.398l-.264-.007v-21.352c0-14.534-2.85-28.64-8.47-41.925-5.424-12.826-13.188-24.343-23.076-34.23-9.887-9.887-21.403-17.651-34.23-23.077-13.287-5.62-27.392-8.468-41.926-8.468-23.655 
0-46.105 7.525-64.925 21.762a108.042 108.042 0 0 0-23.418 24.32 107.143 107.143 0 0 0-14.872 30.77c-1.788 5.991 1.63 12.32 7.622 14.108 2.753.822 5.769.552 
8.33-.734a11.235 11.235 0 0 0 5.778-6.888c5.124-17.17 15.864-32.615 30.242-43.492 14.848-11.233 32.567-17.17 51.243-17.17 22.71 0 44.062 8.844 60.121 
24.903s24.903 37.41 24.903 60.12v21.35H143.714zM358.156 365.67H143.714c-4.722 0-8.563-3.84-8.563-8.562V237.653c0-4.721 3.841-8.563 8.563-8.563h214.442c.26 
0 .52.014.775.036a8.516 8.516 0 0 1 7.789 8.527v119.455c0 4.721-3.842 8.562-8.564 8.562zM143.714 229.632c-4.423 0-8.021 3.598-8.021 8.021v119.455c0 
4.422 3.598 8.02 8.021 8.02h214.442c4.423 0 8.021-3.598 8.021-8.02V237.653a7.976 7.976 0 0 0-7.294-7.987 8.252 8.252 0 0 0-.727-.034H143.714z"/><g>
<path d="M250.935 241.172c-18.366 0-33.352 14.746-33.742 33.02-.005.243-.01.487-.01.732 0 11.317 5.6 21.35 14.172 27.476a33.678 33.678 0 0 0 7.72 
4.122v26.594c0 6.412 5.197 11.61 11.609 11.61.084 0 .168-.005.251-.007a11.569 11.569 0 0 0 8.223-3.673 11.568 11.568 0 0 0 3.134-7.93v-26.408c13.04-4.674 
22.394-17.157 22.394-31.784 0-18.611-15.14-33.752-33.751-33.752zm0 44.284c-5.817 0-10.532-4.716-10.532-10.533s4.715-10.533 10.532-10.533 10.533 4.716 
10.533 10.533-4.716 10.533-10.533 10.533z"/>
<path d="M250.684 344.997c-6.551 0-11.88-5.33-11.88-11.88v-26.408a33.967 33.967 0 0 1-7.607-4.089c-8.944-6.392-14.284-16.745-14.284-27.697 0-.246.004-.491.009-.737.19-8.918 
3.817-17.282 10.211-23.55 6.404-6.278 14.857-9.735 23.802-9.735 18.76 0 34.022 15.262 34.022 34.022 0 14.261-8.991 27.085-22.394 31.974v26.219c0 3.023-1.139 
5.905-3.207 8.115a11.78 11.78 0 0 1-8.415 3.76l-.08.002c-.06.002-.118.004-.177.004zm.251-103.554c-8.802 0-17.12 3.402-23.422 9.58-6.292 6.168-9.861 14.399-10.049 
23.175-.005.241-.01.483-.01.726 0 10.776 5.256 20.965 14.059 27.255a33.45 33.45 0 0 0 7.657 4.09l.175.066v26.781c0 6.252 5.087 11.339 11.339 
11.339l.245-.007a11.243 11.243 0 0 0 8.032-3.587 11.298 11.298 0 0 0 3.06-7.745v-26.6l.18-.064c13.287-4.762 22.214-17.432 22.214-31.528 
0-18.461-15.02-33.481-33.48-33.481zm0 44.284c-5.957 0-10.803-4.846-10.803-10.804s4.846-10.804 10.803-10.804 10.804 4.847 10.804 10.804-4.847 
10.804-10.804 10.804zm0-21.065c-5.658 0-10.261 4.603-10.261 10.262s4.603 10.262 10.261 10.262c5.658 0 10.262-4.603 10.262-10.262s-4.604-10.262-10.262-10.262z"/>
</g></g></svg>