<svg width="55" height="55" viewBox="0 0 55 55" fill="none" xmlns="http://www.w3.org/2000/svg">
<path d="M20.5625 21.3178C21.1148 21.3178 21.5625 20.8701 21.5625 20.3178C21.5625 19.7655 21.1148 19.3178 20.5625 19.3178V21.3178ZM28.3215 19.3178C27.7692 19.3178 27.3215 19.7655 27.3215 20.3178C27.3215 20.8701 27.7692 21.3178 28.3215 21.3178V19.3178ZM18.6643 31.7815C18.6643 32.3337 19.112 32.7815 19.6643 32.7815C20.2166 32.7815 20.6643 32.3337 20.6643 31.7815H18.6643ZM20.6643 35.6999C20.6643 35.1476 20.2166 34.6999 19.6643 34.6999C19.112 34.6999 18.6643 35.1476 18.6643 35.6999H20.6643ZM20.9005 49.6402L21.5914 48.9173L20.9005 49.6402ZM29.0865 38.2096L29.7936 38.9167L29.0865 38.2096ZM28.0859 40.6038L27.3788 41.3109L28.0859 40.6038ZM28.0859 39.2102L27.3788 38.503L28.0859 39.2102ZM28.6783 42.5899L29.3854 43.297L28.6783 42.5899ZM28.6783 41.1962L27.9712 41.9033L28.6783 41.1962ZM28.0859 44.5759L27.3788 45.283L28.0859 44.5759ZM28.0859 43.1823L28.793 43.8894L28.0859 43.1823ZM29.0865 45.5765L29.7936 44.8694L29.0865 45.5765ZM29.0865 48.7473L29.7936 49.4544L29.0865 48.7473ZM25.3107 52.5231L24.6036 51.816L25.3107 52.5231ZM23.9329 52.5387L23.242 53.2616L23.9329 52.5387ZM26.0178 53.2302L29.7936 49.4544L28.3794 48.0401L24.6036 51.816L26.0178 53.2302ZM30.3752 48.0504V46.2733H28.3752V48.0504H30.3752ZM29.7936 44.8694L28.793 43.8688L27.3788 45.283L28.3794 46.2836L29.7936 44.8694ZM28.793 43.8894L29.3854 43.297L27.9712 41.8828L27.3788 42.4752L28.793 43.8894ZM29.3854 40.4891L28.793 39.8967L27.3788 41.3109L27.9712 41.9033L29.3854 40.4891ZM28.793 39.9173L29.7936 38.9167L28.3794 37.5024L27.3788 38.503L28.793 39.9173ZM30.3752 37.5127V26.4443H28.3752V37.5127H30.3752ZM29.3752 27.4443H33.4117V25.4443H29.3752V27.4443ZM15.6276 27.4443H19.6643V25.4443H15.6276V27.4443ZM20.2095 50.3631L23.242 53.2616L24.6239 51.8158L21.5914 48.9173L20.2095 50.3631ZM19.6643 27.4443H29.3752V25.4443H19.6643V27.4443ZM12.5391 13.422V20.3178H14.5391V13.422H12.5391ZM12.5391 20.3178V24.3558H14.5391V20.3178H12.5391ZM13.5391 21.3178H20.5625V19.3178H13.5391V21.3178ZM36.5002 24.3558V20.3178H34.5002V24.3558H36.5002ZM35.5002 19.3178H28.3215V21.3178H35.5002V19.3178ZM36.5002 20.3178V18.0833H34.5002V20.3178H36.5002ZM33.4208 5.67837L31.8824 4.28416L30.5393 5.76611L32.0777 7.16032L33.4208 5.67837ZM18.6643 37.4515V46.7486H20.6643V37.4515H18.6643ZM18.6643 26.4443V31.7815H20.6643V26.4443H18.6643ZM18.6643 35.6999V37.4515H20.6643V35.6999H18.6643ZM21.5914 48.9173C20.9993 48.3513 20.6643 47.5678 20.6643 46.7486H18.6643C18.6643 48.1139 19.2226 49.4197 20.2095 50.3631L21.5914 48.9173ZM14.5391 13.422C14.5391 7.90986 19.0075 3.44141 24.5196 3.44141V1.44141C17.9029 1.44141 12.5391 6.8053 12.5391 13.422H14.5391ZM24.5189 3.44141C26.7446 3.44301 28.8902 4.27152 30.5393 5.76611L31.8824 4.28416C29.8658 2.45651 27.242 1.44337 24.5204 1.44141L24.5189 3.44141ZM33.4117 27.4443C35.1174 27.4443 36.5002 26.0615 36.5002 24.3558H34.5002C34.5002 24.957 34.0129 25.4443 33.4117 25.4443V27.4443ZM29.7936 38.9167C30.166 38.5443 30.3752 38.0393 30.3752 37.5127H28.3752C28.3752 37.5089 28.3767 37.5052 28.3794 37.5024L29.7936 38.9167ZM28.793 39.8967C28.7928 39.8965 28.7933 39.897 28.7942 39.8982C28.7949 39.8994 28.7956 39.9007 28.7962 39.902C28.7972 39.9045 28.7973 39.9061 28.7973 39.907C28.7973 39.9078 28.7972 39.9095 28.7962 39.9119C28.7956 39.9132 28.7949 39.9146 28.7942 39.9157C28.7933 39.917 28.7928 39.9175 28.793 39.9173L27.3788 38.503C26.6035 39.2784 26.6034 40.5355 27.3788 41.3109L28.793 39.8967ZM29.3854 43.297C30.1608 42.5216 30.1608 41.2645 29.3854 40.4891L27.9712 41.9033C27.9714 41.9035 27.9709 41.903 27.9701 41.9018C27.9693 41.9006 27.9686 41.8993 27.9681 41.898C27.9671 41.8955 27.967 41.8939 27.967 41.893C27.967 41.8922 27.9671 41.8905 27.9681 41.8881C27.9686 41.8868 27.9693 41.8855 27.9701 41.8843C27.9709 41.883 27.9714 41.8825 27.9712 41.8828L29.3854 43.297ZM28.793 43.8688C28.7928 43.8686 28.7933 43.8691 28.7942 43.8703C28.7949 43.8715 28.7956 43.8728 28.7962 43.8741C28.7972 43.8766 28.7973 43.8783 28.7973 43.8791C28.7973 43.8799 28.7972 43.8816 28.7962 43.8841C28.7956 43.8854 28.7949 43.8867 28.7942 43.8879C28.7933 43.8891 28.7928 43.8896 28.793 43.8894L27.3788 42.4752C26.6035 43.2505 26.6035 44.5077 27.3788 45.283L28.793 43.8688ZM30.3752 46.2733C30.3752 45.7468 30.166 45.2418 29.7936 44.8694L28.3794 46.2836C28.3767 46.2809 28.3752 46.2772 28.3752 46.2733H30.3752ZM29.7936 49.4544C30.166 49.082 30.3752 48.577 30.3752 48.0504H28.3752C28.3752 48.0466 28.3767 48.0429 28.3794 48.0401L29.7936 49.4544ZM15.6276 25.4443C15.0264 25.4443 14.5391 24.957 14.5391 24.3558H12.5391C12.5391 26.0615 13.9219 27.4443 15.6276 27.4443V25.4443ZM24.6036 51.816C24.6034 51.8162 24.6039 51.8157 24.6051 51.8149C24.6062 51.8141 24.6075 51.8134 24.6088 51.8129C24.6112 51.8119 24.6128 51.8118 24.6137 51.8118C24.6146 51.8117 24.6162 51.8119 24.6186 51.8128C24.6199 51.8133 24.6212 51.8139 24.6223 51.8147C24.6235 51.8154 24.6241 51.8159 24.6239 51.8158L23.242 53.2616C24.022 54.0072 25.2548 53.9932 26.0178 53.2302L24.6036 51.816Z" fill="white"/>
<circle cx="24.6167" cy="10.4605" r="2.80811" stroke="white" stroke-width="2"/>
<path d="M46.5724 11.0147C46.5724 11.567 47.0201 12.0147 47.5724 12.0147C48.1246 12.0147 48.5724 11.567 48.5724 11.0147H46.5724ZM45.4753 17.9613C45.886 17.592 45.9196 16.9598 45.5504 16.5491C45.1811 16.1384 44.5489 16.1048 44.1382 16.474L45.4753 17.9613ZM46.9112 10.2901C46.511 10.6707 46.4952 11.3037 46.8758 11.7039C47.2564 12.1041 47.8894 12.1199 48.2896 11.7393L46.9112 10.2901ZM50.689 9.45705C51.0891 9.07643 51.105 8.44346 50.7244 8.04328C50.3437 7.64311 49.7108 7.62726 49.3106 8.00789L50.689 9.45705ZM46.8187 11.7218C47.2092 12.1123 47.8424 12.1123 48.2329 11.7218C48.6234 11.3313 48.6234 10.6981 48.2329 10.3076L46.8187 11.7218ZM45.7283 7.80298C45.3378 7.41246 44.7046 7.41246 44.3141 7.80298C43.9235 8.19351 43.9235 8.82667 44.3141 9.2172L45.7283 7.80298ZM39.2334 18.3536C35.1803 18.3536 31.8945 15.0679 31.8945 11.0147H29.8945C29.8945 16.1724 34.0757 20.3536 39.2334 20.3536V18.3536ZM31.8945 11.0147C31.8945 6.96152 35.1803 3.67578 39.2334 3.67578V1.67578C34.0757 1.67578 29.8945 5.85695 29.8945 11.0147H31.8945ZM39.2334 3.67578C43.2866 3.67578 46.5724 6.96152 46.5724 11.0147H48.5724C48.5724 5.85695 44.3912 1.67578 39.2334 1.67578V3.67578ZM44.1382 16.474C42.8376 17.6433 41.1197 18.3536 39.2334 18.3536V20.3536C41.6323 20.3536 43.8219 19.4479 45.4753 17.9613L44.1382 16.474ZM48.2896 11.7393L50.689 9.45705L49.3106 8.00789L46.9112 10.2901L48.2896 11.7393ZM48.2329 10.3076L45.7283 7.80298L44.3141 9.2172L46.8187 11.7218L48.2329 10.3076Z" fill="white"/>
<path d="M36.125 5.50391C35.7108 5.50391 35.375 5.83969 35.375 6.25391C35.375 6.66812 35.7108 7.00391 36.125 7.00391V5.50391ZM42.3507 7.00391C42.7649 7.00391 43.1007 6.66812 43.1007 6.25391C43.1007 5.83969 42.7649 5.50391 42.3507 5.50391V7.00391ZM41.2003 7.00391H42.3507V5.50391H41.2003V7.00391ZM36.125 7.00391H37.3783V5.50391H36.125V7.00391ZM37.3783 7.00391H41.2003V5.50391H37.3783V7.00391ZM40.4503 6.25391V8.26665H41.9503V6.25391H40.4503ZM40.4503 8.26665V8.36836H41.9503V8.26665H40.4503ZM38.1283 8.36836V8.26665H36.6283V8.36836H38.1283ZM38.1283 8.26665V6.25391H36.6283V8.26665H38.1283ZM39.2893 9.5294C38.6481 9.5294 38.1283 9.00958 38.1283 8.36836H36.6283C36.6283 9.83801 37.8196 11.0294 39.2893 11.0294V9.5294ZM39.2893 11.0294C40.7589 11.0294 41.9503 9.83801 41.9503 8.36836H40.4503C40.4503 9.00958 39.9305 9.5294 39.2893 9.5294V11.0294Z" fill="white"/>
<path d="M36.125 16.5234C35.7108 16.5234 35.375 16.1877 35.375 15.7734C35.375 15.3592 35.7108 15.0234 36.125 15.0234V16.5234ZM42.3507 15.0234C42.7649 15.0234 43.1007 15.3592 43.1007 15.7734C43.1007 16.1877 42.7649 16.5234 42.3507 16.5234V15.0234ZM41.2003 15.0234H42.3507V16.5234H41.2003V15.0234ZM36.125 15.0234H37.3783V16.5234H36.125V15.0234ZM37.3783 15.0234H41.2003V16.5234H37.3783V15.0234ZM40.4503 15.7734V13.7607H41.9503V15.7734H40.4503ZM40.4503 13.7607V13.659H41.9503V13.7607H40.4503ZM38.1283 13.659V13.7607H36.6283V13.659H38.1283ZM38.1283 13.7607V15.7734H36.6283V13.7607H38.1283ZM39.2893 12.4979C38.6481 12.4979 38.1283 13.0178 38.1283 13.659H36.6283C36.6283 12.1893 37.8196 10.9979 39.2893 10.9979V12.4979ZM39.2893 10.9979C40.7589 10.9979 41.9503 12.1893 41.9503 13.659H40.4503C40.4503 13.0178 39.9305 12.4979 39.2893 12.4979V10.9979Z" fill="white"/>
</svg>
