<svg width="55" height="55" viewBox="0 0 55 55" fill="none" xmlns="http://www.w3.org/2000/svg">
<path d="M25.1129 24.8917C25.6652 24.8917 26.1129 24.444 26.1129 23.8917C26.1129 23.3395 25.6652 22.8917 25.1129 22.8917V24.8917ZM30.6015 22.8917C30.0492 22.8917 29.6015 23.3395 29.6015 23.8917C29.6015 24.444 30.0492 24.8917 30.6015 24.8917V22.8917ZM25.4775 34.7163C25.4775 34.164 25.0298 33.7163 24.4775 33.7163C23.9252 33.7163 23.4775 34.164 23.4775 34.7163H25.4775ZM23.4775 31.4709C23.4775 32.0232 23.9252 32.4709 24.4775 32.4709C25.0298 32.4709 25.4775 32.0232 25.4775 31.4709H23.4775ZM25.4046 42.0932L24.7137 42.8161L25.4046 42.0932ZM31.1472 33.9523L31.8543 34.6595L31.1472 33.9523ZM30.4239 34.6756L29.7168 33.9685L30.4239 34.6756ZM30.8649 37.0445L30.1578 36.3374L30.8649 37.0445ZM30.4239 38.4495L31.131 37.7424L30.4239 38.4495ZM30.4239 37.4855L31.131 38.1926L30.4239 37.4855ZM31.1472 41.4066L30.4401 40.6995L31.1472 41.4066ZM28.6811 43.8728L29.3882 44.5799L28.6811 43.8728ZM27.283 43.8886L27.974 43.1657L27.283 43.8886ZM29.3882 44.5799L31.8543 42.1137L30.4401 40.6995L27.974 43.1657L29.3882 44.5799ZM32.3469 40.9247V39.6547H30.3469V40.9247H32.3469ZM31.8543 38.4656L31.131 37.7424L29.7168 39.1566L30.4401 39.8799L31.8543 38.4656ZM31.131 38.1926L31.572 37.7516L30.1578 36.3374L29.7168 36.7784L31.131 38.1926ZM31.572 35.3735L31.131 34.9325L29.7168 36.3467L30.1578 36.7877L31.572 35.3735ZM31.131 35.3827L31.8543 34.6595L30.4401 33.2452L29.7168 33.9685L31.131 35.3827ZM32.3469 33.4704V28.2256H30.3469V33.4704H32.3469ZM31.3469 29.2256H34.2351V27.2256H31.3469V29.2256ZM21.5892 29.2256H24.4775V27.2256H21.5892V29.2256ZM24.7137 42.8161L26.5921 44.6115L27.974 43.1657L26.0956 41.3703L24.7137 42.8161ZM24.4775 29.2256H31.3469V27.2256H24.4775V29.2256ZM19.1445 19.0137V23.8917H21.1445V19.0137H19.1445ZM19.1445 23.8917V26.781H21.1445V23.8917H19.1445ZM20.1445 24.8917H25.1129V22.8917H20.1445V24.8917ZM36.6797 26.781V23.8917H34.6797V26.781H36.6797ZM36.6797 23.8917V19.0137H34.6797V23.8917H36.6797ZM35.6797 22.8917H30.6015V24.8917H35.6797V22.8917ZM23.4775 34.7163V39.9245H25.4775V34.7163H23.4775ZM23.4775 28.2256V31.4709H25.4775V28.2256H23.4775ZM26.0956 41.3703C25.7008 40.9929 25.4775 40.4706 25.4775 39.9245H23.4775C23.4775 41.0167 23.9241 42.0614 24.7137 42.8161L26.0956 41.3703ZM27.9121 10.2461C23.0699 10.2461 19.1445 14.1715 19.1445 19.0137H21.1445C21.1445 15.276 24.1745 12.2461 27.9121 12.2461V10.2461ZM27.9121 12.2461C31.6497 12.2461 34.6797 15.276 34.6797 19.0137H36.6797C36.6797 14.1715 32.7543 10.2461 27.9121 10.2461V12.2461ZM34.2351 29.2256C35.5852 29.2256 36.6797 28.1311 36.6797 26.781H34.6797C34.6797 27.0265 34.4806 27.2256 34.2351 27.2256V29.2256ZM31.8543 34.6595C32.1697 34.3441 32.3469 33.9164 32.3469 33.4704H30.3469C30.3469 33.3859 30.3804 33.3049 30.4401 33.2452L31.8543 34.6595ZM31.131 34.9325C31.2554 35.0568 31.2554 35.2584 31.131 35.3827L29.7168 33.9685C29.0601 34.6252 29.0601 35.69 29.7168 36.3467L31.131 34.9325ZM31.572 37.7516C32.2287 37.0949 32.2287 36.0302 31.572 35.3735L30.1578 36.7877C30.0334 36.6633 30.0334 36.4618 30.1578 36.3374L31.572 37.7516ZM31.131 37.7424C31.2554 37.8667 31.2554 38.0683 31.131 38.1926L29.7168 36.7784C29.0601 37.4351 29.0601 38.4998 29.7168 39.1566L31.131 37.7424ZM32.3469 39.6547C32.3469 39.2087 32.1697 38.781 31.8543 38.4656L30.4401 39.8799C30.3804 39.8202 30.3469 39.7392 30.3469 39.6547H32.3469ZM31.8543 42.1137C32.1697 41.7984 32.3469 41.3707 32.3469 40.9247H30.3469C30.3469 40.8402 30.3804 40.7592 30.4401 40.6995L31.8543 42.1137ZM21.5892 27.2256C21.3436 27.2256 21.1445 27.0265 21.1445 26.781H19.1445C19.1445 28.1311 20.239 29.2256 21.5892 29.2256V27.2256ZM27.974 43.1657L27.974 43.1657L26.5921 44.6115C27.3778 45.3625 28.6196 45.3485 29.3882 44.5799L27.974 43.1657Z" fill="white"/>
<circle cx="28.061" cy="17.0376" r="2.54146" stroke="white" stroke-width="1.5"/>
<path d="M45.2726 32.1805L44.3671 31.7562L44.3671 31.7562L45.2726 32.1805ZM38.5948 44.5189C39.0018 44.1455 39.029 43.5129 38.6556 43.106C38.2822 42.6991 37.6497 42.6718 37.2427 43.0452L38.5948 44.5189ZM39.5503 40.1982C39.2189 40.64 39.3083 41.2668 39.7501 41.5982C40.1919 41.9297 40.8187 41.8402 41.1501 41.3984L39.5503 40.1982ZM21.1769 46.357L20.5712 47.1526L21.1769 46.357ZM29.8468 5.74466L29.5595 6.70249L29.8468 5.74466ZM47.9434 13.3866L46.9436 13.408L47.9434 13.3866ZM45.9217 10.7276L45.6189 11.6807L45.9217 10.7276ZM46.1781 32.6048C47.5633 29.6487 48.2661 25.8276 48.62 22.3002C48.9759 18.7534 48.987 15.4118 48.9432 13.3652L46.9436 13.408C46.9865 15.4091 46.9749 18.6632 46.63 22.1006C46.2832 25.5576 45.6073 29.1094 44.3671 31.7562L46.1781 32.6048ZM46.2245 9.77456C43.0078 8.75253 36.3201 6.64271 30.1342 4.78684L29.5595 6.70249C35.7296 8.55364 42.4051 10.6596 45.6189 11.6807L46.2245 9.77456ZM25.6672 4.76764C19.6404 6.52917 12.6537 8.75286 9.3997 9.79931L10.012 11.7033C13.263 10.6578 20.2285 8.44096 26.2283 6.68732L25.6672 4.76764ZM20.5712 47.1526C21.8161 48.1005 23.0706 48.9216 24.2809 49.5091C25.4821 50.0922 26.7031 50.4765 27.8635 50.4765V48.4765C27.1241 48.4765 26.2149 48.2247 25.1543 47.7099C24.1029 47.1995 22.964 46.4608 21.7827 45.5614L20.5712 47.1526ZM27.8635 50.4765C29.4901 50.4765 31.3331 49.7316 33.126 48.6742C34.9472 47.6001 36.8393 46.1297 38.5948 44.5189L37.2427 43.0452C35.5586 44.5905 33.7787 45.9673 32.11 46.9514C30.4131 47.9523 28.9483 48.4765 27.8635 48.4765V50.4765ZM41.1501 41.3984C43.4906 38.2786 44.0215 37.2072 46.1781 32.6048L44.3671 31.7562C42.2327 36.311 41.7698 37.2396 39.5503 40.1982L41.1501 41.3984ZM6.85938 13.2928C6.85938 25.8924 10.2813 39.318 20.5712 47.1526L21.7827 45.5614C12.2249 38.2841 8.85938 25.6392 8.85938 13.2928H6.85938ZM9.3997 9.79931C7.87865 10.2885 6.85938 11.7022 6.85938 13.2928H8.85938C8.85938 12.5637 9.32473 11.9243 10.012 11.7033L9.3997 9.79931ZM30.1342 4.78684C28.6789 4.35024 27.1289 4.34041 25.6672 4.76764L26.2283 6.68732C27.3156 6.36952 28.4711 6.37595 29.5595 6.70249L30.1342 4.78684ZM48.9432 13.3652C48.9072 11.6855 47.7908 10.2722 46.2245 9.77456L45.6189 11.6807C46.405 11.9304 46.9268 12.6199 46.9436 13.408L48.9432 13.3652Z" fill="white"/>
</svg>
