<svg width="249" height="141" viewBox="0 0 249 141" fill="none" xmlns="http://www.w3.org/2000/svg">
<path d="M98.082 0.601714L98.082 88.7617" stroke="white" stroke-width="2"/>
<path d="M191.276 21.6758L191.276 22.6758L192.276 22.6758L205.836 22.6758C209.15 22.6758 211.836 25.3621 211.836 28.6758L211.836 58.4068C211.836 61.7205 209.15 64.4068 205.836 64.4068L192.276 64.4068L191.276 64.4068L191.276 65.4068L191.276 81.7617C191.276 85.0754 188.59 87.7617 185.276 87.7617L23.4644 87.7617C20.1507 87.7617 17.4645 85.0754 17.4645 81.7617L17.4645 64.7189C17.4645 63.6143 16.569 62.7189 15.4645 62.7189L6.14593 62.7189C3.38504 62.7189 1.14668 60.4812 1.14593 57.7203L1.13835 29.8487C1.1376 27.0867 3.3764 24.8473 6.13835 24.8473L13.4645 24.8473C15.6736 24.8473 17.4645 23.0564 17.4645 20.8473L17.4644 7.60171C17.4644 4.288 20.1507 1.60171 23.4645 1.60171L185.276 1.60171C188.59 1.60171 191.276 4.288 191.276 7.60171L191.276 21.6758Z" stroke="white" stroke-width="2"/>
<circle cx="53.9306" cy="59.4483" r="1.42278" transform="rotate(-90 53.9306 59.4483)" stroke="white" stroke-width="2"/>
<circle cx="62.7939" cy="59.4483" r="1.42278" transform="rotate(-90 62.7939 59.4483)" stroke="white" stroke-width="2"/>
<circle cx="54.2353" cy="48.8741" r="1.42278" transform="rotate(-90 54.2353 48.8741)" stroke="white" stroke-width="2"/>
<circle cx="63.0986" cy="48.8741" r="1.42278" transform="rotate(-90 63.0986 48.8741)" stroke="white" stroke-width="2"/>
<circle cx="54.2353" cy="38.3038" r="1.42278" transform="rotate(-90 54.2353 38.3038)" stroke="white" stroke-width="2"/>
<circle cx="63.0986" cy="38.3038" r="1.42278" transform="rotate(-90 63.0986 38.3038)" stroke="white" stroke-width="2"/>
<circle cx="53.9306" cy="27.7296" r="1.42278" transform="rotate(-90 53.9306 27.7296)" stroke="white" stroke-width="2"/>
<circle cx="62.7939" cy="27.7296" r="1.42278" transform="rotate(-90 62.7939 27.7296)" stroke="white" stroke-width="2"/>
<path d="M17.4648 77.5977L17.4648 66.8691L26.1934 66.8691C27.2979 66.8691 28.1934 67.7646 28.1934 68.8691L28.1934 75.5977C28.1934 76.7022 27.2979 77.5977 26.1934 77.5977L17.4648 77.5977Z" stroke="white" stroke-width="2"/>
<path d="M17.4648 21.3633L17.4648 10.6348L27.1934 10.6348C27.7456 10.6348 28.1934 11.0825 28.1934 11.6348L28.1934 20.3633C28.1934 20.9156 27.7456 21.3633 27.1934 21.3633L17.4648 21.3633Z" stroke="white" stroke-width="2"/>
<path d="M4.73828 56.0273L4.73828 32.203C4.73828 31.6507 5.186 31.203 5.73828 31.203L11.212 31.203C11.7643 31.203 12.212 31.6507 12.212 32.203L12.212 56.0273C12.212 56.5796 11.7643 57.0273 11.212 57.0273L5.73828 57.0273C5.186 57.0273 4.73828 56.5796 4.73828 56.0273Z" stroke="white" stroke-width="2"/>
<path d="M195.738 56.0273L195.738 32.203C195.738 31.6507 196.186 31.203 196.738 31.203L203.924 31.203C204.476 31.203 204.924 31.6507 204.924 32.203L204.924 56.0273C204.924 56.5796 204.476 57.0273 203.924 57.0273L196.738 57.0273C196.186 57.0273 195.738 56.5796 195.738 56.0273Z" stroke="white" stroke-width="2"/>
<path d="M178.039 107.526L181.055 122.303C181.619 125.068 184.118 127.007 186.936 126.866V126.866C189.714 126.728 191.989 124.61 192.325 121.85L192.622 119.402M215.278 117.419C218.081 121.412 217.829 122.12 219.661 125.906L220.078 127.488C220.906 130.63 219.024 133.846 215.88 134.663V134.663C212.715 135.485 209.488 133.562 208.707 130.386L207.129 123.976M192.622 119.402L194.54 127.98C195.281 131.291 198.503 133.427 201.841 132.818V132.818C204.759 132.287 206.915 129.797 207.024 126.833L207.129 123.976M192.622 119.402L191.446 110.872M207.129 123.976L205.439 114.718" stroke="white" stroke-width="2"/>
<path d="M210.641 71.5898L151.838 71.5898C148.524 71.5898 145.838 74.2761 145.838 77.5898L145.838 114.197C145.838 117.511 148.524 120.197 151.838 120.197L210.641 120.197C213.954 120.197 216.641 117.511 216.641 114.197L216.641 77.5899C216.641 74.2761 213.954 71.5898 210.641 71.5898Z" fill="white" stroke="white" stroke-width="2"/>
<path d="M247.754 120.048L247.754 112.133C247.754 104.9 245.117 97.8333 239.545 93.2197C234.484 89.0283 227.654 84.2847 220.733 82.2424C219.301 81.82 216.911 82.2424 216.911 82.2424L216.911 106.157C211.507 103.458 203.678 100.99 197.207 99.2463C193.929 98.3631 190.57 100.221 189.46 103.429C188.36 106.608 189.816 110.107 192.865 111.526C196.759 113.337 201.405 115.442 204.473 116.669C209.222 118.569 215.95 125.375 218.72 128.541C222.432 133.204 228.901 134.822 231.671 135.048L232.754 135.048C241.038 135.048 247.754 128.332 247.754 120.048Z" fill="#292F3D"/>
<path d="M222.497 109.007C221.641 108.23 218.525 106.963 216.911 106.157M216.911 106.157C211.507 103.458 203.678 100.99 197.207 99.2463C193.929 98.3631 190.57 100.221 189.46 103.429V103.429C188.36 106.608 189.816 110.107 192.865 111.526C196.759 113.337 201.405 115.442 204.473 116.669C209.222 118.569 215.95 125.375 218.72 128.541C222.432 133.204 228.901 134.822 231.671 135.048L232.754 135.048C241.038 135.048 247.754 128.332 247.754 120.048L247.754 112.133C247.754 104.9 245.117 97.8333 239.545 93.2197C234.484 89.0283 227.654 84.2847 220.733 82.2424C219.301 81.82 216.911 82.2424 216.911 82.2424L216.911 106.157Z" stroke="white" stroke-width="2" stroke-linecap="round"/>
<path d="M150.703 65.4877C151.003 65.9516 151.622 66.0848 152.086 65.7852C152.55 65.4856 152.683 64.8666 152.383 64.4027L150.703 65.4877ZM149.096 62.552L149.62 61.7001L149.62 61.7001L149.096 62.552ZM145.856 61.4496L145.96 60.455L145.96 60.455L145.856 61.4496ZM142.457 61.8536L142.122 60.9114L142.122 60.9114L142.457 61.8536ZM139.565 63.6852L138.857 62.9797L138.857 62.9797L139.565 63.6852ZM137.359 69.9861L138.353 69.8768L138.353 69.8768L137.359 69.9861ZM138.477 73.2213L139.327 72.6936L139.327 72.6936L138.477 73.2213ZM140.343 76.4997C140.809 76.7971 141.427 76.661 141.724 76.1956C142.022 75.7303 141.886 75.1119 141.42 74.8145L140.343 76.4997ZM152.383 64.4027C151.676 63.3067 150.731 62.3832 149.62 61.7001L148.573 63.404C149.429 63.9307 150.158 64.6427 150.703 65.4877L152.383 64.4027ZM149.62 61.7001C148.508 61.017 147.258 60.5915 145.96 60.455L145.751 62.4441C146.751 62.5493 147.716 62.8773 148.573 63.404L149.62 61.7001ZM145.96 60.455C144.663 60.3186 143.351 60.4745 142.122 60.9114L142.792 62.7959C143.74 62.4591 144.751 62.3388 145.751 62.4441L145.96 60.455ZM142.122 60.9114C140.893 61.3483 139.777 62.055 138.857 62.9797L140.274 64.3906C140.984 63.6777 141.844 63.1328 142.792 62.7959L142.122 60.9114ZM138.857 62.9797C137.936 63.9044 137.235 65.0236 136.804 66.2549L138.691 66.9158C139.024 65.9664 139.565 65.1035 140.274 64.3906L138.857 62.9797ZM136.804 66.2549C136.373 67.4863 136.223 68.7986 136.365 70.0954L138.353 69.8768C138.243 68.8769 138.359 67.8652 138.691 66.9158L136.804 66.2549ZM136.365 70.0954C136.508 71.3922 136.939 72.6406 137.628 73.7489L139.327 72.6936C138.796 71.8392 138.463 70.8766 138.353 69.8768L136.365 70.0954ZM137.628 73.7489C138.316 74.8571 139.244 75.7971 140.343 76.4997L141.42 74.8145C140.573 74.2728 139.857 73.5481 139.327 72.6936L137.628 73.7489Z" fill="white"/>
<path d="M149.335 53.3829C149.611 53.8608 150.223 54.0238 150.701 53.7469C151.179 53.47 151.342 52.8582 151.065 52.3803L149.335 53.3829ZM139.393 45.4982L139.546 44.5099L139.393 45.4982ZM132.7 45.9678L132.989 46.9251L132.989 46.9251L132.7 45.9678ZM126.864 49.2805L126.19 48.5417L126.19 48.5417L126.864 49.2805ZM123.03 54.7876L123.957 55.1632L123.03 54.7876ZM121.948 61.4102L120.95 61.4714L120.95 61.4714L121.948 61.4102ZM127.73 73.6641C128.181 73.9836 128.805 73.8775 129.124 73.427C129.444 72.9766 129.338 72.3524 128.887 72.0328L127.73 73.6641ZM151.065 52.3803C149.855 50.2914 148.192 48.5001 146.199 47.1381L145.07 48.7895C146.817 49.9829 148.274 51.5525 149.335 53.3829L151.065 52.3803ZM146.199 47.1381C144.205 45.7762 141.932 44.8781 139.546 44.5099L139.241 46.4865C141.332 46.8091 143.324 47.5961 145.07 48.7895L146.199 47.1381ZM139.546 44.5099C137.16 44.1417 134.722 44.3127 132.411 45.0104L132.989 46.9251C135.014 46.3137 137.15 46.1639 139.241 46.4865L139.546 44.5099ZM132.411 45.0104C130.099 45.7081 127.974 46.9148 126.19 48.5417L127.538 50.0194C129.101 48.5938 130.963 47.5365 132.989 46.9251L132.411 45.0104ZM126.19 48.5417C124.406 50.1686 123.01 52.1745 122.103 54.412L123.957 55.1632C124.751 53.2026 125.975 51.445 127.538 50.0194L126.19 48.5417ZM122.103 54.412C121.196 56.6495 120.802 59.0617 120.95 61.4714L122.946 61.349C122.817 59.2375 123.162 57.1238 123.957 55.1632L122.103 54.412ZM120.95 61.4714C121.098 63.8811 121.783 66.2271 122.957 68.337L124.705 67.365C123.676 65.5162 123.076 63.4605 122.946 61.349L120.95 61.4714ZM122.957 68.337C124.13 70.447 125.761 72.2672 127.73 73.6641L128.887 72.0328C127.162 70.8088 125.733 69.2138 124.705 67.365L122.957 68.337Z" fill="white"/>
<rect x="144.844" y="80.2617" width="73.1778" height="10.2048" fill="#292F3D"/>
</svg>
