<svg width="15" height="16" viewBox="0 0 15 16" fill="none" xmlns="http://www.w3.org/2000/svg">
<g clip-path="url(#clip0_824_887)">
<path d="M7.16927 14.0352C10.3909 14.0352 13.0026 11.2369 13.0026 7.78516C13.0026 4.33338 10.3909 1.53516 7.16927 1.53516C3.94761 1.53516 1.33594 4.33338 1.33594 7.78516C1.33594 11.2369 3.94761 14.0352 7.16927 14.0352Z" stroke="white"/>
<path d="M6.00391 5.58766C6.29557 4.96891 6.58724 4.66016 7.17057 4.66016C7.89741 4.66016 8.33724 5.27828 8.33724 5.89641C8.33724 6.40344 8.14099 6.70231 7.58752 7.13486C7.33174 7.33476 7.17057 7.63503 7.17057 7.95965V8.41016M7.17057 10.5977V10.9102" stroke="white" stroke-linecap="round"/>
</g>
<defs>
<clipPath id="clip0_824_887">
<rect width="14" height="15" fill="white" transform="translate(0.167969 0.285156)"/>
</clipPath>
</defs>
</svg>
