<svg width="97" height="97" viewBox="0 0 97 97" fill="none" xmlns="http://www.w3.org/2000/svg">
<path d="M48.5563 14.0977V15.2183V14.0977ZM13.125 49.529H12.0044H13.125ZM48.5563 84.9602L48.5563 83.8396L48.5563 84.9602ZM85.1083 49.529C85.1083 48.9101 84.6066 48.4084 83.9877 48.4084C83.3688 48.4084 82.867 48.9101 82.867 49.529L85.1083 49.529ZM80.4325 67.4163C80.7354 66.8766 80.5433 66.1935 80.0036 65.8907C79.4639 65.5878 78.7808 65.7799 78.4779 66.3196L80.4325 67.4163ZM80.5361 61.9595C80.3119 62.5364 80.5977 63.1858 81.1746 63.41C81.7514 63.6342 82.4009 63.3484 82.6251 62.7715L80.5361 61.9595ZM77.61 69.8087L78.5289 70.4501L78.5289 70.4501L77.61 69.8087ZM81.0635 33.3018C75.3568 21.262 62.9187 12.977 48.5563 12.977V15.2183C62.043 15.2183 73.6982 22.9956 79.0382 34.2617L81.0635 33.3018ZM48.5563 12.977C43.7563 12.977 39.0032 13.9225 34.5685 15.7594L35.4262 17.83C39.589 16.1057 44.0506 15.2183 48.5563 15.2183L48.5563 12.977ZM34.5685 15.7594C30.1338 17.5963 26.1044 20.2887 22.7102 23.6829L24.295 25.2676C27.481 22.0816 31.2634 19.5543 35.4262 17.83L34.5685 15.7594ZM22.7102 23.6829C19.316 27.077 16.6236 31.1065 14.7867 35.5412L16.8574 36.3988C18.5816 32.2361 21.109 28.4537 24.295 25.2676L22.7102 23.6829ZM14.7867 35.5412C12.9498 39.9758 12.0044 44.7289 12.0044 49.529H14.2456C14.2456 45.0232 15.1331 40.5616 16.8574 36.3988L14.7867 35.5412ZM12.0044 49.529C12.0044 54.3291 12.9498 59.082 14.7867 63.5167L16.8574 62.659C15.1331 58.4962 14.2456 54.0347 14.2456 49.529H12.0044ZM14.7867 63.5167C16.6236 67.9514 19.316 71.9808 22.7102 75.375L24.295 73.7902C21.109 70.6042 18.5816 66.8218 16.8574 62.659L14.7867 63.5167ZM22.7102 75.375C26.1044 78.7692 30.1338 81.4616 34.5685 83.2985L35.4262 81.2278C31.2634 79.5036 27.481 76.9763 24.295 73.7902L22.7102 75.375ZM34.5685 83.2985C39.0032 85.1354 43.7563 86.0808 48.5563 86.0808L48.5563 83.8396C44.0506 83.8396 39.589 82.9521 35.4262 81.2278L34.5685 83.2985ZM48.5563 86.0808C58.2505 86.0808 67.5476 82.2298 74.4025 75.375L72.8177 73.7902C66.3832 80.2247 57.6561 83.8396 48.5563 83.8396V86.0808ZM82.6251 62.7715C84.2509 58.589 85.1083 54.1032 85.1083 49.529L82.867 49.529C82.867 53.8227 82.0622 58.0334 80.5361 61.9595L82.6251 62.7715ZM74.4025 75.375C75.9303 73.8472 77.3089 72.198 78.5289 70.4501L76.6911 69.1673C75.5459 70.808 74.2519 72.356 72.8177 73.7902L74.4025 75.375ZM78.5289 70.4501C79.214 69.4687 79.8491 68.456 80.4325 67.4163L78.4779 66.3196C77.9303 67.2956 77.3342 68.2461 76.6911 69.1673L78.5289 70.4501Z" fill="white"/>
<path d="M81.7962 11.1094C81.7962 10.4905 81.2945 9.98876 80.6756 9.98876C80.0567 9.98876 79.555 10.4905 79.555 11.1094H81.7962ZM57.0547 33.6096C56.4358 33.6096 55.9341 34.1114 55.9341 34.7303C55.9341 35.3492 56.4358 35.8509 57.0547 35.8509V33.6096ZM79.555 11.1094V33.6096H81.7962V11.1094H79.555ZM79.555 33.6096H57.0547V35.8509H79.555V33.6096ZM79.555 33.6096L79.555 33.6096V35.8509C80.7928 35.8509 81.7962 34.8474 81.7962 33.6096H79.555Z" fill="white"/>
</svg>
