<svg width="7" height="14" viewBox="0 0 7 14" fill="none" xmlns="http://www.w3.org/2000/svg">
<path d="M1.29635 13.5856C1.43122 13.586 1.56448 13.5563 1.68634 13.4985C1.8082 13.4407 1.91556 13.3563 2.00053 13.2515L6.36103 7.83477C6.49382 7.67323 6.56641 7.47061 6.56641 7.2615C6.56641 7.05239 6.49382 6.84976 6.36103 6.68822L1.84705 1.27145C1.69381 1.08708 1.47361 0.971143 1.23489 0.949133C0.996165 0.927123 0.758476 1.00085 0.574111 1.15409C0.389745 1.30733 0.273804 1.52753 0.251794 1.76625C0.229784 2.00497 0.303508 2.24266 0.456747 2.42703L4.49224 7.26601L0.592167 12.105C0.48177 12.2375 0.411644 12.3989 0.390085 12.57C0.368527 12.7411 0.396439 12.9148 0.470518 13.0706C0.544598 13.2264 0.661745 13.3576 0.808097 13.4489C0.95445 13.5402 1.12388 13.5876 1.29635 13.5856Z" fill="#00C6BC"/>
</svg>
