<svg width="89" height="80" viewBox="0 0 89 80" fill="none" xmlns="http://www.w3.org/2000/svg">
<path fill-rule="evenodd" clip-rule="evenodd" d="M52.9096 67.4116C59.8991 60.9998 66.4394 51.8714 66.4394 40.1238C66.4394 27.8502 66.4418 20.6945 66.4442 16.6073C66.4454 14.5637 66.4466 13.2873 66.4475 12.5221L66.4486 11.7256L66.4489 11.5549L66.449 11.5159L66.449 11.5067L66.449 11.5046V11.504V11.5039L66.4516 10.3911L65.5265 9.77271L64.3726 11.499C65.5265 9.77271 65.5259 9.77235 65.5253 9.77196L65.5239 9.771L65.5201 9.76845L65.5086 9.76087L65.4707 9.73591C65.4388 9.71498 65.3936 9.68559 65.3355 9.64829C65.2193 9.5737 65.0514 9.46745 64.8343 9.3341C64.4002 9.06744 63.769 8.69205 62.9615 8.24432C61.3475 7.34944 59.023 6.16228 56.1544 4.97626C55.1358 4.5551 54.0459 4.13299 52.8925 3.72361L52.8937 8.149C53.4706 8.36896 54.029 8.59136 54.5677 8.81406C57.2667 9.92998 59.448 11.0448 60.9478 11.8763C61.4887 12.1762 61.9401 12.4388 62.2945 12.6508C62.2936 13.429 62.2925 14.6752 62.2913 16.6048C62.2889 20.6931 62.2866 27.8498 62.2866 40.1238C62.2866 48.7577 58.1752 55.9334 52.908 61.5764L52.9096 67.4116ZM51.6625 62.8621C50.3709 64.148 49.0268 65.3468 47.6701 66.4575C43.9484 69.5044 40.2159 71.8161 37.4093 73.3666C36.0085 74.1405 34.8445 74.7214 34.0364 75.1064C33.8857 75.1782 33.7475 75.2431 33.6225 75.3012C33.1753 75.0871 32.559 74.7834 31.8086 74.3923C30.1452 73.5254 27.8301 72.2325 25.2403 70.5376C20.0338 67.13 13.8437 62.1784 9.55638 55.8981L6.12651 58.2396C10.8486 65.1566 17.5417 70.4622 22.9661 74.0124C25.6918 75.7964 28.129 77.1576 29.8892 78.075C30.7699 78.534 31.4829 78.8829 31.9799 79.1188C32.2285 79.2368 32.4232 79.3266 32.558 79.3879L32.6397 79.4249L32.7146 79.4585L32.7579 79.4777L32.7705 79.4832L32.7745 79.485L32.776 79.4856C32.7765 79.4859 32.777 79.4861 33.6079 77.5832L32.777 79.4861L33.5914 79.8417L34.411 79.498L33.6079 77.5832C34.411 79.498 34.4117 79.4977 34.4126 79.4974L34.4149 79.4964L34.4217 79.4935L34.4436 79.4842L34.52 79.4514C34.5573 79.4353 34.6039 79.415 34.6593 79.3906C34.6816 79.3808 34.7053 79.3704 34.7305 79.3592C34.7523 79.3495 34.7752 79.3394 34.7991 79.3287C35.0393 79.2216 35.3855 79.0638 35.8225 78.8556C36.6963 78.4393 37.9351 77.8207 39.4175 77.0017C42.3776 75.3663 46.3338 72.9186 50.3008 69.6709C50.7545 69.2995 51.2094 68.9167 51.664 68.5224L51.6625 62.8621ZM51.6477 7.68871L51.6465 3.29509C46.5411 1.59524 40.3297 0.214844 33.6079 0.214844C24.7563 0.214844 16.6462 2.61012 10.7887 4.97171C7.85117 6.15606 5.45718 7.34131 3.79142 8.2342C2.95801 8.68093 2.30537 9.05528 1.85652 9.32089C1.63205 9.45371 1.45841 9.55942 1.33847 9.63346C1.2785 9.67049 1.23194 9.69961 1.19916 9.72025L1.16035 9.7448L1.14877 9.75218L1.14496 9.75462L1.14354 9.75552C1.14297 9.75589 1.14246 9.75622 2.26394 11.5038L1.14246 9.75622L0.1875 10.3691V11.5038V25.8516H4.34039V12.6793C4.71152 12.4651 5.18548 12.1988 5.75338 11.8944C7.31012 11.06 9.56674 9.9421 12.3416 8.82333C17.909 6.57869 25.4709 4.36773 33.6079 4.36773C40.3624 4.36773 46.6197 5.89052 51.6477 7.68871Z" fill="#EDEDED"/>
<rect x="44.9609" y="2.55078" width="16.6654" height="2.52834" fill="url(#paint0_radial_304_1353)"/>
<path d="M58.9973 3.93386C58.9973 5.98782 56.2092 4.80901 52.8287 7.65288C50.2833 4.91528 46.6602 5.98782 46.6602 3.93386C46.6602 1.87991 49.4219 0.214844 52.8287 0.214844C56.2355 0.214844 58.9973 1.87991 58.9973 3.93386Z" fill="url(#paint1_diamond_304_1353)"/>
<path d="M56.5523 3.81634C56.5523 5.05679 54.8685 4.34487 52.8269 6.06237C51.2897 4.40905 49.1016 5.05679 49.1016 3.81634C49.1016 2.57589 50.7695 1.57031 52.8269 1.57031C54.8844 1.57031 56.5523 2.57589 56.5523 3.81634Z" fill="url(#paint2_diamond_304_1353)"/>
<path d="M55.0098 3.93544C55.0098 4.66349 54.0215 4.24565 52.8232 5.25369C51.921 4.28331 50.6367 4.66349 50.6367 3.93544C50.6367 3.20739 51.6157 2.61719 52.8232 2.61719C54.0308 2.61719 55.0098 3.20739 55.0098 3.93544Z" fill="url(#paint3_diamond_304_1353)"/>
<path d="M54.1114 3.81679C54.1114 4.23985 53.5371 3.99705 52.8409 4.5828C52.3166 4.01893 51.5703 4.23985 51.5703 3.81679C51.5703 3.39374 52.1392 3.05078 52.8409 3.05078C53.5426 3.05078 54.1114 3.39374 54.1114 3.81679Z" fill="url(#paint4_diamond_304_1353)"/>
<rect x="50.3945" y="61.1758" width="5.18557" height="0.786715" fill="url(#paint5_radial_304_1353)"/>
<path d="M54.7607 61.6064C54.7607 62.2455 53.8931 61.8787 52.8413 62.7636C52.0492 61.9118 50.9219 62.2455 50.9219 61.6064C50.9219 60.9673 51.7812 60.4492 52.8413 60.4492C53.9013 60.4492 54.7607 60.9673 54.7607 61.6064Z" fill="url(#paint6_diamond_304_1353)"/>
<path d="M54.002 61.57C54.002 61.9559 53.478 61.7344 52.8428 62.2688C52.3644 61.7544 51.6836 61.9559 51.6836 61.57C51.6836 61.184 52.2026 60.8711 52.8428 60.8711C53.483 60.8711 54.002 61.184 54.002 61.57Z" fill="url(#paint7_diamond_304_1353)"/>
<path d="M53.5209 61.6055C53.5209 61.832 53.2134 61.702 52.8405 62.0157C52.5598 61.7137 52.1602 61.832 52.1602 61.6055C52.1602 61.379 52.4648 61.1953 52.8405 61.1953C53.2163 61.1953 53.5209 61.379 53.5209 61.6055Z" fill="url(#paint8_diamond_304_1353)"/>
<path d="M53.2399 61.5704C53.2399 61.702 53.0612 61.6265 52.8446 61.8087C52.6814 61.6333 52.4492 61.702 52.4492 61.5704C52.4492 61.4387 52.6262 61.332 52.8446 61.332C53.0629 61.332 53.2399 61.4387 53.2399 61.5704Z" fill="url(#paint9_diamond_304_1353)"/>
<path fill-rule="evenodd" clip-rule="evenodd" d="M77.4648 17.6443C77.4624 21.7315 77.46 28.8872 77.46 41.1609C77.46 51.9199 72.4016 61.6955 66.9919 68.7792L63.6914 66.2587C68.811 59.5549 73.3071 50.6546 73.3071 41.1609C73.3071 28.8868 73.3095 21.7301 73.3119 17.6419C73.3131 15.5977 73.3143 14.3205 73.3152 13.5542L73.3163 12.7558L73.3166 12.5838L73.3167 12.5441L73.3167 12.5344L73.3167 12.532L73.3167 12.5314L73.3167 12.5312L75.3932 12.5361L77.4696 12.5409V12.5411L77.4696 12.5416L77.4696 12.5438L77.4696 12.5529L77.4695 12.5919L77.4692 12.7626L77.4681 13.5591C77.4672 14.3244 77.466 15.6007 77.4648 17.6443Z" fill="white"/>
<path fill-rule="evenodd" clip-rule="evenodd" d="M88.638 20.5546C88.636 23.9768 88.634 29.9684 88.634 40.2452C88.634 51.0268 85.9838 59.859 81.4898 65.6309L78.7461 63.4947C82.6202 58.5189 85.1568 50.5266 85.1568 40.2452C85.1568 29.968 85.1588 23.9757 85.1608 20.5526C85.1618 18.841 85.1628 17.7716 85.1636 17.13L85.1645 16.4614L85.1647 16.3174L85.1648 16.2842L85.1648 16.2761L85.1648 16.2741L85.1648 16.2736L85.1648 16.2734L86.9034 16.2775L88.6421 16.2816V16.2817L88.6421 16.2821L88.642 16.2839L88.642 16.2916L88.642 16.3242L88.6417 16.4671L88.6408 17.1341C88.6401 17.7748 88.639 18.8435 88.638 20.5546Z" fill="white"/>
<defs>
<radialGradient id="paint0_radial_304_1353" cx="0" cy="0" r="1" gradientUnits="userSpaceOnUse" gradientTransform="translate(53.2936 3.81495) rotate(90) scale(1.26417 8.33269)">
<stop stop-color="white" stop-opacity="0.12"/>
<stop offset="1" stop-color="white" stop-opacity="0"/>
</radialGradient>
<radialGradient id="paint1_diamond_304_1353" cx="0" cy="0" r="1" gradientUnits="userSpaceOnUse" gradientTransform="translate(52.8287 3.93386) rotate(90.0006) scale(3.45569 5.73178)">
<stop offset="0.21875" stop-color="white" stop-opacity="0.15"/>
<stop offset="1" stop-color="white" stop-opacity="0"/>
</radialGradient>
<radialGradient id="paint2_diamond_304_1353" cx="0" cy="0" r="1" gradientUnits="userSpaceOnUse" gradientTransform="translate(52.8269 3.81634) rotate(90.0006) scale(2.087 3.4616)">
<stop offset="0.21875" stop-color="white" stop-opacity="0.07"/>
<stop offset="1" stop-color="white" stop-opacity="0"/>
</radialGradient>
<radialGradient id="paint3_diamond_304_1353" cx="0" cy="0" r="1" gradientUnits="userSpaceOnUse" gradientTransform="translate(52.8232 3.93544) rotate(89.9987) scale(1.37391 2.27883)">
<stop stop-color="white" stop-opacity="0.33"/>
<stop offset="0.831175" stop-color="white" stop-opacity="0"/>
</radialGradient>
<radialGradient id="paint4_diamond_304_1353" cx="0" cy="0" r="1" gradientUnits="userSpaceOnUse" gradientTransform="translate(52.8409 3.81679) rotate(89.9987) scale(0.798351 1.32418)">
<stop stop-color="white" stop-opacity="0.72"/>
<stop offset="0.831175" stop-color="white" stop-opacity="0"/>
</radialGradient>
<radialGradient id="paint5_radial_304_1353" cx="0" cy="0" r="1" gradientUnits="userSpaceOnUse" gradientTransform="translate(52.9873 61.5691) rotate(90) scale(0.393357 2.59278)">
<stop stop-color="white" stop-opacity="0.12"/>
<stop offset="1" stop-color="white" stop-opacity="0"/>
</radialGradient>
<radialGradient id="paint6_diamond_304_1353" cx="0" cy="0" r="1" gradientUnits="userSpaceOnUse" gradientTransform="translate(52.8413 61.6064) rotate(90.0006) scale(1.07527 1.78349)">
<stop offset="0.21875" stop-color="white" stop-opacity="0.15"/>
<stop offset="1" stop-color="white" stop-opacity="0"/>
</radialGradient>
<radialGradient id="paint7_diamond_304_1353" cx="0" cy="0" r="1" gradientUnits="userSpaceOnUse" gradientTransform="translate(52.8428 61.57) rotate(90.0006) scale(0.649386 1.0771)">
<stop offset="0.21875" stop-color="white" stop-opacity="0.07"/>
<stop offset="1" stop-color="white" stop-opacity="0"/>
</radialGradient>
<radialGradient id="paint8_diamond_304_1353" cx="0" cy="0" r="1" gradientUnits="userSpaceOnUse" gradientTransform="translate(52.8405 61.6055) rotate(89.9987) scale(0.427503 0.709077)">
<stop stop-color="white" stop-opacity="0.33"/>
<stop offset="0.831175" stop-color="white" stop-opacity="0"/>
</radialGradient>
<radialGradient id="paint9_diamond_304_1353" cx="0" cy="0" r="1" gradientUnits="userSpaceOnUse" gradientTransform="translate(52.8446 61.5704) rotate(89.9987) scale(0.248413 0.41203)">
<stop stop-color="white" stop-opacity="0.72"/>
<stop offset="0.831175" stop-color="white" stop-opacity="0"/>
</radialGradient>
</defs>
</svg>
