<svg width="108" height="137" viewBox="0 0 108 137" fill="none" xmlns="http://www.w3.org/2000/svg">
<circle cx="51.4252" cy="86.4212" r="49.0228" stroke="white" stroke-width="2"/>
<path d="M72.582 1.35938L72.624 17.5746" stroke="white" stroke-width="2" stroke-linecap="round"/>
<path d="M103.707 16.0391L88.8927 28.6139" stroke="white" stroke-width="2" stroke-linecap="round"/>
<path d="M39.2031 21.1562L56.8639 29.261" stroke="white" stroke-width="2" stroke-linecap="round"/>
<path d="M88.8438 12.7422L82.4971 21.2012" stroke="white" stroke-width="2" stroke-linecap="round"/>
<path d="M54.9336 13.8047L62.6096 21.0789" stroke="white" stroke-width="2" stroke-linecap="round"/>
<rect x="23.0348" y="66.8386" width="23.3138" height="53.7592" rx="3" transform="rotate(-2.26521 23.0348 66.8386)" stroke="white" stroke-width="2"/>
<path d="M5.28359 70.108C5.48593 69.5045 5.66185 69.0296 5.79202 68.6944L23.1284 68.4552L25.1213 118.837L14.802 118.961C14.7683 118.925 14.7317 118.886 14.6924 118.844C14.4322 118.564 14.0539 118.144 13.5909 117.592C12.6646 116.487 11.4011 114.857 10.0658 112.767C7.3926 108.584 4.44858 102.585 3.32449 95.2941C2.11379 87.4416 2.79669 80.6276 3.78195 75.7787C4.2744 73.3552 4.84172 71.426 5.28359 70.108Z" stroke="white" stroke-width="2"/>
<circle cx="36.3753" cy="108.418" r="5.78545" stroke="white" stroke-width="2"/>
<circle cx="36.377" cy="108.42" r="2.57227" fill="white"/>
<path d="M61.7655 48.8455L46.8196 71.2667C46.8196 71.2667 47.5058 94.4611 48.1019 103.736C48.2312 105.748 49.1913 107.624 50.9236 108.655C54.1726 110.59 58.8252 112.265 67.0777 114.708C70.7973 115.809 74.6429 116.532 78.5218 116.497C87.6379 116.415 94.1015 114.805 94.1015 114.805C94.1015 114.805 99.5623 113.735 101.073 109.244C101.644 106.626 101.363 105.703 101.333 104.025C101.303 102.346 102.296 101.046 103.183 98.7765C104 96.6857 104.037 94.9465 103.518 90.7914C103.427 90.0585 103.54 89.3142 103.807 88.626C104.906 85.8047 105.249 83.3739 105.232 82.4322C105.191 80.1285 104.93 78.5411 104.019 75.8976C103.9 75.5542 103.975 75.1748 104.198 74.8884C105.425 73.3164 106.049 71.6174 106.216 71.1151C106.249 71.0162 106.279 70.9181 106.306 70.8175C106.563 69.8642 107.787 64.5865 104.325 61.4121C100.66 58.0519 99.362 58.1744 93.7535 58.464C84.3521 58.9495 77.4987 61.4073 77.9858 56.5373C79.0206 51.3596 79.8132 50.008 79.4813 43.8268C79.2965 40.3838 78.2836 36.6404 77.4224 33.9994C76.7205 31.8467 74.6827 30.4801 72.4185 30.456C69.9955 30.4302 67.8232 31.9452 67.0103 34.2279L65.8024 37.6199L64.4995 42.711C63.9404 44.8953 63.0161 46.9694 61.7655 48.8455Z" fill="#292F3D" stroke="white" stroke-width="2"/>
</svg>
