<svg width="118" height="110" viewBox="0 0 118 110" fill="none" xmlns="http://www.w3.org/2000/svg">
<line x1="52.4419" y1="6.51904" x2="52.4164" y2="13.9673" stroke="white" stroke-width="2" stroke-linecap="round"/>
<line x1="53.3984" y1="95.6141" x2="53.817" y2="103.051" stroke="white" stroke-width="2" stroke-linecap="round"/>
<line x1="76.4774" y1="12.0894" x2="73.1217" y2="18.7389" stroke="white" stroke-width="2" stroke-linecap="round"/>
<line x1="32.7352" y1="89.0074" x2="29.3795" y2="95.6569" stroke="white" stroke-width="2" stroke-linecap="round"/>
<line x1="93.7074" y1="29.3493" x2="87.4766" y2="33.4301" stroke="white" stroke-width="2" stroke-linecap="round"/>
<line x1="19.0863" y1="76.4587" x2="12.8555" y2="80.5395" stroke="white" stroke-width="2" stroke-linecap="round"/>
<line x1="100.781" y1="55.0741" x2="93.3335" y2="54.9863" stroke="white" stroke-width="2" stroke-linecap="round"/>
<line x1="13.2598" y1="54.8223" x2="5.81168" y2="54.8663" stroke="white" stroke-width="2" stroke-linecap="round"/>
<line x1="95.3637" y1="76.6375" x2="88.7142" y2="73.2819" stroke="white" stroke-width="2" stroke-linecap="round"/>
<line x1="16.6176" y1="35.0594" x2="9.96811" y2="31.7037" stroke="white" stroke-width="2" stroke-linecap="round"/>
<line x1="78.7835" y1="94.434" x2="74.7027" y2="88.2031" stroke="white" stroke-width="2" stroke-linecap="round"/>
<line x1="32.8421" y1="19.3051" x2="28.7613" y2="13.0742" stroke="white" stroke-width="2" stroke-linecap="round"/>
<circle cx="53.4238" cy="53.8751" r="49.3306" transform="rotate(-3.22228 53.4238 53.8751)" stroke="white" stroke-width="2"/>
<path d="M53.5547 26.8477L53.2716 57.942" stroke="white" stroke-width="2" stroke-linecap="round"/>
<path d="M66.8125 70.2539L53.4215 58.2326" stroke="white" stroke-width="2" stroke-linecap="round"/>
<path d="M93.9957 108.984C96.934 108.987 99.8441 108.41 102.559 107.286C105.273 106.161 107.739 104.512 109.814 102.431C111.894 100.356 113.544 97.8905 114.669 95.1759C115.793 92.4613 116.37 89.5512 116.366 86.6129C116.37 83.6746 115.793 80.7645 114.669 78.0499C113.544 75.3352 111.894 72.8696 109.814 70.7946C107.739 68.7141 105.273 67.0643 102.559 65.9398C99.8441 64.8153 96.934 64.2384 93.9957 64.2422C91.0574 64.2385 88.1473 64.8154 85.4327 65.9399C82.718 67.0643 80.2524 68.7142 78.1774 70.7946C76.097 72.8696 74.4472 75.3352 73.3227 78.0499C72.1982 80.7645 71.6213 83.6746 71.625 86.6129C71.6212 89.5512 72.1981 92.4613 73.3226 95.1759C74.4471 97.8905 76.0969 100.356 78.1774 102.431C80.2524 104.512 82.718 106.161 85.4327 107.286C88.1473 108.41 91.0574 108.987 93.9957 108.984Z" fill="#292F3D" stroke="white" stroke-width="2" stroke-linejoin="round"/>
<path fill-rule="evenodd" clip-rule="evenodd" d="M93.9956 101.155C94.7372 101.155 95.4484 100.861 95.9729 100.336C96.4973 99.8117 96.7919 99.1005 96.7919 98.3588C96.7919 97.6172 96.4973 96.9059 95.9729 96.3815C95.4484 95.8571 94.7372 95.5625 93.9956 95.5625C93.2539 95.5625 92.5427 95.8571 92.0182 96.3815C91.4938 96.9059 91.1992 97.6172 91.1992 98.3588C91.1992 99.1005 91.4938 99.8117 92.0182 100.336C92.5427 100.861 93.2539 101.155 93.9956 101.155V101.155Z" fill="#292F3D"/>
<path d="M94.0159 92.2168C93.5034 92.2168 93.0778 92.0408 92.7047 91.6677L92.2412 92.1312L92.7047 91.6677C92.5543 91.5173 92.4714 91.3573 92.3972 91.1289C92.3603 91.0156 92.3288 90.8961 92.2897 90.7479C92.2864 90.7354 92.2831 90.7226 92.2797 90.7097C92.2393 90.5566 92.1921 90.3809 92.13 90.1927L90.0116 81.7194C89.763 80.7247 89.6089 79.8519 89.8498 79.0731C90.0473 78.4344 90.4022 77.8524 90.93 77.3246C91.7823 76.4723 92.7922 76.0539 93.9964 76.0539C95.2006 76.0539 96.2105 76.4723 97.0628 77.3246C97.5907 77.8524 97.9455 78.4344 98.143 79.0731C98.3839 79.8519 98.2299 80.7247 97.9812 81.7194L95.8611 90.1996C95.8056 90.3803 95.7621 90.552 95.7243 90.7014L95.7225 90.7082C95.6816 90.87 95.648 91.0013 95.6086 91.1241C95.5338 91.3567 95.4484 91.523 95.3015 91.6739C94.9437 92.0414 94.528 92.2168 94.0159 92.2168ZM93.9964 96.024C94.5309 96.024 94.9538 96.1998 95.3076 96.5536C95.664 96.9099 95.8372 97.3275 95.8372 97.8453C95.8372 98.3578 95.6612 98.7834 95.2881 99.1565C94.9151 99.5295 94.4895 99.7056 93.9769 99.7056C93.4649 99.7056 93.0491 99.5301 92.6914 99.1627C92.3294 98.7909 92.1556 98.3634 92.1556 97.8453C92.1556 97.3275 92.3289 96.9099 92.6852 96.5536C93.039 96.1998 93.462 96.024 93.9964 96.024Z" fill="#EB5757" stroke="#EB5757" stroke-width="1.31093"/>
</svg>
