<svg viewBox="0 -50 600 600" xmlns="http://www.w3.org/2000/svg"><path fill-rule="evenodd" clip-rule="evenodd" d="M128.781 241.173c0 62.17 
45.076 104.52 95.693 113.285 5.792 1.003 9.676 6.511 8.672 12.305-1.003 5.791-6.511 9.673-12.303 8.671-59.464-10.297-113.349-60.416-113.349-134.261 
0-31.383 14.277-56.046 30.951-74.807 11.944-13.439 25.608-24.352 36.598-32.712h-33.42c-5.639 0-10.21-4.571-10.21-10.211 0-5.64 
4.571-10.211 10.21-10.211h61.268c5.639 0 10.21 4.571 10.21 10.211v61.267c0 5.639-4.571 10.212-10.21 10.212-5.64 
0-10.212-4.573-10.212-10.212v-37.69l-.03.022-.002.002c-11.672 8.802-25.934 19.558-38.29 33.462-14.592 16.42-25.576 36.257-25.576 60.667Zm226.845 
8.301c0-61.514-44.12-103.615-94.086-112.996-5.778-1.084-9.583-6.647-8.498-12.425 1.085-5.778 6.647-9.582 12.425-8.498 58.698 11.021 111.445 
60.864 111.445 133.919 0 31.382-14.277 56.044-30.95 74.807-11.945 13.439-25.61 24.351-36.599 32.711h33.422c5.638 0 10.211 4.571 10.211 10.212
0 5.638-4.573 10.21-10.211 10.21h-61.269c-5.639 0-10.21-4.572-10.21-10.21v-61.267c0-5.641 4.571-10.212 10.21-10.212 5.64 0 10.211 4.571 10.211 
10.212v37.69l.032-.025c11.672-8.803 25.934-19.559 38.29-33.462 14.593-16.421 25.577-36.257 25.577-60.666Z" fill="#00c6bc"/></svg>